<svg width="333" height="87" viewBox="0 0 333 87" fill="none" xmlns="http://www.w3.org/2000/svg">
<mask id="path-1-outside-1_58_388" maskUnits="userSpaceOnUse" x="-0.759995" y="-0.288086" width="334" height="88" fill="black">
<rect fill="white" x="-0.759995" y="-0.288086" width="334" height="88"/>
<path d="M1.00001 84.7119V2.27991H21.48L52.584 45.9279V2.27991H76.648V84.7119H56.04L25.064 41.1919V84.7119H1.00001ZM88.125 84.7119V2.27991H150.589V20.7119H112.189V34.1519H145.853V52.8399H112.189V66.2799H150.589V84.7119H88.125ZM174.89 84.7119L155.69 2.27991H179.242L188.586 45.9279L197.674 14.6959V2.27991H217.386L229.93 46.0559L239.786 2.27991H263.338L244.266 84.7119H222.506L210.09 42.0879L196.65 84.7119H174.89ZM296.758 85.9919C291.211 85.9919 285.963 85.5652 281.014 84.7119C276.065 83.7732 271.841 82.4932 268.342 80.8719V61.0319C272.182 62.8239 276.449 64.2746 281.142 65.3839C285.835 66.4932 290.23 67.0479 294.326 67.0479C298.593 67.0479 301.793 66.7066 303.926 66.0239C306.145 65.2559 307.254 63.5919 307.254 61.0319C307.254 59.2399 306.614 57.8319 305.334 56.8079C304.139 55.7839 302.219 54.8452 299.574 53.9919C297.014 53.1386 293.643 52.0719 289.462 50.7919C283.915 48.9999 279.521 47.0372 276.278 44.9039C273.035 42.7706 270.689 40.1679 269.238 37.0959C267.873 34.0239 267.19 30.2692 267.19 25.8319C267.19 17.7252 270.049 11.5812 275.766 7.39991C281.569 3.13324 290.145 0.999908 301.494 0.999908C306.017 0.999908 310.667 1.38391 315.446 2.15191C320.31 2.91991 324.235 3.77324 327.222 4.71191V24.6799C323.211 23.0586 319.371 21.9066 315.702 21.2239C312.033 20.5412 308.577 20.1999 305.334 20.1999C301.579 20.1999 298.379 20.4986 295.734 21.0959C293.089 21.6932 291.766 23.2292 291.766 25.7039C291.766 27.8372 292.875 29.4159 295.094 30.4399C297.398 31.3786 301.451 32.6159 307.254 34.1519C313.995 35.9439 319.115 38.1199 322.614 40.6799C326.198 43.2399 328.63 46.2266 329.91 49.6399C331.19 52.9679 331.83 56.7652 331.83 61.0319C331.83 68.5412 328.929 74.5999 323.126 79.2079C317.323 83.7306 308.534 85.9919 296.758 85.9919Z"/>
</mask>
<path d="M1.00001 84.7119H5.72205e-06V85.7119H1.00001V84.7119ZM1.00001 2.27991V1.27991H5.72205e-06V2.27991H1.00001ZM21.48 2.27991L22.2944 1.69957L21.9953 1.27991H21.48V2.27991ZM52.584 45.9279L51.7696 46.5082L53.584 49.0544V45.9279H52.584ZM52.584 2.27991V1.27991H51.584V2.27991H52.584ZM76.648 2.27991H77.648V1.27991H76.648V2.27991ZM76.648 84.7119V85.7119H77.648V84.7119H76.648ZM56.04 84.7119L55.2253 85.2918L55.5243 85.7119H56.04V84.7119ZM25.064 41.1919L25.8787 40.612L24.064 38.0625V41.1919H25.064ZM25.064 84.7119V85.7119H26.064V84.7119H25.064ZM2.00001 84.7119V2.27991H5.72205e-06V84.7119H2.00001ZM1.00001 3.27991H21.48V1.27991H1.00001V3.27991ZM20.6656 2.86024L51.7696 46.5082L53.3984 45.3476L22.2944 1.69957L20.6656 2.86024ZM53.584 45.9279V2.27991H51.584V45.9279H53.584ZM52.584 3.27991H76.648V1.27991H52.584V3.27991ZM75.648 2.27991V84.7119H77.648V2.27991H75.648ZM76.648 83.7119H56.04V85.7119H76.648V83.7119ZM56.8547 84.132L25.8787 40.612L24.2493 41.7718L55.2253 85.2918L56.8547 84.132ZM24.064 41.1919V84.7119H26.064V41.1919H24.064ZM25.064 83.7119H1.00001V85.7119H25.064V83.7119ZM88.125 84.7119H87.125V85.7119H88.125V84.7119ZM88.125 2.27991V1.27991H87.125V2.27991H88.125ZM150.589 2.27991H151.589V1.27991H150.589V2.27991ZM150.589 20.7119V21.7119H151.589V20.7119H150.589ZM112.189 20.7119V19.7119H111.189V20.7119H112.189ZM112.189 34.1519H111.189V35.1519H112.189V34.1519ZM145.853 34.1519H146.853V33.1519H145.853V34.1519ZM145.853 52.8399V53.8399H146.853V52.8399H145.853ZM112.189 52.8399V51.8399H111.189V52.8399H112.189ZM112.189 66.2799H111.189V67.2799H112.189V66.2799ZM150.589 66.2799H151.589V65.2799H150.589V66.2799ZM150.589 84.7119V85.7119H151.589V84.7119H150.589ZM89.125 84.7119V2.27991H87.125V84.7119H89.125ZM88.125 3.27991H150.589V1.27991H88.125V3.27991ZM149.589 2.27991V20.7119H151.589V2.27991H149.589ZM150.589 19.7119H112.189V21.7119H150.589V19.7119ZM111.189 20.7119V34.1519H113.189V20.7119H111.189ZM112.189 35.1519H145.853V33.1519H112.189V35.1519ZM144.853 34.1519V52.8399H146.853V34.1519H144.853ZM145.853 51.8399H112.189V53.8399H145.853V51.8399ZM111.189 52.8399V66.2799H113.189V52.8399H111.189ZM112.189 67.2799H150.589V65.2799H112.189V67.2799ZM149.589 66.2799V84.7119H151.589V66.2799H149.589ZM150.589 83.7119H88.125V85.7119H150.589V83.7119ZM174.89 84.7119L173.916 84.9388L174.096 85.7119H174.89V84.7119ZM155.69 2.27991V1.27991H154.43L154.716 2.50675L155.69 2.27991ZM179.242 2.27991L180.22 2.07057L180.051 1.27991H179.242V2.27991ZM188.586 45.9279L187.608 46.1372L189.546 46.2073L188.586 45.9279ZM197.674 14.6959L198.634 14.9753L198.674 14.8384V14.6959H197.674ZM197.674 2.27991V1.27991H196.674V2.27991H197.674ZM217.386 2.27991L218.347 2.00444L218.14 1.27991H217.386V2.27991ZM229.93 46.0559L228.969 46.3314L230.906 46.2756L229.93 46.0559ZM239.786 2.27991V1.27991H238.986L238.81 2.06026L239.786 2.27991ZM263.338 2.27991L264.312 2.50532L264.596 1.27991H263.338V2.27991ZM244.266 84.7119V85.7119H245.061L245.24 84.9373L244.266 84.7119ZM222.506 84.7119L221.546 84.9916L221.756 85.7119H222.506V84.7119ZM210.09 42.0879L211.05 41.8082L210.128 38.6424L209.136 41.7872L210.09 42.0879ZM196.65 84.7119V85.7119H197.383L197.604 85.0126L196.65 84.7119ZM175.864 84.4851L156.664 2.05306L154.716 2.50675L173.916 84.9388L175.864 84.4851ZM155.69 3.27991H179.242V1.27991H155.69V3.27991ZM178.264 2.48924L187.608 46.1372L189.564 45.7186L180.22 2.07057L178.264 2.48924ZM189.546 46.2073L198.634 14.9753L196.714 14.4165L187.626 45.6485L189.546 46.2073ZM198.674 14.6959V2.27991H196.674V14.6959H198.674ZM197.674 3.27991H217.386V1.27991H197.674V3.27991ZM216.425 2.55537L228.969 46.3314L230.891 45.7804L218.347 2.00444L216.425 2.55537ZM230.906 46.2756L240.762 2.49956L238.81 2.06026L228.954 45.8363L230.906 46.2756ZM239.786 3.27991H263.338V1.27991H239.786V3.27991ZM262.364 2.05449L243.292 84.4865L245.24 84.9373L264.312 2.50532L262.364 2.05449ZM244.266 83.7119H222.506V85.7119H244.266V83.7119ZM223.466 84.4322L211.05 41.8082L209.13 42.3676L221.546 84.9916L223.466 84.4322ZM209.136 41.7872L195.696 84.4112L197.604 85.0126L211.044 42.3886L209.136 41.7872ZM196.65 83.7119H174.89V85.7119H196.65V83.7119ZM281.014 84.7119L280.828 85.6944L280.836 85.696L280.844 85.6974L281.014 84.7119ZM268.342 80.8719H267.342V81.5107L267.922 81.7792L268.342 80.8719ZM268.342 61.0319L268.765 60.1257L267.342 59.4617V61.0319H268.342ZM281.142 65.3839L280.912 66.3571L281.142 65.3839ZM303.926 66.0239L304.231 66.9763L304.242 66.9727L304.253 66.9689L303.926 66.0239ZM305.334 56.8079L304.683 57.5672L304.696 57.5782L304.709 57.5888L305.334 56.8079ZM299.574 53.9919L299.258 54.9406L299.267 54.9436L299.574 53.9919ZM289.462 50.7919L289.155 51.7435L289.162 51.7459L289.169 51.7481L289.462 50.7919ZM276.278 44.9039L275.728 45.7393L276.278 44.9039ZM269.238 37.0959L268.324 37.5021L268.329 37.5125L268.334 37.5229L269.238 37.0959ZM275.766 7.39991L276.356 8.20708L276.358 8.20556L275.766 7.39991ZM315.446 2.15191L315.287 3.13924L315.29 3.13967L315.446 2.15191ZM327.222 4.71191H328.222V3.97798L327.522 3.75792L327.222 4.71191ZM327.222 24.6799L326.847 25.607L328.222 26.1628V24.6799H327.222ZM315.702 21.2239L315.519 22.207L315.702 21.2239ZM295.734 21.0959L295.514 20.1205L295.734 21.0959ZM295.094 30.4399L294.675 31.3479L294.696 31.3574L294.717 31.366L295.094 30.4399ZM307.254 34.1519L307.511 33.1855L307.51 33.1852L307.254 34.1519ZM322.614 40.6799L322.023 41.487L322.033 41.4936L322.614 40.6799ZM329.91 49.6399L328.974 49.9911L328.977 49.9989L329.91 49.6399ZM323.126 79.2079L323.741 79.9967L323.748 79.991L323.126 79.2079ZM296.758 84.9919C291.262 84.9919 286.072 84.5692 281.184 83.7265L280.844 85.6974C285.855 86.5613 291.16 86.9919 296.758 86.9919V84.9919ZM281.2 83.7294C276.309 82.8017 272.168 81.5427 268.762 79.9646L267.922 81.7792C271.514 83.4438 275.821 84.7448 280.828 85.6944L281.2 83.7294ZM269.342 80.8719V61.0319H267.342V80.8719H269.342ZM267.919 61.9381C271.829 63.7626 276.161 65.2342 280.912 66.3571L281.372 64.4107C276.736 63.315 272.535 61.8852 268.765 60.1257L267.919 61.9381ZM280.912 66.3571C285.668 67.4812 290.14 68.0479 294.326 68.0479V66.0479C290.32 66.0479 286.003 65.5053 281.372 64.4107L280.912 66.3571ZM294.326 68.0479C298.62 68.0479 301.946 67.7074 304.231 66.9763L303.621 65.0715C301.639 65.7058 298.565 66.0479 294.326 66.0479V68.0479ZM304.253 66.9689C305.532 66.5263 306.558 65.7986 307.254 64.7546C307.945 63.7179 308.254 62.4544 308.254 61.0319H306.254C306.254 62.1694 306.008 63.0179 305.59 63.6452C305.177 64.2652 304.539 64.7535 303.599 65.0789L304.253 66.9689ZM308.254 61.0319C308.254 58.9685 307.5 57.2601 305.959 56.027L304.709 57.5888C305.728 58.4037 306.254 59.5113 306.254 61.0319H308.254ZM305.985 56.0487C304.64 54.896 302.571 53.9078 299.881 53.0402L299.267 54.9436C301.868 55.7827 303.639 56.6719 304.683 57.5672L305.985 56.0487ZM299.89 53.0432C297.319 52.1862 293.94 51.1168 289.755 49.8357L289.169 51.7481C293.347 53.027 296.709 54.091 299.258 54.9406L299.89 53.0432ZM289.769 49.8403C284.27 48.0636 279.968 46.1343 276.828 44.0685L275.728 45.7393C279.074 47.9402 283.561 49.9362 289.155 51.7435L289.769 49.8403ZM276.828 44.0685C273.716 42.0214 271.504 39.5522 270.142 36.6689L268.334 37.5229C269.874 40.7837 272.355 43.5197 275.728 45.7393L276.828 44.0685ZM270.152 36.6898C268.858 33.7796 268.19 30.172 268.19 25.8319H266.19C266.19 30.3665 266.887 34.2683 268.324 37.5021L270.152 36.6898ZM268.19 25.8319C268.19 17.9914 270.936 12.171 276.356 8.20708L275.176 6.59274C269.161 10.9915 266.19 17.4591 266.19 25.8319H268.19ZM276.358 8.20556C281.916 4.11916 290.244 1.99991 301.494 1.99991V-9.15527e-05C290.046 -9.15527e-05 281.221 2.14732 275.174 6.59426L276.358 8.20556ZM301.494 1.99991C305.96 1.99991 310.558 2.37909 315.287 3.13924L315.605 1.16458C310.777 0.388729 306.073 -9.15527e-05 301.494 -9.15527e-05V1.99991ZM315.29 3.13967C320.13 3.9038 324.001 4.7479 326.922 5.66591L327.522 3.75792C324.469 2.79859 320.49 1.93602 315.602 1.16415L315.29 3.13967ZM326.222 4.71191V24.6799H328.222V4.71191H326.222ZM327.597 23.7528C323.534 22.1103 319.629 20.9374 315.885 20.2408L315.519 22.207C319.113 22.8757 322.889 24.0069 326.847 25.607L327.597 23.7528ZM315.885 20.2408C312.164 19.5485 308.646 19.1999 305.334 19.1999V21.1999C308.507 21.1999 311.901 21.534 315.519 22.207L315.885 20.2408ZM305.334 19.1999C301.531 19.1999 298.253 19.5019 295.514 20.1205L295.954 22.0714C298.506 21.4952 301.627 21.1999 305.334 21.1999V19.1999ZM295.514 20.1205C294.052 20.4506 292.842 21.0659 292 22.0434C291.15 23.0307 290.766 24.2822 290.766 25.7039H292.766C292.766 24.651 293.043 23.8972 293.516 23.3484C293.997 22.79 294.771 22.3386 295.954 22.0714L295.514 20.1205ZM290.766 25.7039C290.766 26.9536 291.094 28.0874 291.78 29.0629C292.459 30.0301 293.448 30.7814 294.675 31.3479L295.513 29.532C294.522 29.0745 293.846 28.5244 293.416 27.913C292.992 27.3097 292.766 26.5875 292.766 25.7039H290.766ZM294.717 31.366C297.086 32.3314 301.196 33.5826 306.998 35.1186L307.51 33.1852C301.707 31.6492 297.71 30.4258 295.471 29.5138L294.717 31.366ZM306.997 35.1184C313.683 36.8955 318.668 39.0314 322.024 41.4869L323.205 39.8729C319.563 37.2084 314.308 34.9923 307.511 33.1855L306.997 35.1184ZM322.033 41.4936C325.489 43.9625 327.777 46.7995 328.974 49.991L330.846 49.2888C329.483 45.6537 326.907 42.5173 323.195 39.8662L322.033 41.4936ZM328.977 49.9989C330.205 53.1922 330.83 56.8644 330.83 61.0319H332.83C332.83 56.6661 332.175 52.7436 330.843 49.2809L328.977 49.9989ZM330.83 61.0319C330.83 68.241 328.064 74.0095 322.504 78.4248L323.748 79.991C329.793 75.1904 332.83 68.8415 332.83 61.0319H330.83ZM322.511 78.4192C316.962 82.7443 308.436 84.9919 296.758 84.9919V86.9919C308.632 86.9919 317.685 84.7169 323.741 79.9966L322.511 78.4192Z" fill="#4282B8" mask="url(#path-1-outside-1_58_388)"/>
</svg>
