<svg width="82" height="94" viewBox="0 0 82 94" fill="none" xmlns="http://www.w3.org/2000/svg">
<g clip-path="url(#clip0_102_10780)">
<path opacity="0.05" d="M55.8323 82.5163C56.5054 80.9223 53.8655 78.2639 49.9358 76.5788C46.0062 74.8936 42.275 74.8198 41.6018 76.4138C40.9287 78.0079 43.5686 80.6662 47.4983 82.3513C51.4279 84.0365 55.1591 84.1104 55.8323 82.5163Z" fill="black"/>
<path d="M43.6902 21.1629C42.5969 22.4193 40.3753 32.4854 41.7729 32.5658C43.1705 32.6462 45.9775 26.5113 46.6312 22.2304C47.3017 17.84 44.6772 20.0286 43.6902 21.1629Z" fill="#363E58"/>
<path opacity="0.1" d="M45.295 25.0322C45.295 25.0322 44.0584 24.8321 44.3204 28.1245C44.5001 30.3831 44.3587 30.9749 44.6656 31.1964C45.0458 31.4707 45.295 25.0322 45.295 25.0322Z" fill="black"/>
<path d="M54.8854 38.9469C54.8854 38.9469 56.7968 40.2499 55.6427 45.0683C54.4886 49.8866 46.8799 43.7283 46.8799 43.7283L52.4489 38.9469L54.8854 38.9469Z" fill="#3C4358"/>
<path d="M47.7204 78.893C47.7204 78.893 47.333 78.808 47.2926 78.7266C47.2522 78.6451 47.5803 78.5014 47.5803 78.5014L47.7204 78.6667V78.893Z" fill="#998E82"/>
<path d="M49.2072 77.4451C49.361 76.7999 49.3761 76.1272 48.9326 75.5405C48.1914 74.5601 46.9312 74.971 46.2453 75.3432C45.5594 75.7154 45.3493 76.4519 43.4615 77.5554C42.9844 77.8342 40.5488 79.0675 41.2998 80.0448C41.8401 80.7479 43.509 80.5268 45.1132 80.1987C46.4836 79.9184 47.3122 78.5704 47.6409 78.6544C47.6888 78.678 47.6278 78.8496 47.7204 78.893C47.9237 78.9883 49.245 78.2848 49.2734 78.0085C49.2984 77.765 49.3124 77.6826 49.2072 77.4451Z" fill="#4A4C57"/>
<path d="M48.1926 71.2165C48.9767 72.4312 48.0737 74.6756 48.6146 75.4304C49.3049 76.3938 47.5471 77.2395 47.1362 77.1583C47.0397 77.1393 47.2113 76.8716 47.2645 76.6609C47.3248 76.4219 45.9155 75.8261 45.6693 75.9937C45.5285 76.0895 46.0801 75.6752 46.4029 75.4924C46.5334 75.4185 46.6941 75.3068 46.7369 75.2554C47.0017 74.9377 46.1999 71.9048 46.058 71.5574C45.9161 71.2101 47.8538 70.6916 48.1926 71.2165Z" fill="#314058"/>
<path d="M50.0859 55.9509C50.0859 55.9509 49.5937 68.1389 49.6611 76.2311C49.6649 76.6899 47.9263 77.2186 47.4357 77.241C46.8357 77.2682 45.2499 76.7208 45.2967 75.869C45.5648 70.9824 44.4793 59.6964 44.3557 55.4619C44.1431 48.1805 50.0859 55.9509 50.0859 55.9509Z" fill="#3C4358"/>
<path d="M44.2746 40.166C44.2203 51.53 43.4976 61.0762 47.2029 61.2971C51.9623 61.5808 50.1411 47.3989 50.6382 42.4381C51.3151 35.6848 44.2892 37.1075 44.2746 40.166Z" fill="#3C4358"/>
<path d="M48.0942 39.4002C48.1487 39.418 48.1925 39.4738 48.1927 39.5254L48.1963 40.4157C48.1965 40.4666 48.1529 40.4937 48.0985 40.4759L46.6773 40.0106C46.6229 39.9927 46.5791 39.937 46.5789 39.8861L46.5753 38.9958C46.5751 38.9442 46.6186 38.917 46.673 38.9349L48.0942 39.4002Z" fill="#BEBEBE"/>
<path d="M48.012 40.2742L48.0091 39.5458L46.7594 39.1366L46.7623 39.8649L48.012 40.2742Z" fill="#4A4C57"/>
<path opacity="0.1" d="M48.6665 43.5063C48.4503 43.5986 47.6738 43.7787 47.6815 44.1183C47.7758 48.2774 48.6137 60.225 49.6712 66.3098L48.6665 43.5063Z" fill="#1A1A1A"/>
<path d="M53.1736 82.0352C53.1736 82.0352 52.7862 81.9502 52.7458 81.8687C52.7053 81.7873 53.0334 81.6435 53.0334 81.6435L53.1736 81.8088V82.0352Z" fill="#998E82"/>
<path d="M54.6604 80.5872C54.8142 79.942 54.8292 79.2693 54.3857 78.6826C53.6445 77.7023 52.3844 78.1132 51.6985 78.4854C51.0126 78.8575 50.8024 79.594 48.9146 80.6975C48.4376 80.9764 46.0019 82.2096 46.7529 83.1869C47.2932 83.89 48.9621 83.669 50.5663 83.3408C51.9367 83.0605 52.7653 81.7125 53.094 81.7965C53.1419 81.8202 53.0809 81.9918 53.1736 82.0351C53.3768 82.1304 54.6982 81.4269 54.7266 81.1506C54.7515 80.9072 54.7655 80.8247 54.6604 80.5872Z" fill="#4A4C57"/>
<path d="M53.6457 74.3586C54.4298 75.5734 53.5268 77.8178 54.0677 78.5726C54.7581 79.5359 53.0002 80.3816 52.5893 80.3005C52.4928 80.2814 52.6644 80.0137 52.7176 79.8031C52.7779 79.5641 51.3687 78.9683 51.1224 79.1358C50.9817 79.2316 51.5332 78.8173 51.856 78.6345C51.9865 78.5606 52.1472 78.4489 52.19 78.3975C52.4548 78.0798 51.653 75.0469 51.5111 74.6996C51.3692 74.3522 53.307 73.8337 53.6457 74.3586Z" fill="#314058"/>
<path d="M55.2206 59.6562C55.2206 59.6562 54.7645 71.2106 54.8319 79.3028C54.8357 79.7616 53.0971 80.2904 52.6065 80.3127C52.0065 80.34 50.4207 79.7926 50.4675 78.9407C50.7356 74.0541 49.3376 65.354 49.2431 61.1187C49.1548 57.1591 55.2206 59.6562 55.2206 59.6562Z" fill="#3C4358"/>
<path d="M48.2948 42.1394C48.8928 53.5467 49.2423 62.0819 49.4161 63.9381C49.5037 64.8738 55.0075 63.7879 55.1113 62.7559C55.4637 59.2523 54.8108 48.6063 55.2107 44.6159C55.8875 37.8626 48.1347 39.0851 48.2948 42.1394Z" fill="#3C4358"/>
<path d="M46.6968 21.415L46.7557 21.0827L46.6968 21.415Z" fill="#CDCDD5"/>
<path d="M55.5173 26.6781C55.5751 25.5867 55.5416 24.6999 55.3125 23.8491C55.1303 23.1728 54.8098 22.4614 54.2532 21.8026C53.42 20.8164 52.5782 20.1864 51.1842 19.7543L51.1513 19.4637C51.1513 19.4637 49.7824 19.0601 48.1739 19.0306L48.1102 19.1909C47.5416 19.1787 46.8095 19.299 46.1417 19.9289C44.7532 21.2387 45.0944 24.2406 45.0944 26.8601C45.0944 29.4797 46.6433 27.7136 45.7474 33.2784C44.6792 39.913 47.1737 38.7828 52.0088 39.4876C54.1962 39.8065 54.615 40.2307 54.615 39.1775C54.615 37.9961 54.6872 37.678 54.4496 36.5486C54.4061 36.3419 54.3704 36.1063 54.3468 35.8344C54.3061 35.3675 54.301 34.7931 54.3533 34.0706C54.4662 32.5118 55.4915 27.1638 55.5173 26.6781Z" fill="#ECF5FA"/>
<path d="M48.9062 21.1363C49.0483 20.9487 49.0978 20.5984 49.0978 20.5984L48.7682 19.9085L48.2527 20.335C48.2527 20.335 48.1573 20.7837 48.2874 21.0194C48.3105 21.0612 48.3433 21.0986 48.386 21.1293L46.1729 37.0584L47.4336 38.6332L49.355 37.7871L48.8681 21.173C48.8818 21.1628 48.8949 21.1513 48.9062 21.1363Z" fill="#4282B8"/>
<path d="M48.1739 19.015L47.7535 18.9648L47.5326 19.0969C46.9444 19.1628 46.2355 19.4972 45.6864 19.8542C45.6864 19.8542 44.2514 21.5192 44.2514 26.3476C44.2514 28.3301 44.846 31.2927 44.8966 32.8113C44.9048 33.0573 44.8237 33.931 44.8237 33.931L44.6364 35.3803C44.6364 35.3803 44.5997 35.6404 44.5403 36.0661C44.489 36.0487 44.4472 36.0438 44.4223 36.0589C44.2721 36.1496 43.942 37.0724 44.047 37.2354C44.0792 37.2854 44.1936 37.3964 44.3384 37.5212C44.0351 39.721 43.6084 40.756 43.6028 41.1648C43.5903 42.0759 44.3186 42.7847 44.8966 42.7499C45.3558 42.7223 46.9925 38.6685 47.58 35.5742C47.732 34.7733 47.9311 33.74 47.9388 33.1502C47.9491 32.3657 47.8446 32.3689 47.598 32.0546C47.5219 31.9575 47.4323 31.8306 47.3282 31.6403C46.6227 30.3504 47.8342 18.959 48.1739 19.015Z" fill="#363E58"/>
<path opacity="0.05" d="M48.1739 19.015L47.7535 18.9648L47.5326 19.0969L46.7556 19.8102L47.1282 20.2549L46.1355 20.3699C46.1355 20.3699 45.185 31.5232 47.598 32.0546C47.5219 31.9575 47.4323 31.8306 47.3282 31.6403C46.6227 30.3504 47.8341 18.959 48.1739 19.015Z" fill="white"/>
<path opacity="0.05" d="M44.8151 37.7512C45.0408 37.1957 45.1732 36.667 45.0431 36.47C44.9129 36.2731 44.5492 36.0022 44.4223 36.0589C44.2622 36.1304 43.9251 37.0848 44.047 37.2355C44.1767 37.3958 44.7427 37.9292 44.8151 37.7512Z" fill="white"/>
<g opacity="0.05">
<path d="M47.2406 32.3878C47.393 32.4518 47.5161 32.6447 47.5157 32.8175C47.5153 32.9904 47.3915 33.0786 47.2391 33.0146C47.0867 32.9506 46.9636 32.7587 46.964 32.5858C46.9644 32.413 47.0882 32.3238 47.2406 32.3878Z" fill="black"/>
</g>
<g opacity="0.05">
<path d="M46.7874 35.6821C46.9398 35.7461 47.0629 35.939 47.0625 36.1119C47.0621 36.2848 46.9383 36.3729 46.7859 36.3089C46.6334 36.2449 46.5103 36.0531 46.5107 35.8802C46.5112 35.7073 46.6349 35.6181 46.7874 35.6821Z" fill="black"/>
</g>
<path d="M48.3025 18.1518C48.1283 18.951 47.8184 19.5036 48.4269 19.7823C49.0353 20.0611 50.5638 20.2103 50.9536 19.865C51.2617 19.5921 50.9586 17.901 50.7784 17.7337C50.5982 17.5665 48.3025 18.1518 48.3025 18.1518Z" fill="#FFC9CA"/>
<path d="M47.9597 19.5211L48.0864 18.9648L48.7682 19.9085L47.8654 20.6555L47.9597 19.5211Z" fill="#ECF5FA"/>
<path d="M49.4207 21.2745L48.7682 19.9085L51.0771 19.0514L51.1513 19.4637L51.0441 19.8967L49.4207 21.2745Z" fill="#ECF5FA"/>
<path opacity="0.5" d="M47.9597 19.5211L48.0864 18.9648L48.7682 19.9085L47.8654 20.6555L47.9597 19.5211Z" fill="white"/>
<path opacity="0.5" d="M49.4207 21.2745L48.7682 19.9085L51.0771 19.0514L51.1513 19.4637L51.0441 19.8967L49.4207 21.2745Z" fill="white"/>
<path d="M55.7076 37.943C55.2264 36.1485 55.1568 35.5762 55.1994 33.9365C55.2435 32.2419 55.531 28.3629 55.6049 25.587C55.6482 23.9619 55.6182 22.7145 55.4232 22.5056C54.3855 21.3946 52.6532 20.1331 52.0915 19.9956L52.0915 19.9955L51.1513 19.4637C51.1513 19.4637 49.3055 30.5479 47.6144 32.0754C47.6144 32.0754 47.5708 35.767 47.5764 36.0513C47.6337 38.9463 49.0333 44.5065 50.0886 45.1642C51.1438 45.8219 56.3752 43.273 56.3057 41.7401C56.2786 41.1427 56.015 39.0888 55.7076 37.943Z" fill="#363E58"/>
<path opacity="0.05" d="M51.1121 26.5945L52.7051 27.0001V26.4942L51.3002 26.0983C51.2388 26.2627 51.1761 26.4283 51.1121 26.5945Z" fill="white"/>
<path opacity="0.05" d="M52.7052 21.8858L51.6592 21.3529L52.3644 21.0826L52.0916 19.9956L51.1514 19.4637C51.1514 19.4637 49.3056 30.5478 47.6145 32.0754C49.7773 32.0132 52.7052 21.8858 52.7052 21.8858Z" fill="white"/>
<path opacity="0.05" d="M50.5798 38.4395C50.4743 38.7654 50.5412 39.4269 50.7889 39.4781C51.0366 39.5294 53.8178 38.7779 54.1136 38.4306C54.4095 38.0832 54.0356 37.2119 53.8103 37.2359C53.585 37.26 50.6651 38.176 50.5798 38.4395Z" fill="white"/>
<path opacity="0.1" d="M55.885 38.7194C55.4037 36.925 55.1568 35.5762 55.1994 33.9365C55.2435 32.2418 55.531 28.3629 55.6049 25.587C54.6302 26.7164 52.9602 29.0051 53.0041 31.3892C53.0609 34.4692 53.7848 37.8055 55.885 38.7194Z" fill="black"/>
<path d="M56.5392 23.4711C57.4095 24.6215 57.2678 34.9141 56.2542 37.0404C56.1094 37.3442 54.6823 37.2012 54.5074 37.2058C53.4283 37.2341 53.9521 31.8374 53.3285 27.3486C52.6888 22.7449 54.2244 20.4115 56.5392 23.4711Z" fill="#363E58"/>
<path d="M49.165 21.3402C48.9323 21.8729 48.1356 22.474 47.2521 22.1941C46.3348 21.9034 46.2703 20.2529 46.4094 19.9562C46.9567 18.789 47.8083 19.5656 48.5752 19.7336C49.3421 19.9015 49.3549 20.9055 49.165 21.3402Z" fill="#FFCCCC"/>
<path d="M41.4559 32.2555C41.883 33.2426 42.4763 33.6534 43.4351 33.1874C44.3939 32.7214 48.9337 22.7273 48.4257 22.3242C47.9177 21.9211 46.4985 20.8121 46.0909 21.2523C45.6833 21.6925 41.0288 31.2684 41.4559 32.2555Z" fill="#363E58"/>
<path opacity="0.03" d="M41.4559 32.2555C41.883 33.2426 42.4763 33.6534 43.4351 33.1874C44.3939 32.7214 48.9337 22.7273 48.4257 22.3242C47.9177 21.9211 46.4985 20.8121 46.0909 21.2523C45.6833 21.6925 41.0288 31.2684 41.4559 32.2555Z" fill="white"/>
<g opacity="0.05">
<path d="M46.2576 23.6512C46.4164 23.6355 46.5877 23.4885 46.64 23.3239C46.6922 23.1592 46.6058 23.0385 46.447 23.0542C46.2881 23.0698 46.1171 23.2158 46.0648 23.3805C46.0126 23.5452 46.0987 23.6668 46.2576 23.6512Z" fill="black"/>
</g>
<g opacity="0.05">
<path d="M46.7469 22.7185C46.9058 22.7028 47.0771 22.5558 47.1294 22.3912C47.1816 22.2265 47.0952 22.1058 46.9363 22.1215C46.7774 22.1371 46.6065 22.2831 46.5542 22.4478C46.502 22.6125 46.588 22.7341 46.7469 22.7185Z" fill="black"/>
</g>
<path d="M42.5877 33.1493C43.1386 33.309 44.8507 32.9321 44.7888 33.8564C44.7245 34.8162 43.1988 34.9213 42.88 34.867C40.7125 34.4976 40.8362 33.2778 40.818 32.4929C40.7998 31.7081 41.4411 32.8169 42.5877 33.1493Z" fill="#FFD3D4"/>
<path d="M56.3265 36.0735C56.3265 36.0735 56.6191 37.3042 55.6577 37.7648C54.6964 38.2254 44.1911 35.8658 44.198 35.2142C44.2049 34.5627 44.2374 32.7532 44.8332 32.7092C45.429 32.6652 55.5269 34.8204 56.3265 36.0735Z" fill="#363E58"/>
<path opacity="0.03" d="M56.3265 36.0735C56.3265 36.0735 56.6191 37.3042 55.6577 37.7648C54.6964 38.2254 44.1911 35.8658 44.198 35.2142C44.2049 34.5627 44.2374 32.7532 44.8332 32.7092C45.429 32.6652 55.5269 34.8204 56.3265 36.0735Z" fill="white"/>
<g opacity="0.05">
<path d="M46.0576 35.6289C46.0463 35.4684 45.9051 35.2919 45.7432 35.2348C45.5812 35.1778 45.4592 35.2615 45.4704 35.422C45.4817 35.5825 45.6219 35.7587 45.7839 35.8158C45.9458 35.8728 46.0688 35.7894 46.0576 35.6289Z" fill="black"/>
</g>
<g opacity="0.05">
<path d="M45.1456 35.1108C45.1343 34.9503 44.9931 34.7738 44.8312 34.7167C44.6692 34.6596 44.5472 34.7434 44.5585 34.9039C44.5697 35.0644 44.7099 35.2405 44.8719 35.2976C45.0338 35.3547 45.1568 35.2713 45.1456 35.1108Z" fill="black"/>
</g>
<path d="M44.096 33.3792C43.6017 32.7296 42.3998 32.2863 42.2642 32.5666C42.1285 32.8468 42.6615 33.7552 43.2334 33.7552C43.8052 33.7552 44.096 33.3792 44.096 33.3792Z" fill="#FFD3D4"/>
<path d="M45.3683 13.3117C45.3683 13.3117 45.3145 14.5113 45.5556 14.7751L46.1207 12.7776L45.3683 13.3117Z" fill="#434856"/>
<path d="M45.786 12.8709C45.0812 13.8692 45.8377 16.2083 45.8377 16.2083C45.8377 16.2083 45.6871 19.0372 48.2462 19.8016C50.2806 20.4093 51.9237 18.1992 51.9237 18.1992C51.9237 18.1992 54.6992 12.7522 50.9153 11.4657C47.4279 10.2801 46.4908 11.8725 45.786 12.8709Z" fill="#FFD3D4"/>
<path d="M53.4842 13.5974C53.8115 15.5799 51.9237 18.1992 51.9237 18.1992C51.9237 18.1992 51.4664 17.5375 51.8315 17.5836C52.2932 17.6418 52.8659 16.1137 52.3556 15.5617C51.8455 15.0096 51.4348 16.252 51.4348 16.252L51.0895 16.8016L50.6952 14.8843C50.6952 14.8843 53.2512 12.187 53.4842 13.5974Z" fill="#434856"/>
<path d="M47.2946 13.6512C47.5235 13.3931 48.9021 12.926 50.2155 14.9317C51.0825 16.2558 52.211 15.2418 52.1268 15.2186C51.6697 15.0929 51.57 14.5375 51.57 14.5375C51.57 14.5375 53.3172 14.9317 53.0861 14.7169C52.6719 14.3318 52.8181 14.1243 52.8181 14.1243C52.8181 14.1243 53.9865 14.3103 53.9199 14.1504C53.5698 13.3102 53.0407 12.2817 52.8487 11.6713C52.6608 11.0736 50.543 9.90762 49.6657 10.4495C49.6657 10.4495 48.36 9.77468 47.2809 10.1399C46.5303 10.3939 45.4785 10.7454 45.305 12.179C45.1367 13.5691 44.5466 14.5288 44.8958 14.4793C45.245 14.4299 45.8365 13.3308 46.3891 13.2833C46.9416 13.2358 47.2946 13.6512 47.2946 13.6512Z" fill="#3D4356"/>
<path opacity="0.05" d="M28.6743 84.4203L21.8606 80.456L12.2244 86.0625L19.0381 90.0269L25.8517 93.9912L35.488 88.3847L28.6743 84.4203Z" fill="#1A1A1A"/>
<path d="M29.5912 51.421L27.4902 50.1986L18.3241 56.0777L19.9558 57.0271L24.4123 59.0663L33.5719 53.7372L29.5912 51.421Z" fill="#697A94"/>
<path opacity="0.1" d="M27.4902 50.1986L18.3241 56.0777L19.9558 57.0271L29.5912 51.421L27.4902 50.1986Z" fill="black"/>
<path d="M12.2487 51.9895L21.4082 46.6603L27.49 50.1989L18.3241 56.0777L12.2487 51.9895Z" fill="#697A94"/>
<path d="M12.2487 51.9895V52.2365L18.3241 56.3247V56.0777L12.2487 51.9895Z" fill="#536C92"/>
<path d="M19.9558 57.0271V57.2741L24.4124 59.3133V59.0663L19.9558 57.0271Z" fill="#536C92"/>
<path d="M24.4124 59.3133V59.0663L33.5719 53.7371V53.9841L24.4124 59.3133Z" fill="#3E5F94"/>
<path d="M19.9557 57.0271L18.3241 56.0777V56.3247L19.9557 57.2741V57.0271Z" fill="#536C92"/>
<path d="M26.8099 50.6187L26.8099 49.7701L21.7885 47.6972L14.1193 51.3107L14.1193 52.1593L19.1406 55.0808L26.8099 50.6187Z" fill="#CFCFCF"/>
<path d="M26.8099 49.7701C25.1082 48.4638 23.4226 47.3482 21.7885 46.8486L14.1193 51.3107C15.8561 51.8968 17.5273 52.8865 19.1406 54.2323L26.8099 49.7701Z" fill="#E6E6E6"/>
<path d="M31.8306 53.5386L31.8306 52.69L26.8092 50.6171L19.14 54.2306V55.0792L24.1614 58.0007L31.8306 53.5386Z" fill="#CFCFCF"/>
<path d="M31.8306 52.69C30.129 51.3836 28.4433 50.2681 26.8092 49.7685L19.14 54.2306C20.8769 54.8166 22.548 55.8064 24.1614 57.1521L31.8306 52.69Z" fill="#EFEFEF"/>
<path d="M29.2064 53.0972L25.9017 51.1744C25.8603 51.1504 25.8602 51.1113 25.9017 51.0872C25.9431 51.0631 26.0103 51.0631 26.0517 51.0872L29.3564 53.0099C29.3978 53.034 29.3979 53.0731 29.3564 53.0972C29.3149 53.1213 29.2478 53.1213 29.2064 53.0972Z" fill="#C6C6C6"/>
<path d="M28.4847 53.5171L25.18 51.5943C25.1386 51.5703 25.1385 51.5312 25.18 51.5071C25.2215 51.483 25.2886 51.483 25.33 51.5071L28.6347 53.4298C28.6761 53.4539 28.6762 53.493 28.6347 53.5171C28.5932 53.5412 28.5261 53.5412 28.4847 53.5171Z" fill="#C6C6C6"/>
<path d="M27.763 53.937L24.4583 52.0142C24.4169 51.9901 24.4169 51.9511 24.4583 51.927C24.4998 51.9028 24.5669 51.9029 24.6083 51.927L27.913 53.8497C27.9545 53.8738 27.9545 53.9129 27.913 53.937C27.8716 53.9611 27.8044 53.9611 27.763 53.937Z" fill="#C6C6C6"/>
<path d="M27.0415 54.3568L23.7368 52.4341C23.6953 52.41 23.6953 52.3709 23.7368 52.3468C23.7782 52.3227 23.8454 52.3227 23.8868 52.3468L27.1915 54.2695C27.2329 54.2936 27.2329 54.3327 27.1915 54.3568C27.15 54.3809 27.0829 54.3809 27.0415 54.3568Z" fill="#C6C6C6"/>
<path d="M26.3198 54.7767L23.0151 52.854C22.9737 52.8299 22.9736 52.7908 23.0151 52.7667C23.0566 52.7426 23.1237 52.7426 23.1651 52.7667L26.4698 54.6894C26.5112 54.7135 26.5113 54.7526 26.4698 54.7767C26.4283 54.8008 26.3612 54.8008 26.3198 54.7767Z" fill="#C6C6C6"/>
<path d="M25.1739 55.4434L23.5216 54.482C23.4801 54.4579 23.4801 54.4189 23.5216 54.3947C23.563 54.3706 23.6301 54.3706 23.6716 54.3947L25.3239 55.3561C25.3653 55.3802 25.3654 55.4193 25.3239 55.4434C25.2825 55.4675 25.2153 55.4675 25.1739 55.4434Z" fill="#C6C6C6"/>
<path d="M22.8307 49.1132C23.3929 49.4403 23.9344 49.7795 24.4512 50.1284C24.4856 50.1516 24.4811 50.1866 24.4412 50.2066C24.4014 50.2266 24.3409 50.2235 24.3069 50.2008C23.2792 49.5071 22.1536 48.8522 20.9614 48.2544C20.9209 48.2343 20.9171 48.1994 20.9514 48.1762C20.9858 48.1529 21.046 48.1503 21.0859 48.1703C21.6855 48.4711 22.2685 48.7861 22.8307 49.1132Z" fill="#C6C6C6"/>
<path d="M22.2124 49.4568C22.7746 49.7839 23.3161 50.1231 23.8329 50.472C23.8673 50.4952 23.8629 50.5302 23.823 50.5502C23.7831 50.5703 23.7227 50.5672 23.6886 50.5444C22.6609 49.8508 21.5353 49.1959 20.3432 48.598C20.3026 48.5779 20.2988 48.543 20.3331 48.5198C20.3675 48.4966 20.4277 48.494 20.4676 48.514C21.0673 48.8147 21.6502 49.1297 22.2124 49.4568Z" fill="#C6C6C6"/>
<path d="M21.5942 49.8005C22.1564 50.1276 22.6979 50.4668 23.2148 50.8157C23.2491 50.8389 23.2447 50.8739 23.2048 50.8939C23.1649 50.9139 23.1045 50.9108 23.0704 50.8881C22.0428 50.1944 20.9172 49.5395 19.725 48.9417C19.6844 48.9216 19.6806 48.8867 19.715 48.8634C19.7494 48.8402 19.8095 48.8376 19.8494 48.8576C20.4491 49.1583 21.0321 49.4734 21.5942 49.8005Z" fill="#C6C6C6"/>
<path d="M20.9759 50.1441C21.5382 50.4712 22.0797 50.8104 22.5965 51.1593C22.6309 51.1825 22.6264 51.2175 22.5865 51.2375C22.5466 51.2575 22.4862 51.2545 22.4521 51.2317C21.4245 50.5381 20.2989 49.8832 19.1067 49.2853C19.0661 49.2652 19.0623 49.2303 19.0967 49.2071C19.1311 49.1839 19.1912 49.1813 19.2311 49.2013C19.8308 49.502 20.4138 49.817 20.9759 50.1441Z" fill="#C6C6C6"/>
<path d="M20.3576 50.4877C20.9199 50.8149 21.4614 51.154 21.9782 51.5029C22.0126 51.5261 22.0081 51.5612 21.9682 51.5812C21.9284 51.6012 21.8679 51.5981 21.8338 51.5754C20.8062 50.8817 19.6806 50.2268 18.4884 49.6289C18.4479 49.6089 18.444 49.5739 18.4784 49.5507C18.5128 49.5275 18.5729 49.5249 18.6128 49.5449C19.2125 49.8456 19.7955 50.1607 20.3576 50.4877Z" fill="#C6C6C6"/>
<path d="M19.7394 50.8314C20.3016 51.1585 20.8431 51.4977 21.3599 51.8466C21.3943 51.8698 21.3898 51.9048 21.3499 51.9248C21.3101 51.9448 21.2496 51.9418 21.2155 51.919C20.1879 51.2253 19.0623 50.5705 17.8701 49.9726C17.8296 49.9525 17.8258 49.9176 17.8601 49.8944C17.8945 49.8712 17.9547 49.8686 17.9946 49.8885C18.5942 50.1893 19.1772 50.5043 19.7394 50.8314Z" fill="#C6C6C6"/>
<path d="M19.3413 52.9594C19.3391 52.9581 19.337 52.9568 19.3349 52.9554C18.3841 52.3038 17.3157 51.6822 16.1587 51.1075C16.1354 51.0956 16.1197 51.0778 16.1184 51.059C16.1171 51.0403 16.1293 51.0221 16.1521 51.0088L17.1824 50.4094C17.2244 50.3849 17.2914 50.383 17.3374 50.4049C18.5065 50.9621 19.5849 51.5895 20.5427 52.2698C20.5804 52.2966 20.577 52.3356 20.535 52.36L19.5047 52.9594C19.4819 52.9727 19.4506 52.9798 19.4183 52.9791C19.3892 52.9784 19.3618 52.9713 19.3413 52.9594ZM17.2717 50.5475L16.4037 51.0526C17.5008 51.6023 18.5179 52.1939 19.4297 52.8129L20.2975 52.308C19.3883 51.6684 18.371 51.0766 17.2717 50.5475Z" fill="#C6C6C6"/>
<path d="M21.818 52.2272C21.7111 52.165 21.7245 52.0564 21.8479 51.9847L23.7608 50.8717C23.8841 50.7999 24.0708 50.7921 24.1776 50.8543C24.2844 50.9164 24.271 51.025 24.1477 51.0968L22.2348 52.2098C22.1114 52.2815 21.9248 52.2893 21.818 52.2272Z" fill="#4F5056"/>
<path d="M66.2676 16.3642V8.43571L75.9041 14.0424V21.9709L66.2676 16.3642Z" fill="#EFEFEF"/>
<path d="M74.6701 16.5525L67.5016 12.3817C67.4511 12.3524 67.4103 12.2811 67.4103 12.2224V11.2093C67.4103 11.1506 67.4511 11.1268 67.5016 11.1562L74.6701 15.3269C74.7205 15.3563 74.7614 15.4276 74.7614 15.4863V16.4994C74.7614 16.5581 74.7205 16.5819 74.6701 16.5525ZM67.5929 12.2224L74.5788 16.2869V15.4863L67.5929 11.4218V12.2224Z" fill="#C6C6C6"/>
<path d="M74.6701 17.5657L67.5016 13.395C67.4511 13.3656 67.4103 13.2943 67.4103 13.2356V12.2224C67.4103 12.1637 67.4511 12.1399 67.5016 12.1693L74.6701 16.3401C74.7205 16.3694 74.7614 16.4407 74.7614 16.4994V17.5126C74.7614 17.5713 74.7205 17.5951 74.6701 17.5657ZM67.5929 13.2356L74.5788 17.3001V16.4994L67.5929 12.4349C67.5929 12.4349 67.5929 13.2356 67.5929 13.2356Z" fill="#C6C6C6"/>
<path d="M74.6701 18.5788L67.5016 14.408C67.4511 14.3787 67.4103 14.3074 67.4103 14.2487V13.2356C67.4103 13.1769 67.4511 13.1531 67.5016 13.1825L74.6701 17.3532C74.7205 17.3826 74.7614 17.4539 74.7614 17.5126V18.5257C74.7614 18.5844 74.7205 18.6082 74.6701 18.5788ZM67.5929 14.2487L74.5788 18.3132V17.5126L67.5929 13.4481C67.5929 13.4481 67.5929 14.2487 67.5929 14.2487Z" fill="#C6C6C6"/>
<path d="M74.6701 19.592L71.9553 18.0125C71.9048 17.9832 71.864 17.9119 71.864 17.8532V16.84C71.864 16.7812 71.9048 16.7575 71.9553 16.7868L74.6701 18.3663C74.7205 18.3957 74.7614 18.467 74.7614 18.5257V19.5389C74.7614 19.5976 74.7205 19.6214 74.6701 19.592ZM72.0466 17.8532L74.5788 19.3264V18.5257L72.0466 17.0524V17.8532Z" fill="#C6C6C6"/>
<path d="M71.9553 18.0125L67.5016 15.4213C67.4511 15.3919 67.4103 15.3206 67.4103 15.2619V14.2487C67.4103 14.19 67.4511 14.1662 67.5016 14.1956L71.9553 16.7869C72.0058 16.8162 72.0466 16.8875 72.0466 16.9462V17.9594C72.0466 18.0181 72.0058 18.0419 71.9553 18.0125ZM67.5929 15.2619L71.864 17.7469V16.9462L67.5929 14.4612L67.5929 15.2619Z" fill="#C6C6C6"/>
<path d="M73.7608 19.9575L72.0284 18.9496C71.978 18.9202 71.9371 18.8489 71.9371 18.7902C71.9371 18.7315 71.978 18.7077 72.0284 18.7371L73.7608 19.745C73.8113 19.7744 73.8521 19.8457 73.8521 19.9044C73.8521 19.9631 73.8113 19.9869 73.7608 19.9575Z" fill="#C6C6C6"/>
<path d="M71.952 13.0634L70.2196 12.0555C70.1691 12.0261 70.1283 11.9548 70.1283 11.8961C70.1283 11.8374 70.1691 11.8136 70.2196 11.843L71.952 12.8509C72.0024 12.8803 72.0433 12.9516 72.0433 13.0103C72.0433 13.069 72.0025 13.0927 71.952 13.0634Z" fill="#C6C6C6"/>
<path d="M74.8177 20.9426L74.1815 20.5724C74.131 20.5431 74.0902 20.4718 74.0902 20.4131V19.6728C74.0902 19.6141 74.131 19.5904 74.1815 19.6197L74.8177 19.9899C74.8681 20.0192 74.909 20.0905 74.909 20.1492V20.8895C74.909 20.9482 74.8681 20.9719 74.8177 20.9426ZM74.2728 20.4131L74.7264 20.677V20.1492L74.2728 19.8853V20.4131Z" fill="#BF272D"/>
<path d="M20.6741 48.262L20.7108 47.8337L20.3643 47.8953L20.5441 48.2851L20.6741 48.262Z" fill="#BF272D"/>
<path opacity="0.1" d="M20.6741 48.262L20.7108 47.8337L20.3643 47.8953L20.5441 48.2851L20.6741 48.262Z" fill="white"/>
<path d="M19.5279 43.1555C19.5041 43.0199 19.8644 42.9559 19.8881 43.0914C19.8881 43.0914 19.9032 43.1636 19.929 43.2869L19.5557 43.3532C19.5381 43.2285 19.5279 43.1555 19.5279 43.1555Z" fill="#BF272D"/>
<path d="M20.5563 46.379C20.5638 46.4218 20.571 46.4656 20.578 46.5101L20.0399 46.6058C20.0314 46.5615 20.0233 46.5178 20.0158 46.4751C19.9271 45.9678 19.6656 44.1301 19.5665 43.4294L19.9449 43.3622C20.0896 44.0547 20.4676 45.8718 20.5563 46.379Z" fill="#BF272D"/>
<path d="M20.7207 47.8171C20.7231 47.8486 20.7014 47.8766 20.6705 47.8821L20.5445 47.9045L20.4186 47.9269C20.3877 47.9324 20.3578 47.9135 20.3493 47.8831C20.3035 47.7193 20.1628 47.2053 20.064 46.7263L20.5963 46.6317C20.666 47.1159 20.7082 47.6473 20.7207 47.8171Z" fill="#BF272D"/>
<path d="M20.5963 46.6317L20.064 46.7263C20.0556 46.6858 20.0476 46.6455 20.0399 46.6058L20.578 46.5101C20.5843 46.5502 20.5904 46.5908 20.5963 46.6317Z" fill="#C6AD91"/>
<path d="M19.9291 43.287C19.934 43.3103 19.9392 43.3354 19.9448 43.3622L19.5665 43.4294C19.5627 43.4023 19.5591 43.3769 19.5558 43.3533L19.9291 43.287Z" fill="#C6AD91"/>
<path d="M19.936 43.2979C19.936 43.2979 19.9987 43.2492 20.0239 43.3378C20.0491 43.4264 20.3408 44.2861 20.334 44.3197C20.3272 44.3534 20.2869 44.3802 20.2201 44.3664C20.1522 44.3524 19.936 43.2979 19.936 43.2979Z" fill="#C6AD91"/>
<path d="M20.5226 48.2358L20.5462 48.3706C20.5537 48.4137 20.5946 48.4425 20.6374 48.4349C20.6802 48.4273 20.7087 48.3862 20.7012 48.343L20.6776 48.2083L20.5226 48.2358Z" fill="#BF272D"/>
<path d="M33.7212 15.1862L26.9075 11.2219V0.00876617L33.7212 3.97311V15.1862Z" fill="#EFEFEF"/>
<path d="M31.3494 4.34216L29.2792 3.13767C29.2287 3.1083 29.1879 3.03703 29.1879 2.97831C29.1879 2.91959 29.2287 2.89583 29.2792 2.92519L31.3494 4.12968C31.3998 4.15905 31.4407 4.23032 31.4407 4.28904C31.4407 4.34776 31.3998 4.37152 31.3494 4.34216Z" fill="#C6C6C6"/>
<path d="M32.5865 6.77548L28.0422 4.13155C27.9918 4.10218 27.9509 4.03091 27.9509 3.97219C27.9509 3.91347 27.9918 3.88971 28.0422 3.91907L32.5865 6.563C32.6369 6.59236 32.6778 6.66364 32.6778 6.72236C32.6778 6.78108 32.6369 6.80483 32.5865 6.77548Z" fill="#C6C6C6"/>
<path d="M32.5865 8.08052L28.0422 5.43659C27.9918 5.40722 27.9509 5.33595 27.9509 5.27723C27.9509 5.21851 27.9918 5.19475 28.0422 5.22411L32.5865 7.86804C32.6369 7.8974 32.6778 7.96868 32.6778 8.0274C32.6778 8.08612 32.6369 8.10987 32.5865 8.08052Z" fill="#C6C6C6"/>
<path d="M32.5865 9.38556L28.0422 6.74163C27.9918 6.71227 27.9509 6.64099 27.9509 6.58227C27.9509 6.52355 27.9918 6.4998 28.0422 6.52915L32.5865 9.17308C32.6369 9.20245 32.6778 9.27373 32.6778 9.33244C32.6778 9.39116 32.6369 9.41492 32.5865 9.38556Z" fill="#C6C6C6"/>
<path d="M32.5865 10.6906L28.0422 8.04669C27.9918 8.01732 27.9509 7.94605 27.9509 7.88733C27.9509 7.82861 27.9918 7.80485 28.0422 7.83421L32.5865 10.4781C32.6369 10.5075 32.6778 10.5788 32.6778 10.6375C32.6778 10.6962 32.6369 10.72 32.5865 10.6906Z" fill="#C6C6C6"/>
<path d="M32.5865 11.9957L28.0422 9.35173C27.9918 9.32236 27.9509 9.25108 27.9509 9.19236C27.9509 9.13365 27.9918 9.10989 28.0422 9.13924L32.5865 11.7832C32.6369 11.8125 32.6778 11.8838 32.6778 11.9425C32.6778 12.0013 32.6369 12.025 32.5865 11.9957Z" fill="#C6C6C6"/>
<path d="M32.5865 13.3007L28.0422 10.6568C27.9918 10.6274 27.9509 10.5561 27.9509 10.4974C27.9509 10.4387 27.9918 10.4149 28.0422 10.4443L32.5865 13.0882C32.6369 13.1176 32.6778 13.1889 32.6778 13.2476C32.6778 13.3063 32.6369 13.33 32.5865 13.3007Z" fill="#C6C6C6"/>
<path d="M27.8086 8.23597C27.8032 8.23287 27.7978 8.22896 27.7926 8.22438C27.7718 8.20631 27.7547 8.17914 27.7467 8.15137L27.572 7.5445C27.5582 7.49672 27.5748 7.46114 27.609 7.46504C27.6428 7.46884 27.6819 7.51071 27.6957 7.55852L27.836 8.04569L28.7818 7.66478C28.81 7.65338 28.852 7.68205 28.8758 7.72854C28.8996 7.77511 28.8961 7.82201 28.8679 7.83331L27.8516 8.24264C27.8395 8.2476 27.8242 8.24506 27.8086 8.23597Z" fill="#BF272D"/>
<path d="M27.8086 9.29063C27.8032 9.28752 27.7978 9.28361 27.7926 9.27904C27.7718 9.26096 27.7547 9.2338 27.7467 9.20603L27.572 8.59916C27.5582 8.55138 27.5748 8.5158 27.609 8.5197C27.6428 8.52349 27.6819 8.56536 27.6957 8.61317L27.836 9.10035L28.7818 8.71943C28.81 8.70804 28.852 8.73671 28.8758 8.7832C28.8996 8.82976 28.8961 8.87667 28.8679 8.88796L27.8516 9.2973C27.8395 9.30226 27.8242 9.29972 27.8086 9.29063Z" fill="#BF272D"/>
<path d="M27.8086 10.3453C27.8032 10.3422 27.7978 10.3383 27.7926 10.3337C27.7718 10.3156 27.7547 10.2884 27.7467 10.2607L27.572 9.6538C27.5582 9.60602 27.5748 9.57044 27.609 9.57434C27.6428 9.57814 27.6819 9.62001 27.6957 9.66781L27.836 10.155L28.7818 9.77408C28.81 9.76268 28.852 9.79135 28.8758 9.83784C28.8996 9.88441 28.8961 9.93131 28.8679 9.94261L27.8516 10.3519C27.8395 10.3569 27.8242 10.3544 27.8086 10.3453Z" fill="#BF272D"/>
<path d="M69.2926 54.9081L62.4789 50.9438V39.7307L69.2926 43.695V54.9081Z" fill="#EFEFEF"/>
<path d="M68.188 52.3368L63.5835 49.6578C63.533 49.6285 63.4922 49.5572 63.4922 49.4985V44.2682C63.4922 44.2095 63.533 44.1858 63.5835 44.2151L68.188 46.8941C68.2385 46.9235 68.2793 46.9948 68.2793 47.0535V52.2837C68.2793 52.3424 68.2385 52.3662 68.188 52.3368ZM63.6748 49.4985L68.0967 52.0712V47.0535L63.6748 44.4807L63.6748 49.4985Z" fill="#C6C6C6"/>
<path d="M64.8949 50.4208C64.8444 50.3914 64.8036 50.3202 64.8036 50.2615V45.0312C64.8036 44.9725 64.8444 44.9487 64.8949 44.9781C64.9454 45.0074 64.9862 45.0787 64.9862 45.1375V50.3677C64.9862 50.4264 64.9454 50.4502 64.8949 50.4208Z" fill="#C6C6C6"/>
<path d="M66.5069 51.3588C66.4565 51.3294 66.4156 51.2581 66.4156 51.1994V45.9692C66.4156 45.9105 66.4565 45.8867 66.5069 45.9161C66.5574 45.9454 66.5982 46.0167 66.5982 46.0754V51.3057C66.5982 51.3644 66.5574 51.3881 66.5069 51.3588Z" fill="#C6C6C6"/>
<path d="M68.188 48.1198L63.5835 45.4408C63.533 45.4114 63.4922 45.3402 63.4922 45.2814C63.4922 45.2227 63.533 45.199 63.5835 45.2283L68.188 47.9073C68.2385 47.9367 68.2793 48.008 68.2793 48.0667C68.2793 48.1254 68.2385 48.1492 68.188 48.1198Z" fill="#C6C6C6"/>
<path d="M68.188 49.2726L63.5835 46.5936C63.533 46.5643 63.4922 46.493 63.4922 46.4343C63.4922 46.3756 63.533 46.3518 63.5835 46.3812L68.188 49.0602C68.2385 49.0895 68.2793 49.1608 68.2793 49.2195C68.2793 49.2782 68.2385 49.302 68.188 49.2726Z" fill="#C6C6C6"/>
<path d="M68.188 50.4255L63.5835 47.7465C63.533 47.7171 63.4922 47.6459 63.4922 47.5871C63.4922 47.5284 63.533 47.5047 63.5835 47.534L68.188 50.213C68.2385 50.2424 68.2793 50.3137 68.2793 50.3724C68.2793 50.4311 68.2385 50.4549 68.188 50.4255Z" fill="#C6C6C6"/>
<path d="M66.9208 44.0641L64.8506 42.8596C64.8001 42.8302 64.7593 42.7589 64.7593 42.7002C64.7593 42.6415 64.8001 42.6177 64.8506 42.6471L66.9208 43.8516C66.9713 43.8809 67.0121 43.9522 67.0121 44.0109C67.0121 44.0697 66.9713 44.0934 66.9208 44.0641Z" fill="#C6C6C6"/>
<path d="M68.0252 51.217L63.9225 48.83C63.872 48.8006 63.8312 48.7293 63.8312 48.6706C63.8312 48.612 63.872 48.5882 63.9225 48.6175L68.0252 51.0046C68.0757 51.0339 68.1165 51.1053 68.1165 51.1639C68.1165 51.2226 68.0757 51.2464 68.0252 51.217Z" fill="#BF272D"/>
<path d="M64.3003 47.9741L63.792 47.6784C63.7164 47.6344 63.655 47.5274 63.655 47.4394C63.655 47.3513 63.7164 47.3157 63.792 47.3597L64.3003 47.6554C64.3759 47.6994 64.4372 47.8064 64.4372 47.8945C64.4372 47.9825 64.3759 48.0181 64.3003 47.9741Z" fill="#BF272D"/>
<path d="M65.489 48.6657L64.9807 48.37C64.9051 48.326 64.8438 48.219 64.8438 48.131C64.8438 48.0429 64.9051 48.0073 64.9807 48.0513L65.489 48.347C65.5646 48.391 65.6259 48.498 65.6259 48.5861C65.6259 48.6741 65.5646 48.7097 65.489 48.6657Z" fill="#BF272D"/>
<path d="M66.6777 49.3574L66.1694 49.0617C66.0938 49.0177 66.0325 48.9107 66.0325 48.8226C66.0325 48.7346 66.0938 48.699 66.1694 48.7429L66.6777 49.0387C66.7533 49.0827 66.8147 49.1897 66.8147 49.2777C66.8147 49.3658 66.7533 49.4014 66.6777 49.3574Z" fill="#BF272D"/>
<path d="M67.8666 50.049L67.3583 49.7533C67.2827 49.7093 67.2213 49.6023 67.2213 49.5143C67.2213 49.4262 67.2827 49.3906 67.3583 49.4346L67.8666 49.7303C67.9422 49.7743 68.0035 49.8813 68.0035 49.9694C68.0035 50.0574 67.9422 50.093 67.8666 50.049Z" fill="#BF272D"/>
<path d="M29.3173 38.3643L22.5037 34.3999V23.1868L29.3173 27.1512V38.3643Z" fill="#EFEFEF"/>
<path d="M26.9457 27.5203L24.8755 26.3158C24.825 26.2864 24.7842 26.2152 24.7842 26.1564C24.7842 26.0977 24.825 26.074 24.8755 26.1033L26.9457 27.3078C26.9962 27.3372 27.037 27.4085 27.037 27.4672C27.037 27.5259 26.9962 27.5497 26.9457 27.5203Z" fill="#C6C6C6"/>
<path d="M28.1273 32.1725L23.6938 29.593C23.6434 29.5636 23.6025 29.4924 23.6025 29.4336V28.4205C23.6025 28.3617 23.6434 28.338 23.6938 28.3673L28.1273 30.9468C28.1778 30.9762 28.2186 31.0475 28.2186 31.1062V32.1194C28.2186 32.1781 28.1778 32.2019 28.1273 32.1725ZM23.7851 29.4337L28.036 31.9069V31.1062L23.7851 28.6329V29.4337Z" fill="#C6C6C6"/>
<path d="M28.1275 31.1593L23.694 28.5798C23.6435 28.5505 23.6027 28.4792 23.6027 28.4205V27.4074C23.6027 27.3486 23.6435 27.3249 23.694 27.3542L28.1275 29.9337C28.1779 29.9631 28.2188 30.0344 28.2188 30.0931V31.1062C28.2188 31.1649 28.1779 31.1887 28.1275 31.1593ZM23.7853 28.4205L28.0362 30.8937V30.0931L23.7853 27.6198V28.4205Z" fill="#C6C6C6"/>
<path d="M28.1273 33.1856L23.6938 30.6061C23.6434 30.5767 23.6025 30.5055 23.6025 30.4467V29.4336C23.6025 29.3749 23.6434 29.3512 23.6938 29.3805L28.1273 31.96C28.1778 31.9894 28.2186 32.0607 28.2186 32.1194V33.1325C28.2186 33.1912 28.1778 33.215 28.1273 33.1856ZM23.7851 30.4468L28.036 32.92V32.1194L23.7851 29.6461V30.4468Z" fill="#C6C6C6"/>
<path d="M28.1273 34.1988L23.6938 31.6193C23.6434 31.5899 23.6025 31.5187 23.6025 31.4599V30.4468C23.6025 30.388 23.6434 30.3643 23.6938 30.3936L28.1273 32.9731C28.1778 33.0025 28.2186 33.0738 28.2186 33.1325V34.1457C28.2186 34.2044 28.1778 34.2282 28.1273 34.1988ZM23.7851 31.46L28.036 33.9332V33.1325L23.7851 30.6592V31.46Z" fill="#C6C6C6"/>
<path d="M28.1273 35.2119L26.4482 34.235C26.3978 34.2056 26.3569 34.1344 26.3569 34.0756V33.0625C26.3569 33.0038 26.3978 32.9801 26.4482 33.0094L28.1273 33.9863C28.1778 34.0157 28.2186 34.087 28.2186 34.1457V35.1588C28.2186 35.2175 28.1778 35.2413 28.1273 35.2119ZM26.5395 34.0756L28.036 34.9463V34.1457L26.5395 33.275V34.0756Z" fill="#C6C6C6"/>
<path d="M26.4483 34.235L23.6938 32.6324C23.6434 32.603 23.6025 32.5318 23.6025 32.473V31.4599C23.6025 31.4012 23.6434 31.3775 23.6938 31.4068L26.4483 33.0094C26.4987 33.0388 26.5396 33.1101 26.5396 33.1688V34.1819C26.5396 34.2406 26.4987 34.2644 26.4483 34.235ZM23.7851 32.4731L26.357 33.9694V33.1688L23.7851 31.6724V32.4731Z" fill="#C6C6C6"/>
<path d="M23.2332 29.4106C23.2259 29.4064 23.2185 29.401 23.2113 29.3948C23.1829 29.37 23.1595 29.3328 23.1485 29.2948L22.9093 28.4639C22.8905 28.3985 22.9132 28.3498 22.96 28.3552C23.0063 28.3603 23.0598 28.4177 23.0787 28.4831L23.2708 29.1501L24.5658 28.6286C24.6043 28.613 24.6618 28.6523 24.6944 28.7159C24.727 28.7797 24.7221 28.8439 24.6836 28.8594L23.2922 29.4198C23.2756 29.4266 23.2546 29.4231 23.2332 29.4106Z" fill="#BF272D"/>
<path d="M27.345 33.1641L24.1771 31.3209C24.1381 31.2983 24.1066 31.2432 24.1066 31.1979C24.1066 31.1526 24.1381 31.1342 24.1771 31.1569L27.345 33C27.3839 33.0227 27.4155 33.0778 27.4155 33.1231C27.4155 33.1684 27.3839 33.1868 27.345 33.1641Z" fill="#BF272D"/>
<path d="M24.4688 30.6601L24.0763 30.4317C24.0179 30.3978 23.9706 30.3151 23.9706 30.2471C23.9706 30.1792 24.0179 30.1517 24.0763 30.1856L24.4688 30.414C24.5272 30.4479 24.5746 30.5306 24.5746 30.5986C24.5746 30.6665 24.5272 30.694 24.4688 30.6601Z" fill="#BF272D"/>
<path d="M25.3867 31.1941L24.9942 30.9657C24.9358 30.9318 24.8884 30.8491 24.8884 30.7812C24.8884 30.7132 24.9358 30.6857 24.9942 30.7196L25.3867 30.948C25.445 30.982 25.4924 31.0646 25.4924 31.1326C25.4924 31.2005 25.445 31.2281 25.3867 31.1941Z" fill="#BF272D"/>
<path d="M26.3046 31.7282L25.9121 31.4998C25.8538 31.4658 25.8064 31.3832 25.8064 31.3152C25.8064 31.2473 25.8538 31.2197 25.9121 31.2537L26.3046 31.4821C26.363 31.516 26.4104 31.5987 26.4104 31.6666C26.4104 31.7346 26.363 31.7621 26.3046 31.7282Z" fill="#BF272D"/>
<path d="M27.2225 32.2622L26.83 32.0339C26.7716 31.9999 26.7242 31.9173 26.7242 31.8493C26.7242 31.7813 26.7716 31.7538 26.83 31.7878L27.2225 32.0161C27.2809 32.0501 27.3282 32.1327 27.3282 32.2007C27.3282 32.2687 27.2809 32.2962 27.2225 32.2622Z" fill="#BF272D"/>
<path d="M23.905 50.3897C23.8941 50.3897 23.8831 50.3863 23.8736 50.3792C22.7873 49.567 21.6741 48.9194 20.5647 48.4545C20.5378 48.4432 20.5251 48.4121 20.5363 48.385C20.5475 48.3579 20.5783 48.3455 20.6052 48.3564C21.7225 48.8247 22.8432 49.4766 23.9364 50.2939C23.9598 50.3114 23.9647 50.3447 23.9473 50.3682C23.937 50.3822 23.9211 50.3897 23.905 50.3897Z" fill="#BF272D"/>
<path d="M22.1246 51.4083C22.1137 51.4083 22.1027 51.4049 22.0932 51.3978C21.0069 50.5857 19.8937 49.9381 18.7843 49.4732C18.7574 49.4619 18.7447 49.4307 18.7559 49.4036C18.7671 49.3766 18.7979 49.3641 18.8248 49.375C19.9421 49.8433 21.0628 50.4952 22.156 51.3126C22.1794 51.33 22.1843 51.3633 22.1669 51.3868C22.1566 51.4008 22.1407 51.4083 22.1246 51.4083Z" fill="#BF272D"/>
<path d="M55.8977 60.864C56.45 60.5427 56.4499 59.5008 55.8976 58.5368C55.3453 57.5728 54.4499 57.0519 53.8977 57.3732C53.3454 57.6946 53.3454 58.7365 53.8977 59.7005C54.45 60.6644 55.3454 61.1854 55.8977 60.864Z" fill="#4282B8"/>
<path d="M54.6893 59.8037C54.6293 59.7688 54.5718 59.7075 54.5294 59.6335L54.0131 58.7322C53.9247 58.578 53.9247 58.4113 54.0131 58.3599C54.1015 58.3085 54.2448 58.3919 54.333 58.5461L54.6893 59.168L55.4627 58.7181C55.551 58.6666 55.6944 58.7501 55.7827 58.9043C55.8711 59.0585 55.8711 59.2252 55.7827 59.2766L54.8493 59.8196C54.8069 59.8443 54.7493 59.8386 54.6893 59.8037Z" fill="white"/>
<path d="M81.6465 75.0929L57.2809 60.9165C57.0857 60.8029 56.9274 60.5267 56.9274 60.2994C56.9274 60.0722 57.0857 59.9801 57.2809 60.0937L81.6465 74.2701C81.8417 74.3837 82 74.66 82 74.8872C82 75.1145 81.8417 75.2065 81.6465 75.0929Z" fill="#BFBFBF"/>
<path d="M9.90185 7.08848C10.4541 6.76715 10.4541 5.72521 9.90179 4.76126C9.34949 3.79731 8.45407 3.27636 7.90181 3.5977C7.34955 3.91903 7.34958 4.96097 7.90187 5.92492C8.45417 6.88887 9.34959 7.40982 9.90185 7.08848Z" fill="#4282B8"/>
<path d="M8.69337 6.0281C8.63337 5.9932 8.57581 5.93193 8.53339 5.85788L8.0171 4.95666C7.92871 4.80239 7.92871 4.63571 8.0171 4.58435C8.10548 4.53293 8.24879 4.6163 8.33706 4.77052L8.69337 5.39244L9.46677 4.94255C9.55505 4.89107 9.69846 4.9745 9.78673 5.12872C9.87512 5.28293 9.87512 5.44967 9.78673 5.50103L8.85335 6.04406C8.81093 6.06874 8.75337 6.06301 8.69337 6.0281Z" fill="white"/>
<path d="M35.6504 21.3174L11.2848 7.14095C11.0896 7.02735 10.9313 6.75111 10.9313 6.52385C10.9313 6.29659 11.0896 6.20457 11.2848 6.31816L35.6504 20.4946C35.8456 20.6082 36.0039 20.8844 36.0039 21.1117C36.0039 21.3389 35.8456 21.4309 35.6504 21.3174Z" fill="#BFBFBF"/>
<path d="M33.7212 5.92191C32.6369 5.291 31.7546 3.75121 31.7546 2.48951C31.7546 1.22773 32.6369 0.714545 33.7212 1.34545C34.8056 1.97635 35.6877 3.51607 35.6877 4.77784C35.6877 6.03955 34.8056 6.55281 33.7212 5.92191ZM33.7212 1.94985C32.9232 1.48555 32.2741 1.86321 32.2741 2.79172C32.2741 3.72016 32.9232 4.85321 33.7212 5.31751C34.5191 5.78174 35.1683 5.40408 35.1683 4.47564C35.1683 3.54713 34.5191 2.41408 33.7212 1.94985Z" fill="#4282B8"/>
<path d="M66.0038 19.3431C65.0357 18.7798 64.248 17.4051 64.248 16.2786C64.248 15.1521 65.0357 14.6939 66.0038 15.2572C66.972 15.8205 67.7595 17.1952 67.7595 18.3217C67.7595 19.4481 66.972 19.9064 66.0038 19.3431ZM66.0038 15.7968C65.2914 15.3823 64.7118 15.7195 64.7118 16.5484C64.7118 17.3774 65.2914 18.389 66.0038 18.8035C66.7162 19.218 67.2958 18.8808 67.2958 18.0519C67.2958 17.2229 66.7162 16.2113 66.0038 15.7968Z" fill="#4282B8"/>
<path d="M72.369 41.0199L72.1197 40.5848L71.0859 41.1863L70.052 39.3817L69.8027 39.5268L70.8366 41.3313L69.8027 41.9328L70.052 42.3678L71.0859 41.7664L72.1197 43.5709L72.369 43.4259L71.3351 41.6213L72.369 41.0199Z" fill="#E4E4E4"/>
<path d="M33.0792 29.4458L32.8299 29.0107L31.7961 29.6122L30.7622 27.8077L30.5129 27.9527L31.5468 29.7572L30.5129 30.3587L30.7622 30.7938L31.7961 30.1923L32.8299 31.9968L33.0792 31.8518L32.0453 30.0473L33.0792 29.4458Z" fill="#E4E4E4"/>
<path d="M0.558792 29.3771L8.82889 24.5654C9.1375 24.3859 9.62708 24.6209 9.62708 24.98L9.38769 30.7019V30.7424C9.38769 31.1015 9.1375 31.5382 8.82889 31.7178L0.722821 36.6842C0.414223 36.8637 0 36.5635 0 36.2044V36.1639V30.3525C0 29.9934 0.250183 29.5567 0.558792 29.3771Z" fill="#E6E6E6"/>
<path d="M0.258057 30.4825C0.258057 30.1234 0.508239 29.6867 0.816848 29.5072L9.08695 24.6955C9.39556 24.5159 9.64574 24.6615 9.64574 25.0206V30.832L0.258057 36.294V30.4825Z" fill="#4A4C56"/>
<path d="M0.81696 29.7673L9.08706 24.9556C9.27195 24.848 9.42234 24.9355 9.42234 25.1506V25.3702V30.7019L0.481689 35.9038V30.572V30.3525C0.481689 30.1373 0.632088 29.8748 0.81696 29.7673Z" fill="white"/>
<path d="M9.64574 30.832V30.8725C9.64574 31.2316 9.39556 31.6683 9.08695 31.8478L0.816848 36.6595C0.508239 36.8391 0.258057 36.6935 0.258057 36.3344V36.2939L9.64574 30.832Z" fill="#CFCFCF"/>
<path d="M6.98728 40.5116L15.2574 35.6999C15.566 35.5203 15.5273 34.9408 15.1709 34.7335L10.3149 32.174C9.95853 31.9667 9.41947 31.9442 9.11085 32.1237L0.851863 36.6452C0.543254 36.8247 0.570833 37.4286 0.927189 37.636L5.78324 40.4613C6.13959 40.6687 6.67866 40.6912 6.98728 40.5116Z" fill="#DFDFDF"/>
<path d="M6.98732 40.2034L15.2574 35.3916C15.566 35.2121 15.5273 34.8984 15.171 34.6911L10.3149 31.8658C9.95857 31.6584 9.41951 31.6359 9.11089 31.8155L0.840789 36.6272C0.53218 36.8067 0.570881 37.1204 0.927237 37.3277L5.78329 40.1531C6.13964 40.3604 6.6787 40.3829 6.98732 40.2034Z" fill="#E6E6E6"/>
<path d="M10.0086 32.3582C10.0263 32.3555 10.0603 32.3578 10.0852 32.3631C10.1278 32.3719 10.1382 32.3772 10.3247 32.4857C10.5138 32.5958 10.5197 32.5999 10.5341 32.6243C10.5623 32.675 10.5682 32.6692 10.3129 32.8177C10.095 32.9445 10.0872 32.9483 10.0557 32.9514C9.99619 32.9563 9.99293 32.9552 9.75145 32.8147L9.52765 32.6845L9.52503 32.6571L9.52307 32.63L9.7495 32.496C9.9622 32.3707 9.97788 32.3624 10.0086 32.3582Z" fill="#BFBFBF"/>
<path d="M9.26391 32.7907C9.33328 32.7785 9.34179 32.782 9.58 32.9206C9.81886 33.0595 9.82671 33.0656 9.8038 33.1041C9.79399 33.122 9.76912 33.138 9.57606 33.2503C9.36141 33.3752 9.35945 33.3763 9.32215 33.3805C9.25867 33.3877 9.25671 33.3874 9.0172 33.248C8.80845 33.1266 8.79732 33.1193 8.78946 33.1003C8.77441 33.0641 8.78423 33.0561 9.01852 32.9198C9.21092 32.8079 9.23316 32.7964 9.26391 32.7907Z" fill="#BFBFBF"/>
<path d="M8.50347 33.2271C8.53488 33.2172 8.57938 33.2157 8.61014 33.2236C8.62191 33.2267 8.72793 33.2853 8.84573 33.3539C9.04663 33.4708 9.06037 33.4795 9.06757 33.4982C9.08393 33.5366 9.08131 33.5389 8.82936 33.6832L8.60162 33.8134L8.55908 33.8131L8.51654 33.8134L8.29012 33.684C8.08464 33.5667 8.06304 33.5534 8.05387 33.5359C8.03424 33.4978 8.03817 33.494 8.26984 33.3577C8.38436 33.2903 8.48972 33.2313 8.50347 33.2271Z" fill="#BFBFBF"/>
<path d="M7.82608 33.6509H7.87713L8.10422 33.783L8.3313 33.9151V33.9448V33.9745L8.1016 34.1081L7.8719 34.2418L7.82479 34.2433L7.77833 34.2445L7.55518 34.1169C7.31436 33.9791 7.30781 33.9745 7.3137 33.9383L7.31697 33.9174L7.54602 33.7841L7.77506 33.6509L7.82608 33.6509Z" fill="#BFBFBF"/>
<path d="M7.04481 34.0834C7.05463 34.0807 7.0808 34.0792 7.10174 34.0807L7.14035 34.0826L7.36415 34.2128C7.5873 34.3427 7.58861 34.3434 7.59581 34.3651C7.60758 34.4002 7.59516 34.4097 7.36872 34.5414C7.14819 34.6705 7.1364 34.6758 7.07031 34.6739L7.03628 34.6732L6.8164 34.5475C6.57164 34.4074 6.56183 34.4002 6.57753 34.3629C6.58539 34.3438 6.59651 34.3366 6.80593 34.2155C6.92634 34.1454 7.03368 34.0861 7.04481 34.0834Z" fill="#BFBFBF"/>
<path d="M6.30783 34.5152C6.3242 34.5118 6.35103 34.5099 6.3687 34.511C6.40077 34.5129 6.40534 34.5156 6.62849 34.6454C6.84903 34.7737 6.85558 34.7783 6.8595 34.7958C6.86735 34.8331 6.86342 34.8362 6.63045 34.9717C6.32419 35.1499 6.36999 35.1499 6.067 34.9736C5.83861 34.8407 5.8373 34.84 5.83993 34.7996L5.84124 34.7798L6.05981 34.6511C6.23324 34.5487 6.28427 34.5205 6.30783 34.5152Z" fill="#BFBFBF"/>
<path d="M5.5579 34.9485C5.59259 34.9382 5.63709 34.9382 5.67243 34.9496C5.68944 34.955 5.78956 35.0102 5.90016 35.0745C6.12201 35.2036 6.13641 35.215 6.12135 35.2527C6.1135 35.2717 6.10238 35.279 5.89296 35.4008C5.65279 35.5405 5.64756 35.5428 5.58604 35.536C5.55725 35.5329 5.54023 35.5238 5.33147 35.4023C5.02455 35.2238 5.0252 35.2508 5.3269 35.076C5.44011 35.0102 5.54481 34.9531 5.5579 34.9485Z" fill="#BFBFBF"/>
<path d="M4.85371 35.3734C4.91588 35.3646 4.93028 35.3707 5.15931 35.504C5.38835 35.6373 5.39883 35.6456 5.38377 35.6818C5.37592 35.7009 5.36414 35.7085 5.15406 35.8307C4.90931 35.9731 4.90407 35.9754 4.8419 35.9643C4.81246 35.9594 4.78759 35.9464 4.59323 35.8334C4.39887 35.7203 4.37662 35.7058 4.36811 35.6887C4.34914 35.6525 4.35306 35.6495 4.59782 35.5071C4.80789 35.3848 4.821 35.378 4.85371 35.3734Z" fill="#BFBFBF"/>
<path d="M4.11425 35.8037C4.17708 35.7953 4.19017 35.8006 4.42444 35.9369C4.72351 36.1109 4.72286 36.0847 4.43163 36.2571C4.198 36.3954 4.18033 36.4034 4.11817 36.3961C4.08087 36.3919 4.07956 36.3912 3.85574 36.2609L3.63128 36.1303L3.62867 36.1029L3.62671 36.0759L3.85314 35.9419C4.07106 35.8136 4.08022 35.8082 4.11425 35.8037Z" fill="#BFBFBF"/>
<path d="M3.36427 36.2431C3.37735 36.2408 3.40222 36.2408 3.41989 36.2427C3.44933 36.2461 3.46504 36.2545 3.67249 36.3752C3.91527 36.5164 3.91724 36.5183 3.90218 36.5545C3.89498 36.5701 3.82365 36.6124 3.0992 37.0339L2.30407 37.4965L2.26742 37.4988C2.19478 37.5022 2.18954 37.5 1.96574 37.3697C1.74193 37.2395 1.738 37.2365 1.74389 37.1942L1.74782 37.1729L2.5436 36.7099C3.1797 36.3406 3.34528 36.2457 3.36427 36.2431Z" fill="#BFBFBF"/>
<path d="M10.7396 32.7903C10.7553 32.7865 10.7887 32.7861 10.8123 32.7892L10.8561 32.7949L11.0635 32.9156C11.2671 33.034 11.2716 33.0374 11.2821 33.0603C11.3044 33.1083 11.3325 33.0889 10.7906 33.4041C10.3253 33.6748 10.3083 33.684 10.2756 33.6885C10.2281 33.6954 10.1282 33.6553 9.97589 33.5682C9.84763 33.4951 9.76255 33.4433 9.75143 33.4323C9.74096 33.4216 9.73376 33.403 9.73376 33.3908L9.73442 33.3676L10.222 33.0824C10.6271 32.8452 10.7141 32.796 10.7396 32.7903Z" fill="#BFBFBF"/>
<path d="M3.53638 36.9775C3.56125 36.9715 3.60837 36.973 3.63913 36.981C3.65549 36.9851 3.7399 37.0312 3.86883 37.1062C4.09657 37.2387 4.1031 37.2441 4.08806 37.2863L4.08086 37.308L3.5632 37.6092C2.98011 37.9485 3.01872 37.9298 2.93561 37.9165C2.89635 37.9104 2.89046 37.9077 2.6889 37.7905C2.48734 37.6732 2.48276 37.6698 2.47164 37.6465C2.44874 37.5997 2.41798 37.6206 3.00041 37.2825C3.28444 37.1173 3.52591 36.9798 3.53638 36.9775Z" fill="#BFBFBF"/>
<path d="M9.48054 33.5343C9.54271 33.5256 9.55646 33.5313 9.78747 33.6657C10.0165 33.7989 10.023 33.8043 10.0126 33.8446C10.008 33.8625 10.0001 33.8679 9.78419 33.9935C9.57543 34.115 9.55841 34.1241 9.52962 34.1272C9.4681 34.134 9.46286 34.1317 9.22335 33.9924C8.98187 33.8519 8.97991 33.85 8.99496 33.8138C9.00216 33.799 9.03095 33.7807 9.22466 33.668C9.43472 33.5458 9.44783 33.5389 9.48054 33.5343Z" fill="#BFBFBF"/>
<path d="M8.7345 33.9669C8.8006 33.9535 8.81107 33.9581 9.04993 34.0971C9.35422 34.2741 9.35357 34.2479 9.05122 34.4238C8.81694 34.5601 8.80319 34.5658 8.74102 34.557C8.7083 34.5525 8.69587 34.546 8.48711 34.4245C8.24759 34.2852 8.24694 34.284 8.25938 34.2471C8.26658 34.2254 8.26854 34.2243 8.4832 34.0994C8.67625 33.987 8.70373 33.9726 8.7345 33.9669Z" fill="#BFBFBF"/>
<path d="M7.96745 34.404C8.00279 34.3941 8.02766 34.3918 8.05907 34.3964C8.09114 34.4005 8.10553 34.4082 8.31101 34.5277C8.51649 34.6473 8.53024 34.656 8.53743 34.6747C8.55379 34.7124 8.54986 34.7154 8.30904 34.8556C8.1042 34.9747 8.08916 34.9827 8.05709 34.9869C7.9923 34.9964 7.98706 34.9942 7.74755 34.8548C7.51197 34.7177 7.50738 34.7143 7.51916 34.6785C7.5244 34.6618 7.54076 34.6515 7.73969 34.5342C7.8575 34.4649 7.96025 34.4059 7.96745 34.404Z" fill="#BFBFBF"/>
<path d="M7.2267 34.8373C7.26269 34.8247 7.29411 34.8217 7.3288 34.8282C7.35497 34.8327 7.38704 34.8499 7.58139 34.9652L7.80454 35.0974L7.80258 35.1244L7.79997 35.1518L7.57615 35.282C7.33075 35.4248 7.33009 35.4252 7.26464 35.4176L7.22735 35.4134L7.00485 35.2817L6.78235 35.1499V35.1263C6.783 35.1137 6.79151 35.0951 6.80263 35.0848C6.82554 35.0631 7.19136 34.8502 7.2267 34.8373Z" fill="#BFBFBF"/>
<path d="M6.55658 35.2577H6.60763L6.83078 35.3875C7.07815 35.5314 7.08207 35.5345 7.06309 35.5706C7.05458 35.5878 7.03168 35.6026 6.8347 35.7172C6.5906 35.8592 6.59387 35.8581 6.52188 35.8474C6.48981 35.8433 6.47412 35.8349 6.27321 35.718C6.03631 35.5802 6.03173 35.5767 6.0481 35.539C6.0553 35.5204 6.06903 35.5116 6.28107 35.3883L6.50554 35.2577L6.55658 35.2577Z" fill="#BFBFBF"/>
<path d="M5.77518 35.6902C5.78499 35.6875 5.81051 35.6864 5.8308 35.6875C5.88184 35.6898 5.9211 35.7096 6.14099 35.8406C6.40079 35.9948 6.40406 35.9731 6.09256 36.1513C5.79021 36.3241 5.83602 36.3241 5.53237 36.1475C5.23134 35.9723 5.23134 35.999 5.53959 35.8204C5.65804 35.7515 5.76405 35.6929 5.77518 35.6902Z" fill="#BFBFBF"/>
<path d="M5.04286 36.1224C5.06118 36.1186 5.09129 36.117 5.10829 36.1186C5.13905 36.1212 5.15018 36.1269 5.34781 36.2396C5.47672 36.3131 5.56245 36.3653 5.57357 36.3763C5.58404 36.387 5.59124 36.4056 5.59124 36.4178L5.59059 36.441L5.35892 36.5758L5.12725 36.7106L5.08732 36.711C5.06573 36.7114 5.03497 36.7072 5.01795 36.7019C4.99963 36.6958 4.91194 36.647 4.78303 36.5705C4.49771 36.4015 4.4964 36.4266 4.7994 36.2503C4.98591 36.1418 5.01276 36.1277 5.04286 36.1224Z" fill="#BFBFBF"/>
<path d="M4.28833 36.5553C4.30142 36.5515 4.32367 36.5477 4.33742 36.5473C4.39304 36.5454 4.41136 36.5537 4.62929 36.6805C4.85833 36.8138 4.8688 36.8222 4.85375 36.8584C4.84589 36.8774 4.83412 36.885 4.62338 37.0076C4.41265 37.1302 4.40022 37.1367 4.36751 37.1413C4.30599 37.1496 4.29487 37.1447 4.05666 37.0061C3.75694 36.8317 3.7576 36.861 4.05209 36.6874C4.16857 36.6189 4.2746 36.5595 4.28833 36.5553Z" fill="#BFBFBF"/>
<path d="M11.468 33.2232C11.4955 33.2164 11.5544 33.2194 11.5878 33.2289C11.6067 33.2347 11.6833 33.2762 11.8109 33.3504C11.9981 33.4601 12.0046 33.4639 12.0184 33.4886C12.0458 33.5389 12.0969 33.5046 11.3666 33.9295C10.7547 34.2855 10.72 34.305 10.6879 34.3107C10.6185 34.3229 10.6094 34.3191 10.3751 34.1827C10.1415 34.0468 10.1362 34.0422 10.1507 33.9996L10.1579 33.9779L10.8038 33.6028C11.1585 33.3965 11.4575 33.2255 11.468 33.2232Z" fill="#BFBFBF"/>
<path d="M9.89282 34.1626C9.95695 34.1534 9.96939 34.1591 10.2102 34.3015L10.4268 34.4299L10.4275 34.4531C10.4275 34.4653 10.4203 34.4839 10.4098 34.4946C10.3987 34.5056 10.3123 34.5582 10.1821 34.6324C9.98901 34.7425 9.97003 34.752 9.94188 34.7554C9.88037 34.7622 9.87513 34.76 9.63235 34.6187L9.40985 34.4893L9.40723 34.4618L9.40527 34.4348L9.6317 34.3008C9.84963 34.1725 9.85879 34.1671 9.89282 34.1626Z" fill="#BFBFBF"/>
<path d="M9.13951 34.5993C9.15783 34.5955 9.18794 34.594 9.20495 34.5955C9.2357 34.5982 9.24683 34.6039 9.45493 34.7227C9.69641 34.8609 9.70557 34.8677 9.68921 34.9062C9.68201 34.9241 9.6676 34.9332 9.45231 35.057L9.22194 35.1887L9.17548 35.1876L9.12837 35.186L8.89998 35.0532L8.67159 34.9203L8.66832 34.8986C8.66636 34.8868 8.6729 34.8692 8.68206 34.8594C8.69253 34.8487 8.78416 34.7923 8.9026 34.7234C9.08257 34.6187 9.10941 34.6046 9.13951 34.5993Z" fill="#BFBFBF"/>
<path d="M8.41179 35.0235C8.4805 35.014 8.4733 35.0105 8.72328 35.156C8.94578 35.2854 8.95037 35.2881 8.95364 35.3068C8.96149 35.3425 8.95037 35.3505 8.72131 35.4838C8.41896 35.6597 8.46412 35.6601 8.15982 35.483C7.85552 35.306 7.85487 35.333 8.1631 35.1537C8.36401 35.0368 8.38102 35.0277 8.41179 35.0235Z" fill="#BFBFBF"/>
<path d="M7.654 35.4583C7.68869 35.4473 7.73449 35.4488 7.77245 35.4625C7.81237 35.4773 8.17033 35.6856 8.1952 35.7092C8.20632 35.7195 8.21483 35.7381 8.21548 35.7507V35.7743L7.99363 35.9057C7.75214 36.0485 7.74429 36.0523 7.68408 36.0462C7.6494 36.0427 7.64613 36.0408 7.42559 35.9125C7.11867 35.734 7.11932 35.761 7.42101 35.5862C7.53423 35.5204 7.6396 35.4629 7.654 35.4583Z" fill="#BFBFBF"/>
<path d="M6.94787 35.8836C7.01003 35.8749 7.02444 35.8809 7.25086 36.0134C7.47728 36.1452 7.48972 36.1547 7.47793 36.1897C7.47073 36.2114 7.46942 36.2122 7.24888 36.3405C7.0074 36.481 7.00217 36.4833 6.94065 36.4764C6.91186 36.4734 6.89485 36.4643 6.68739 36.3436C6.47994 36.2229 6.46424 36.213 6.459 36.1962C6.44723 36.1604 6.45115 36.1574 6.69198 36.0173C6.90205 35.895 6.91515 35.8882 6.94787 35.8836Z" fill="#BFBFBF"/>
<path d="M6.20832 36.3139C6.27049 36.3051 6.28424 36.3108 6.51524 36.4452C6.74429 36.5785 6.75083 36.5838 6.74036 36.6242C6.73577 36.6421 6.72793 36.6474 6.51131 36.7734C6.26263 36.9181 6.26591 36.917 6.19654 36.9048C6.16774 36.9002 6.14091 36.8861 5.98189 36.7959C5.88177 36.7392 5.7823 36.6805 5.76135 36.6653C5.72798 36.6413 5.7234 36.6348 5.72406 36.6093V36.5804L5.94853 36.4498C6.16253 36.3253 6.1756 36.3184 6.20832 36.3139Z" fill="#BFBFBF"/>
<path d="M5.46163 36.7468C5.52969 36.7338 5.5395 36.738 5.77771 36.8766C6.08201 37.0537 6.08135 37.0274 5.77901 37.2033C5.54472 37.3396 5.53097 37.3453 5.4688 37.3366C5.43608 37.332 5.42365 37.3255 5.21489 37.2041C4.97538 37.0647 4.97472 37.0636 4.98716 37.0266C4.99436 37.0049 4.99632 37.0038 5.21098 36.8789C5.40403 36.7666 5.43152 36.7521 5.46163 36.7468Z" fill="#BFBFBF"/>
<path d="M4.72868 37.1748C4.79346 37.1652 4.79935 37.1679 5.03494 37.305C5.27903 37.447 5.28231 37.4497 5.2581 37.4912C5.2437 37.5148 5.23519 37.5197 4.52776 37.9313C3.82556 38.3399 3.81182 38.3479 3.7719 38.3559C3.74637 38.3608 3.71758 38.3616 3.69206 38.3574C3.65345 38.3509 3.64625 38.3475 3.44534 38.2306L3.23855 38.1103L3.22874 38.0855C3.21107 38.0387 3.15479 38.0752 3.96628 37.6031C4.67699 37.1896 4.69595 37.1793 4.72868 37.1748Z" fill="#BFBFBF"/>
<path d="M11.1218 34.3118C11.1362 34.3095 11.1624 34.3088 11.1787 34.3107C11.2069 34.3141 11.2258 34.3236 11.411 34.4291C11.5223 34.4923 11.6237 34.5528 11.6381 34.5635C11.6564 34.578 11.6623 34.5898 11.661 34.6088L11.6604 34.6343L11.3541 34.8125C11.053 34.9877 11.0472 34.9911 11.0164 34.993C10.9523 34.9976 10.947 34.9953 10.7134 34.8593C10.5001 34.7352 10.4981 34.7341 10.4909 34.7124C10.487 34.701 10.4876 34.6846 10.4916 34.677C10.504 34.6545 11.0851 34.3179 11.1218 34.3118Z" fill="#BFBFBF"/>
<path d="M10.2435 34.8289C10.3037 34.822 10.3201 34.8293 10.5465 34.961C10.7697 35.0901 10.7801 35.0985 10.7729 35.1339L10.769 35.1529L8.6539 36.3835L6.53879 37.6141L6.50737 37.6164C6.44324 37.621 6.438 37.6187 6.20438 37.4828C5.99104 37.3587 5.98908 37.3575 5.98188 37.3358C5.97796 37.3244 5.97861 37.308 5.98254 37.3004C5.98908 37.289 6.42558 37.0327 8.0983 36.0595L10.2062 34.8331L10.2435 34.8289Z" fill="#BFBFBF"/>
<path d="M5.73457 37.4523C5.75551 37.45 5.78497 37.4519 5.80198 37.4565C5.84124 37.4679 6.22473 37.6888 6.25025 37.715C6.25941 37.7249 6.26595 37.7424 6.26398 37.7542L6.26071 37.7759L5.9551 37.9538C5.65079 38.1308 5.64883 38.132 5.61611 38.1342C5.55525 38.1384 5.54085 38.1323 5.31639 38.0017C5.08734 37.8685 5.07687 37.8601 5.09193 37.8239C5.10043 37.8045 5.1109 37.7977 5.39885 37.6301L5.69726 37.4565L5.73457 37.4523Z" fill="#BFBFBF"/>
<path d="M4.86151 37.9724H4.91255L5.13701 38.103C5.34839 38.226 5.36278 38.2352 5.36867 38.2523C5.3811 38.2885 5.3955 38.2786 4.9446 38.5417L4.52773 38.7842L4.48062 38.7857L4.43416 38.7869L4.20054 38.651L3.96692 38.515L3.96888 38.488L3.97149 38.4606L4.39098 38.2165L4.81046 37.9725L4.86151 37.9724Z" fill="#BFBFBF"/>
<path d="M12.2546 33.6733C12.3154 33.6691 12.3298 33.6752 12.5543 33.8058C12.7787 33.9364 12.7892 33.9448 12.782 33.9802L12.7781 33.9992L12.3632 34.2406C11.9057 34.5068 11.9227 34.4984 11.8573 34.487C11.8279 34.482 11.803 34.4691 11.6086 34.356C11.4143 34.2429 11.392 34.2284 11.3835 34.2113C11.3639 34.1732 11.3495 34.1831 11.8069 33.917L12.2219 33.6756L12.2546 33.6733Z" fill="#BFBFBF"/>
<path d="M8.79553 38.7352L12.7787 36.4177C12.8515 36.3753 12.8424 36.3013 12.7583 36.2524L11.1629 35.3242C11.0788 35.2753 10.9517 35.27 10.8789 35.3123L6.8957 37.6298C6.82291 37.6722 6.83204 37.7461 6.91609 37.7951L8.51153 38.7233C8.59559 38.7722 8.72274 38.7775 8.79553 38.7352Z" fill="#697A94"/>
<path d="M8.79553 38.7612L12.7787 36.4437C12.8515 36.4013 12.8424 36.3274 12.7583 36.2785L11.1629 35.3502C11.0788 35.3013 10.9517 35.296 10.8789 35.3383L6.8957 37.6558C6.82291 37.6982 6.83204 37.7722 6.91609 37.8211L8.51153 38.7493C8.59559 38.7982 8.72274 38.8035 8.79553 38.7612Z" fill="#BFBFBF"/>
<path d="M10.0086 32.3322C10.0263 32.3295 10.0603 32.3318 10.0852 32.3371C10.1278 32.3459 10.1382 32.3512 10.3247 32.4597C10.5138 32.5698 10.5197 32.5739 10.5341 32.5983C10.5623 32.649 10.5682 32.6432 10.3129 32.7917C10.095 32.9185 10.0872 32.9223 10.0557 32.9254C9.99619 32.9303 9.99293 32.9292 9.75145 32.7887L9.52765 32.6585L9.52503 32.6311L9.52307 32.604L9.7495 32.47C9.9622 32.3447 9.97788 32.3363 10.0086 32.3322Z" fill="#697A94"/>
<path d="M9.26391 32.7647C9.33328 32.7525 9.34179 32.756 9.58 32.8945C9.81886 33.0335 9.82671 33.0396 9.8038 33.0781C9.79399 33.096 9.76912 33.112 9.57606 33.2243C9.36141 33.3492 9.35945 33.3503 9.32215 33.3545C9.25867 33.3617 9.25671 33.3613 9.0172 33.222C8.80845 33.1005 8.79732 33.0933 8.78946 33.0743C8.77441 33.0381 8.78423 33.0301 9.01852 32.8938C9.21092 32.7818 9.23316 32.7704 9.26391 32.7647Z" fill="#697A94"/>
<path d="M8.50347 33.2011C8.53488 33.1912 8.57938 33.1896 8.61014 33.1976C8.62191 33.2007 8.72793 33.2593 8.84573 33.3278C9.04663 33.4447 9.06037 33.4535 9.06757 33.4722C9.08393 33.5106 9.08131 33.5129 8.82936 33.6572L8.60162 33.7874L8.55908 33.787L8.51654 33.7874L8.29012 33.658C8.08464 33.5407 8.06304 33.5274 8.05387 33.5099C8.03424 33.4718 8.03817 33.468 8.26984 33.3317C8.38436 33.2643 8.48972 33.2052 8.50347 33.2011Z" fill="#697A94"/>
<path d="M7.82608 33.6248H7.87713L8.10422 33.757L8.3313 33.8891V33.9188V33.9485L8.1016 34.0821L7.8719 34.2158L7.82479 34.2173L7.77833 34.2184L7.55518 34.0909C7.31436 33.9531 7.30781 33.9485 7.3137 33.9123L7.31697 33.8914L7.54602 33.7581L7.77506 33.6248L7.82608 33.6248Z" fill="#697A94"/>
<path d="M7.04481 34.0574C7.05463 34.0547 7.0808 34.0532 7.10174 34.0547L7.14035 34.0566L7.36415 34.1868C7.5873 34.3167 7.58861 34.3174 7.59581 34.3391C7.60758 34.3742 7.59516 34.3837 7.36872 34.5154C7.14819 34.6445 7.1364 34.6498 7.07031 34.6479L7.03628 34.6472L6.8164 34.5215C6.57164 34.3814 6.56183 34.3742 6.57753 34.3369C6.58539 34.3178 6.59651 34.3106 6.80593 34.1895C6.92634 34.1194 7.03368 34.0601 7.04481 34.0574Z" fill="#697A94"/>
<path d="M6.30783 34.4892C6.3242 34.4857 6.35103 34.4838 6.3687 34.485C6.40077 34.4869 6.40534 34.4895 6.62849 34.6194C6.84903 34.7477 6.85558 34.7523 6.8595 34.7698C6.86735 34.8071 6.86342 34.8101 6.63045 34.9457C6.32419 35.1239 6.36999 35.1239 6.067 34.9476C5.83861 34.8147 5.8373 34.814 5.83993 34.7736L5.84124 34.7538L6.05981 34.6251C6.23324 34.5227 6.28427 34.4945 6.30783 34.4892Z" fill="#697A94"/>
<path d="M5.5579 34.9225C5.59259 34.9122 5.63709 34.9122 5.67243 34.9236C5.68944 34.9289 5.78956 34.9841 5.90016 35.0485C6.12201 35.1776 6.13641 35.189 6.12135 35.2267C6.1135 35.2457 6.10238 35.2529 5.89296 35.3748C5.65279 35.5145 5.64756 35.5168 5.58604 35.51C5.55725 35.5069 5.54023 35.4978 5.33147 35.3763C5.02455 35.1977 5.0252 35.2248 5.3269 35.05C5.44011 34.9841 5.54481 34.927 5.5579 34.9225Z" fill="#697A94"/>
<path d="M4.85371 35.3474C4.91588 35.3386 4.93028 35.3447 5.15931 35.478C5.38835 35.6113 5.39883 35.6196 5.38377 35.6558C5.37592 35.6749 5.36414 35.6825 5.15406 35.8047C4.90931 35.9471 4.90407 35.9494 4.8419 35.9383C4.81246 35.9334 4.78759 35.9204 4.59323 35.8074C4.39887 35.6943 4.37662 35.6798 4.36811 35.6627C4.34914 35.6265 4.35306 35.6235 4.59782 35.4811C4.80789 35.3588 4.821 35.352 4.85371 35.3474Z" fill="#697A94"/>
<path d="M4.11425 35.7777C4.17708 35.7693 4.19017 35.7746 4.42444 35.9109C4.72351 36.0849 4.72286 36.0586 4.43163 36.2311C4.198 36.3693 4.18033 36.3773 4.11817 36.3701C4.08087 36.3659 4.07956 36.3651 3.85574 36.2349L3.63128 36.1043L3.62867 36.0769L3.62671 36.0499L3.85314 35.9158C4.07106 35.7875 4.08022 35.7822 4.11425 35.7777Z" fill="#697A94"/>
<path d="M3.36427 36.2171C3.37735 36.2148 3.40222 36.2148 3.41989 36.2167C3.44933 36.2201 3.46504 36.2285 3.67249 36.3492C3.91527 36.4904 3.91724 36.4923 3.90218 36.5285C3.89498 36.5441 3.82365 36.5864 3.0992 37.0079L2.30407 37.4705L2.26742 37.4728C2.19478 37.4762 2.18954 37.4739 1.96574 37.3437C1.74193 37.2135 1.738 37.2105 1.74389 37.1682L1.74782 37.1469L2.5436 36.6839C3.1797 36.3145 3.34528 36.2197 3.36427 36.2171Z" fill="#697A94"/>
<path d="M10.7396 32.7643C10.7553 32.7605 10.7887 32.7601 10.8123 32.7632L10.8561 32.7689L11.0635 32.8896C11.2671 33.008 11.2716 33.0114 11.2821 33.0343C11.3044 33.0822 11.3325 33.0628 10.7906 33.3781C10.3253 33.6488 10.3083 33.658 10.2756 33.6625C10.2281 33.6694 10.1282 33.6293 9.97589 33.5422C9.84763 33.4691 9.76255 33.4173 9.75143 33.4063C9.74096 33.3956 9.73376 33.377 9.73376 33.3648L9.73442 33.3416L10.222 33.0564C10.6271 32.8192 10.7141 32.77 10.7396 32.7643Z" fill="#697A94"/>
<path d="M3.53638 36.9515C3.56125 36.9454 3.60837 36.947 3.63913 36.955C3.65549 36.9591 3.7399 37.0052 3.86883 37.0802C4.09657 37.2127 4.1031 37.218 4.08806 37.2603L4.08086 37.282L3.5632 37.5832C2.98011 37.9225 3.01872 37.9038 2.93561 37.8905C2.89635 37.8844 2.89046 37.8817 2.6889 37.7645C2.48734 37.6472 2.48276 37.6437 2.47164 37.6205C2.44874 37.5737 2.41798 37.5946 3.00041 37.2565C3.28444 37.0913 3.52591 36.9538 3.53638 36.9515Z" fill="#697A94"/>
<path d="M9.48054 33.5083C9.54271 33.4996 9.55646 33.5053 9.78747 33.6397C10.0165 33.7729 10.023 33.7783 10.0126 33.8186C10.008 33.8365 10.0001 33.8419 9.78419 33.9675C9.57543 34.089 9.55841 34.0981 9.52962 34.1011C9.4681 34.108 9.46286 34.1057 9.22335 33.9664C8.98187 33.8259 8.97991 33.824 8.99496 33.7878C9.00216 33.7729 9.03095 33.7547 9.22466 33.642C9.43472 33.5197 9.44783 33.5129 9.48054 33.5083Z" fill="#697A94"/>
<path d="M8.7345 33.9409C8.8006 33.9275 8.81107 33.9321 9.04993 34.0711C9.35422 34.2481 9.35357 34.2219 9.05122 34.3978C8.81694 34.5341 8.80319 34.5398 8.74102 34.531C8.7083 34.5265 8.69587 34.52 8.48711 34.3985C8.24759 34.2592 8.24694 34.258 8.25938 34.2211C8.26658 34.1994 8.26854 34.1983 8.4832 34.0734C8.67625 33.961 8.70373 33.9466 8.7345 33.9409Z" fill="#697A94"/>
<path d="M7.96745 34.378C8.00279 34.3681 8.02766 34.3658 8.05907 34.3704C8.09114 34.3745 8.10553 34.3822 8.31101 34.5017C8.51649 34.6213 8.53024 34.63 8.53743 34.6487C8.55379 34.6864 8.54986 34.6894 8.30904 34.8295C8.1042 34.9487 8.08916 34.9567 8.05709 34.9609C7.9923 34.9704 7.98706 34.9681 7.74755 34.8288C7.51197 34.6917 7.50738 34.6883 7.51916 34.6525C7.5244 34.6357 7.54076 34.6255 7.73969 34.5082C7.8575 34.4389 7.96025 34.3799 7.96745 34.378Z" fill="#697A94"/>
<path d="M7.2267 34.8113C7.26269 34.7987 7.29411 34.7957 7.3288 34.8021C7.35497 34.8067 7.38704 34.8239 7.58139 34.9392L7.80454 35.0713L7.80258 35.0984L7.79997 35.1258L7.57615 35.256C7.33075 35.3988 7.33009 35.3992 7.26464 35.3916L7.22735 35.3874L7.00485 35.2556L6.78235 35.1239V35.1003C6.783 35.0877 6.79151 35.0691 6.80263 35.0588C6.82554 35.0371 7.19136 34.8242 7.2267 34.8113Z" fill="#697A94"/>
<path d="M6.55658 35.2316H6.60763L6.83078 35.3615C7.07815 35.5054 7.08207 35.5085 7.06309 35.5446C7.05458 35.5618 7.03168 35.5766 6.8347 35.6912C6.5906 35.8332 6.59387 35.8321 6.52188 35.8214C6.48981 35.8172 6.47412 35.8089 6.27321 35.692C6.03631 35.5542 6.03173 35.5507 6.0481 35.513C6.0553 35.4944 6.06903 35.4856 6.28107 35.3622L6.50554 35.2317L6.55658 35.2316Z" fill="#697A94"/>
<path d="M5.77518 35.6642C5.78499 35.6615 5.81051 35.6604 5.8308 35.6615C5.88184 35.6638 5.9211 35.6836 6.14099 35.8146C6.40079 35.9688 6.40406 35.9471 6.09256 36.1253C5.79021 36.2981 5.83602 36.2981 5.53237 36.1215C5.23134 35.9463 5.23134 35.973 5.53959 35.7944C5.65804 35.7255 5.76405 35.6668 5.77518 35.6642Z" fill="#697A94"/>
<path d="M5.04286 36.0963C5.06118 36.0925 5.09129 36.091 5.10829 36.0925C5.13905 36.0952 5.15018 36.1009 5.34781 36.2136C5.47672 36.2871 5.56245 36.3393 5.57357 36.3503C5.58404 36.361 5.59124 36.3796 5.59124 36.3918L5.59059 36.415L5.35892 36.5498L5.12725 36.6846L5.08732 36.685C5.06573 36.6854 5.03497 36.6812 5.01795 36.6759C4.99963 36.6698 4.91194 36.621 4.78303 36.5445C4.49771 36.3755 4.4964 36.4006 4.7994 36.2243C4.98591 36.1158 5.01276 36.1017 5.04286 36.0963Z" fill="#697A94"/>
<path d="M4.28833 36.5293C4.30142 36.5255 4.32367 36.5216 4.33742 36.5213C4.39304 36.5194 4.41136 36.5277 4.62929 36.6545C4.85833 36.7878 4.8688 36.7962 4.85375 36.8323C4.84589 36.8514 4.83412 36.859 4.62338 36.9816C4.41265 37.1042 4.40022 37.1107 4.36751 37.1152C4.30599 37.1236 4.29487 37.1187 4.05666 36.9801C3.75694 36.8057 3.7576 36.835 4.05209 36.6614C4.16857 36.5929 4.2746 36.5334 4.28833 36.5293Z" fill="#697A94"/>
<path d="M11.468 33.1972C11.4955 33.1904 11.5544 33.1934 11.5878 33.2029C11.6067 33.2086 11.6833 33.2501 11.8109 33.3244C11.9981 33.434 12.0046 33.4379 12.0184 33.4626C12.0458 33.5129 12.0969 33.4786 11.3666 33.9035C10.7547 34.2595 10.72 34.2789 10.6879 34.2847C10.6185 34.2968 10.6094 34.293 10.3751 34.1567C10.1415 34.0208 10.1362 34.0162 10.1507 33.9736L10.1579 33.9519L10.8038 33.5768C11.1585 33.3705 11.4575 33.1995 11.468 33.1972Z" fill="#697A94"/>
<path d="M9.89282 34.1366C9.95695 34.1274 9.96939 34.1331 10.2102 34.2755L10.4268 34.4038L10.4275 34.4271C10.4275 34.4393 10.4203 34.4579 10.4098 34.4686C10.3987 34.4796 10.3123 34.5321 10.1821 34.6064C9.98901 34.7164 9.97003 34.726 9.94188 34.7294C9.88037 34.7362 9.87513 34.734 9.63235 34.5927L9.40985 34.4632L9.40723 34.4358L9.40527 34.4088L9.6317 34.2748C9.84963 34.1465 9.85879 34.1411 9.89282 34.1366Z" fill="#697A94"/>
<path d="M9.13951 34.5733C9.15783 34.5695 9.18794 34.568 9.20495 34.5695C9.2357 34.5721 9.24683 34.5779 9.45493 34.6967C9.69641 34.8349 9.70557 34.8417 9.68921 34.8802C9.68201 34.8981 9.6676 34.9072 9.45231 35.031L9.22194 35.1627L9.17548 35.1616L9.12837 35.16L8.89998 35.0271L8.67159 34.8943L8.66832 34.8726C8.66636 34.8608 8.6729 34.8432 8.68206 34.8333C8.69253 34.8227 8.78416 34.7663 8.9026 34.6974C9.08257 34.5927 9.10941 34.5786 9.13951 34.5733Z" fill="#697A94"/>
<path d="M8.41179 34.9975C8.4805 34.9879 8.4733 34.9845 8.72328 35.13C8.94578 35.2594 8.95037 35.2621 8.95364 35.2807C8.96149 35.3165 8.95037 35.3245 8.72131 35.4578C8.41896 35.6337 8.46412 35.6341 8.15982 35.457C7.85552 35.28 7.85487 35.307 8.1631 35.1277C8.36401 35.0108 8.38102 35.0016 8.41179 34.9975Z" fill="#697A94"/>
<path d="M7.654 35.4323C7.68869 35.4212 7.73449 35.4228 7.77245 35.4365C7.81237 35.4513 8.17033 35.6596 8.1952 35.6832C8.20632 35.6935 8.21483 35.7121 8.21548 35.7247V35.7483L7.99363 35.8797C7.75214 36.0225 7.74429 36.0263 7.68408 36.0202C7.6494 36.0167 7.64613 36.0148 7.42559 35.8865C7.11867 35.708 7.11932 35.735 7.42101 35.5602C7.53423 35.4944 7.6396 35.4368 7.654 35.4323Z" fill="#697A94"/>
<path d="M6.94787 35.8576C7.01003 35.8488 7.02444 35.8549 7.25086 35.9874C7.47728 36.1192 7.48972 36.1287 7.47793 36.1637C7.47073 36.1854 7.46942 36.1862 7.24888 36.3145C7.0074 36.455 7.00217 36.4573 6.94065 36.4504C6.91186 36.4474 6.89485 36.4382 6.68739 36.3175C6.47994 36.1968 6.46424 36.1869 6.459 36.1702C6.44723 36.1344 6.45115 36.1314 6.69198 35.9912C6.90205 35.869 6.91515 35.8622 6.94787 35.8576Z" fill="#697A94"/>
<path d="M6.20832 36.2879C6.27049 36.2791 6.28424 36.2848 6.51524 36.4192C6.74429 36.5525 6.75083 36.5578 6.74036 36.5982C6.73577 36.6161 6.72793 36.6214 6.51131 36.7474C6.26263 36.8921 6.26591 36.891 6.19654 36.8788C6.16774 36.8742 6.14091 36.8601 5.98189 36.7699C5.88177 36.7132 5.7823 36.6545 5.76135 36.6393C5.72798 36.6153 5.7234 36.6088 5.72406 36.5833V36.5544L5.94853 36.4238C6.16253 36.2993 6.1756 36.2924 6.20832 36.2879Z" fill="#697A94"/>
<path d="M5.46163 36.7208C5.52969 36.7078 5.5395 36.712 5.77771 36.8506C6.08201 37.0277 6.08135 37.0014 5.77901 37.1773C5.54472 37.3136 5.53097 37.3193 5.4688 37.3106C5.43608 37.306 5.42365 37.2995 5.21489 37.1781C4.97538 37.0387 4.97472 37.0376 4.98716 37.0006C4.99436 36.9789 4.99632 36.9778 5.21098 36.8529C5.40403 36.7406 5.43152 36.7261 5.46163 36.7208Z" fill="#697A94"/>
<path d="M4.72868 37.1487C4.79346 37.1392 4.79935 37.1419 5.03494 37.279C5.27903 37.421 5.28231 37.4236 5.2581 37.4651C5.2437 37.4888 5.23519 37.4937 4.52776 37.9053C3.82556 38.3139 3.81182 38.3219 3.7719 38.3299C3.74637 38.3348 3.71758 38.3356 3.69206 38.3314C3.65345 38.3249 3.64625 38.3215 3.44534 38.2046L3.23855 38.0843L3.22874 38.0595C3.21107 38.0127 3.15479 38.0492 3.96628 37.5771C4.67699 37.1636 4.69595 37.1533 4.72868 37.1487Z" fill="#697A94"/>
<path d="M11.1218 34.2858C11.1362 34.2835 11.1624 34.2828 11.1787 34.2847C11.2069 34.2881 11.2258 34.2976 11.411 34.4031C11.5223 34.4663 11.6237 34.5268 11.6381 34.5375C11.6564 34.552 11.6623 34.5638 11.661 34.5828L11.6604 34.6083L11.3541 34.7865C11.053 34.9616 11.0472 34.9651 11.0164 34.967C10.9523 34.9715 10.947 34.9693 10.7134 34.8333C10.5001 34.7092 10.4981 34.7081 10.4909 34.6864C10.487 34.6749 10.4876 34.6586 10.4916 34.651C10.504 34.6285 11.0851 34.2919 11.1218 34.2858Z" fill="#697A94"/>
<path d="M10.2435 34.8029C10.3037 34.796 10.3201 34.8033 10.5465 34.935C10.7697 35.0641 10.7801 35.0724 10.7729 35.1079L10.769 35.1269L8.6539 36.3575L6.53879 37.5881L6.50737 37.5904C6.44324 37.595 6.438 37.5927 6.20438 37.4568C5.99104 37.3326 5.98908 37.3315 5.98188 37.3098C5.97796 37.2984 5.97861 37.282 5.98254 37.2744C5.98908 37.263 6.42558 37.0067 8.0983 36.0335L10.2062 34.8071L10.2435 34.8029Z" fill="#697A94"/>
<path d="M5.73457 37.4263C5.75551 37.424 5.78497 37.4259 5.80198 37.4305C5.84124 37.4419 6.22473 37.6627 6.25025 37.689C6.25941 37.6989 6.26595 37.7164 6.26398 37.7282L6.26071 37.7499L5.9551 37.9278C5.65079 38.1048 5.64883 38.106 5.61611 38.1082C5.55525 38.1124 5.54085 38.1063 5.31639 37.9757C5.08734 37.8425 5.07687 37.8341 5.09193 37.7979C5.10043 37.7785 5.1109 37.7716 5.39885 37.6041L5.69726 37.4305L5.73457 37.4263Z" fill="#697A94"/>
<path d="M4.86151 37.9464H4.91255L5.13701 38.077C5.34839 38.2 5.36278 38.2091 5.36867 38.2263C5.3811 38.2625 5.3955 38.2526 4.9446 38.5157L4.52773 38.7582L4.48062 38.7597L4.43416 38.7609L4.20054 38.6249L3.96692 38.489L3.96888 38.462L3.97149 38.4346L4.39098 38.1905L4.81046 37.9464L4.86151 37.9464Z" fill="#697A94"/>
<path d="M12.2546 33.6473C12.3154 33.6431 12.3298 33.6492 12.5543 33.7798C12.7787 33.9104 12.7892 33.9187 12.782 33.9542L12.7781 33.9732L12.3632 34.2146C11.9057 34.4807 11.9227 34.4724 11.8573 34.4609C11.8279 34.456 11.803 34.443 11.6086 34.33C11.4143 34.2169 11.392 34.2024 11.3835 34.1853C11.3639 34.1472 11.3495 34.1571 11.8069 33.891L12.2219 33.6496L12.2546 33.6473Z" fill="#697A94"/>
<path opacity="0.05" d="M0.927237 37.3277C0.570881 37.1204 0.53218 36.8067 0.840789 36.6272L9.11089 31.8155C9.4195 31.6359 9.95857 31.6584 10.3149 31.8658L10.5494 32.0022L1.16169 37.4641L0.927237 37.3277Z" fill="black"/>
<path d="M2.45233 30.5075C2.4463 30.511 2.4402 30.5137 2.43421 30.5155C2.41076 30.5223 2.39153 30.5141 2.38249 30.4932L2.25851 30.2069C2.243 30.1711 2.26167 30.1092 2.30023 30.0687C2.33897 30.028 2.38264 30.0245 2.39819 30.0602L2.48324 30.2567L3.12473 29.2519C3.15648 29.2022 3.20402 29.1791 3.23081 29.2005C3.25768 29.2218 3.25371 29.2794 3.22198 29.3291L2.50095 30.4584C2.48721 30.48 2.46994 30.4972 2.45233 30.5075Z" fill="#4282B8"/>
<path d="M7.56043 27.2791L3.47433 29.6565C3.43276 29.6807 3.39905 29.6611 3.39905 29.6127C3.39905 29.5644 3.43275 29.5055 3.47433 29.4813L7.56043 27.104C7.60205 27.0797 7.63572 27.0994 7.63572 27.1477C7.63572 27.1961 7.60205 27.2549 7.56043 27.2791Z" fill="#BFBFBF"/>
<path d="M2.45233 32.0722C2.4463 32.0757 2.4402 32.0784 2.43421 32.0802C2.41076 32.0871 2.39153 32.0788 2.38249 32.058L2.25851 31.7717C2.243 31.7358 2.26167 31.6739 2.30023 31.6335C2.33897 31.5927 2.38264 31.5892 2.39819 31.625L2.48324 31.8215L3.12473 30.8167C3.15648 30.7669 3.20402 30.7439 3.23081 30.7653C3.25768 30.7866 3.25371 30.8442 3.22198 30.8938L2.50095 32.0232C2.48721 32.0448 2.46994 32.062 2.45233 32.0722Z" fill="#4282B8"/>
<path d="M7.56043 28.8439L3.47433 31.2213C3.43276 31.2455 3.39905 31.2259 3.39905 31.1775C3.39905 31.1291 3.43275 31.0703 3.47433 31.0461L7.56043 28.6687C7.60205 28.6445 7.63572 28.6641 7.63572 28.7125C7.63572 28.7609 7.60205 28.8197 7.56043 28.8439Z" fill="#BFBFBF"/>
<path d="M2.45233 33.637C2.4463 33.6405 2.4402 33.6432 2.43421 33.645C2.41076 33.6519 2.39153 33.6436 2.38249 33.6228L2.25851 33.3365C2.243 33.3006 2.26167 33.2387 2.30023 33.1982C2.33897 33.1575 2.38264 33.154 2.39819 33.1898L2.48324 33.3862L3.12473 32.3815C3.15648 32.3317 3.20402 32.3087 3.23081 32.33C3.25768 32.3513 3.25371 32.4089 3.22198 32.4586L2.50095 33.588C2.48721 33.6095 2.46994 33.6268 2.45233 33.637Z" fill="#4282B8"/>
<path d="M7.56043 30.4087L3.47433 32.7861C3.43276 32.8102 3.39905 32.7906 3.39905 32.7423C3.39905 32.6939 3.43275 32.6351 3.47433 32.6109L7.56043 30.2335C7.60205 30.2093 7.63572 30.2289 7.63572 30.2773C7.63572 30.3256 7.60205 30.3845 7.56043 30.4087Z" fill="#BFBFBF"/>
<path opacity="0.05" d="M0.563667 62.0758L9.00554 57.1641C9.32055 56.9808 9.8313 56.9808 10.1463 57.1641L15.2442 60.1302L15.2797 60.1508C15.5948 60.3341 15.5947 60.6313 15.2797 60.8146L6.83785 65.7262C6.52283 65.9095 6.01208 65.9095 5.69708 65.7262L5.66155 65.7056L0.563645 62.7395C0.248638 62.5562 0.248638 62.2591 0.563667 62.0758Z" fill="#333333"/>
</g>
<defs>
<clipPath id="clip0_102_10780">
<rect width="82" height="94" fill="white"/>
</clipPath>
</defs>
</svg>
