<svg xmlns="http://www.w3.org/2000/svg" id="_レイヤー_2" data-name=" レイヤー 2" version="1.1" viewBox="0 0 770.75525 758.98889" width="771px" height="759px" class="lg:!max-h-[405px] isometric rectangleModalImage" role="img" aria-label="住宅ローン申し込み アイソメトリック イラスト"><title>住宅ローン申し込み アイソメトリック イラスト</title><g id="_1" data-name=" 1"><g><g><g><path d="M638.33199,528.16059c-1.38088,0-2.5-1.11912-2.5-2.5v-131.99409c0-1.38088,1.11912-2.5,2.5-2.5s2.5,1.11912,2.5,2.5v131.99409c0,1.38088-1.11912,2.5-2.5,2.5Z" fill="#bbb4b4" stroke-width="0"/><path d="M571.89362,494.06979c-.04101,0-.08202-.00099-.12299-.0029-1.37989-.06741-2.44339-1.23932-2.37598-2.61822l5.44041-131.84082c.06741-1.3789,1.2656-2.44629,2.61822-2.37598,1.37989.06741,2.44339,1.23932,2.37598,2.61822l-5.44041,131.84082c-.06538,1.33789-1.16989,2.37888-2.49512,2.37888h-.00011Z" fill="#bbb4b4" stroke-width="0"/><path d="M709.77051,494.06979c-1.32523,0-2.42973-1.04099-2.49512-2.37888l-5.44037-131.84082c-.06737-1.3789.99609-2.55081,2.37602-2.61822,1.35063-.0742,2.55081.99609,2.61818,2.37598l5.44037,131.84082c.06737,1.3789-.99609,2.55081-2.37602,2.61822-.04097.00198-.08202.0029-.12299.0029h-.00008Z" fill="#bbb4b4" stroke-width="0"/><path d="M632.332,459.1547c-1.38088,0-2.5-1.11912-2.5-2.5v-131.99409c0-1.38088,1.11912-2.5,2.5-2.5s2.5,1.11912,2.5,2.5v131.99409c0,1.38088-1.11912,2.5-2.5,2.5Z" fill="#bbb4b4" stroke-width="0"/><path d="M706.33202,360.66059l-62.26593-44.63051c-3.70323-2.1381-11.73409,5.56808-11.73409.63049,3.68019-34.77909,9.27162-117.80991,5.0288-150.9947,0-4.93759,3.00213-7.2071,6.70528-5.0691l64.53171,37.2574c3.70323,2.1381,6.70532,7.87411,6.70532,12.8117,5.50697,31.2578,4.05739,101.46521,0,137.55259,0,4.93759-5.26802,14.58019-8.97118,12.44209l.00008.00004Z" fill="#bbb4b4" stroke-width="0"/><path d="M627.42119,393.20518l-52.11819-30.09048c-7.13112-4.1172-6.2368-11.30871,1.99749-16.06281l48.12088-27.78259c8.23429-4.7541,20.69038-5.2704,27.82158-1.1533l52.11823,30.09048c7.13112,4.1172,6.2368,11.30871-1.99753,16.06281l-48.12088,27.78259c-8.23433,4.7541-20.69038,5.27039-27.82162,1.1533h.00004Z" fill="#bbb4b4" stroke-width="0"/></g><g><path d="M614.8933,274.3317c6.0054,3.1139,48.12138,33.4679,37.46357,43.19901-10.65788,9.7311-83.47168,74.0168-115.44529,73.04371,0,0-34.46899-37.83989-31.11042-44.22192,3.7928-7.20692,64.1246-34.78781,109.75868-39.75229,0,0-6.67191-35.3824-.66662-32.26851h.00008Z" fill="#3c4358" stroke-width="0"/><g><g><path d="M524.11419,537.45701s-3.62301-1.00849-3.96191-1.79581,2.84489-1.96041,2.84489-1.96041l1.23859,1.62918-.12161,2.127.00004.00004Z" fill="#998e82" stroke-width="0"/><path d="M538.97209,524.65519c1.80309-5.97988,2.30721-12.29279-1.57768-18.04642-6.49208-9.61418-18.64689-6.43501-25.34222-3.30879s-9.08112,9.9329-27.55169,19.28108c-4.6674,2.36221-28.39592,12.63248-21.80901,22.22271,4.73888,6.8996,20.66238,5.72601,36.03031,3.51101,13.12859-1.8922,21.6996-14.1106,24.76719-13.1435.44128.2483-.22861,1.82789.62531,2.28561,1.8734,1.00559,14.76479-4.8904,15.18219-7.47101.3672-2.27428.54352-3.04199-.32429-5.3307h-.00011Z" fill="#4a4c57" stroke-width="0"/></g><path d="M529.99409,464.4809c7.43721,11.43398-1.1282,32.55981,4.0028,39.66438,6.54831,9.06719-10.12569,17.02782-14.02351,16.26381-.91492-.17929.7127-2.6989,1.21712-4.68182.57232-2.24949-12.79541-7.8574-15.1313-6.28029-1.33499.90141,3.89679-2.99801,6.95881-4.71851,1.23791-.69561,2.76211-1.7474,3.1683-2.2311,2.5116-2.99-5.09392-31.53801-6.44009-34.80721s17.03461-8.14949,20.24792-3.20938l-.00004.00011Z" fill="#314058" stroke-width="0"/><path d="M559.68361,358.13568s-16.3995,77.3769-15.76,153.5458c.03632,4.3187-16.4555,9.29531-21.10931,9.50531-5.69069.25681-20.73299-4.89559-20.28961-12.91401,2.54341-45.9956-9.58832-115.64499-.00961-154.65191,7.72549-31.4603,57.16839,4.51481,57.16839,4.51481h.00015Z" fill="#3c4358" stroke-width="0"/><path d="M547.74319,432.6326c-4.17782-2.26971-13.90671-56.00258-5.22739-73.0637,3.83911-7.54662,76.3517-46.745,87.71439-37.53761l-79.86141,44.40498-2.62562,66.19629.00004.00004Z" fill="#1a1a1a" opacity=".05" stroke-width="0"/></g><path d="M701.7662,307.3966s5.00671,24.99861-2.69493,37.36509c-10.92392,17.54082-83.9299,69.561-130.02968,66.76708,0,0-17.8751-12.81391-22.066-44.944-.93449-7.16461,79.28211-51.8236,125.70499-56.78801,26.41312-2.82459,29.08546-2.40021,29.08546-2.40021l.00015.00004Z" fill="#3c4358" stroke-width="0"/><g><path d="M581.4167,565.45929s-3.699-.6786-4.1074-1.43219,2.65709-2.20829,2.65709-2.20829l1.38008,1.51119.07019,2.12929h.00004Z" fill="#998e82" stroke-width="0"/><path d="M595.1004,551.44241c1.2579-6.11778,1.19221-12.45049-3.1945-17.83131-7.33051-8.99132-19.15009-4.73179-25.53711-1.01608s-8.1509,10.70942-25.7058,21.68098c-4.436,2.77241-25.90439,17.1056-18.4816,26.06449,5.34019,6.44539,21.09371,3.84441,36.19999.2562,12.9052-3.06541,19.10229-17.97539,22.24442-17.28809.46181.2076-.06329,1.84109.82829,2.22012,1.95621.83302,14.2651-6.19862,14.4487-8.8063.16109-2.29809.26772-3.07861-.80238-5.28Z" fill="#4a4c57" stroke-width="0"/><path d="M585.5817,494.0564c7.43721,11.43398-1.1282,32.55981,4.0028,39.66438,6.54831,9.06719-10.12569,17.02782-14.02351,16.26381-.91492-.17929.7127-2.6989,1.21712-4.68182.57232-2.24949-12.79541-7.8574-15.1313-6.28029-1.33499.90141,3.89679-2.99801,6.95881-4.71851,1.23791-.69561,2.76211-1.7474,3.1683-2.2311,2.5116-2.99-5.09392-31.53801-6.44009-34.80721s17.03461-8.14949,20.24792-3.20938l-.00004.00011Z" fill="#314058" stroke-width="0"/><path d="M600.5204,355.66872s-4.3261,108.75648-3.6866,184.9255c.03632,4.3187-16.4555,9.29531-21.10931,9.50531-5.69069.25681-20.73299-4.89559-20.28961-12.91401,2.54341-45.9956-11.45161-117.06322-12.34779-156.9276-.8379-37.2702,57.43332-24.58912,57.43332-24.58912v-.00008Z" fill="#3c4358" stroke-width="0"/></g></g><g><g><path d="M575.57499,148.5139c-9.30962,12.6772-34.37832,107.7056-21.10561,107.3141s47.06989-59.0349,49.76662-99.7143c2.76569-41.71989-20.2557-19.0456-28.661-7.5998Z" fill="#363e58" stroke-width="0"/><path d="M594.14398,173.2308s-14.42379.7786-13.13221,15.8795c1.31351,15.3569,13.42892,56.1384,13.42892,56.1384l-.29671-72.0178v-.0001Z" fill="#000" opacity=".1" stroke-width="0"/></g><path d="M611.96739,316.2402s-3.12832-36.07361,2.53262-44.8889c2.29488-3.57361-.97179-16.25521,1.4286-16.4588,1.26369-.10719,24.94869,19.7473,54.6455,16.53151,16.92268-1.8325,20.14099-10.52099,20.84251-9.93139s2.88811,14.9902,2.88811,14.9902c5.73792,1.0092,14.04472,45.04009-7.69447,84.76139-11.15387,20.38021-74.64279-45.00389-74.64279-45.00389l-.00008-.00011Z" fill="#3c4358" stroke-width="0"/><polygon points="604.19258 148.4144 604.19258 148.4144 604.4788 145.2486 604.19258 148.4144" fill="#cdcdd5" stroke-width="0"/><path d="M632.02431,315.9223c.5286.12251.9885.60961,1.03241,1.09341l.7576,8.346c.0433.47668-.34599.76698-.87471.64461l-13.80901-3.19908c-.5286-.12249-.98831-.60951-1.03149-1.0862l-.7576-8.346c-.04391-.4838.34512-.77419.87379-.6518l13.80901,3.1991v-.00004Z" fill="#bebebe" stroke-width="0"/><polyline points="631.95881 324.1851 631.339 317.3575 619.19621 314.5443 619.81602 321.37199 631.95881 324.1851" fill="#4a4c57" stroke-width="0"/><path d="M691.8261,190.539c-.34126-10.28191-1.37878-18.56991-4.23569-26.36061-2.27127-6.1926-5.87891-12.6007-11.6748-18.323-8.67531-8.5652-17.1431-13.7828-30.66719-16.6927l-.54771-2.6981s-13.2645-2.6623-28.48801-1.621l-.47192,1.5554c-5.38311.3512-12.20409,2.0793-18.0027,8.5336-12.05582,13.4204-6.39,41.2905-4.25968,65.855,2.1302,24.5645,15.33089,6.7337,11.38981,59.65151-4.6991,63.09109,17.9546,50.44819,64.21963,53.0953,20.93018,1.1972,25.23323,4.83231,24.37668-5.0441-.96077-11.07889-.53757-14.121-3.70117-24.51651-.57892-1.9029-1.10741-4.08319-1.55197-6.61329-.76378-4.3453-1.27968-9.7271-1.37253-16.5448-.20111-14.71001,5.13908-65.7004,4.98734-70.2767l-.00008-.00002Z" fill="#ecf5fa" stroke-width="0"/><path d="M624.84402,143.9898c1.19068-1.8765,1.37341-5.2011,1.37341-5.2011l-3.67561-6.1998-4.5245,4.4221s-.53699,4.2856.8847,6.3894c.25219.3732.59219.6966,1.02119.9495l-7.96082,151.1875,13.19431,13.73381,17.46918-9.50871-18.11119-155.3977c.12138-.1066.23479-.2257.3294-.3751l-.00008.0001Z" fill="#4282B8" stroke-width="0"/><g><path d="M616.2001,124.6977l-4.01371-.1264-1.98002,1.4195c-5.5051,1.1003-11.93218,4.817-16.83041,8.6142,0,0-12.20718,16.7893-8.2806,62.06759,1.61221,18.59039,9.64062,45.88409,11.35361,60.0836.2774,2.30009.22148,10.55941.22148,10.55941l-.59158,13.74411s-.13458,2.4691-.35,6.51011c-.49911-.12091-.8984-.13281-1.12129.02859-1.34521.97441-3.71391,9.8979-2.58919,11.34081.34439.44161,1.51562,1.38941,2.98592,2.44061-1.07761,20.87669-14.5583,23.14369-14.27891,26.98109.62271,8.55438,7.20001,19.7065,12.6339,18.9069,4.31648-.6356,27.65911-37.30459,30.69431-66.80161.78571-7.635,1.82701-17.4884,1.41979-23.02521-.54119-7.36509-1.52611-7.24979-4.11129-9.9947-.79861-.8477-1.74809-1.9652-2.88639-3.66421-7.71648-11.51699-5.53169-119.3321-2.27551-119.0846l-.00011.00022Z" fill="#363e58" stroke-width="0"/><path d="M616.2001,124.6977l-4.01371-.1264-1.98002,1.4195-6.76231,7.3255,3.88279,3.8646-9.2881,1.892s.0885,105.3678,23.32321,108.3735c-.79861-.8477-1.74809-1.9652-2.88639-3.66421-7.71648-11.51699-5.53169-119.3321-2.27551-119.0846l.00004.0001Z" fill="#fff" opacity=".05" stroke-width="0"/><path d="M599.6957,303.1461c1.68152-5.39419,2.50259-10.46009,1.11271-12.2006s-5.0473-3.9822-6.20079-3.34681c-1.45481.80151-3.8636,10.02831-2.58942,11.34069,1.35632,1.397,7.1384,5.9358,7.6775,4.2067v.00002Z" fill="#fff" opacity=".05" stroke-width="0"/><g opacity=".05"><path d="M618.25481,250.8639c1.4925.47529,2.81269,2.183,2.9493,3.8043.13672,1.6218-.96119,2.5499-2.45369,2.0746s-2.81181-2.17331-2.94849-3.79511c-.13672-1.62121.96039-2.55911,2.45289-2.0837v-.0001Z" fill="#000" stroke-width="0"/></g><g opacity=".05"><path d="M616.65058,282.12761c1.4925.47529,2.81269,2.183,2.9493,3.8043.13672,1.6218-.96119,2.5499-2.45369,2.0746s-2.81181-2.17331-2.94849-3.79511c-.13672-1.62121.96039-2.55911,2.45289-2.0837v-.0001Z" fill="#000" stroke-width="0"/></g></g><path d="M616.7136,116.4975c-.99609,7.6364-3.47591,13.073,2.50092,15.188s20.54241,2.262,23.94489-1.2954c2.68944-2.8119-1.55006-18.4216-3.38902-19.8421s-23.05679,5.9495-23.05679,5.94951Z" fill="#ffc9ca" stroke-width="0"/><g><path d="M702.78572,296.0178c-6.00708-16.43261-7.12967-21.74221-8.06061-37.15349-.96199-15.9276-1.399-52.53799-2.95807-78.62881-.91301-15.2751-2.21024-26.9479-4.22333-28.7465-10.70953-9.568-28.10608-19.97849-33.52547-20.8068l-.00031-.001-9.31709-4.2167s-8.4288,105.45311-23.16742,121.1636c0,0,2.58968,34.6529,2.87392,37.31411,2.8957,27.10119,20.64362,78.09441,31.15051,83.39691,10.5069,5.30201,57.87064-22.88712,55.96741-37.20402-.74188-5.5798-4.90356-24.624-8.73947-35.11749l-.00008.00019Z" fill="#363e58" stroke-width="0"/><path d="M650.12917,193.36491l15.38422,2.49861-.41138-4.7439-13.59879-2.5617c-.44617,1.59189-.90431,3.19599-1.37398,4.80709l-.00008-.0001Z" fill="#fff" opacity=".05" stroke-width="0"/><path d="M661.35429,147.9049l-10.31776-4.1405,6.44379-3.1121-3.46222-9.9701-.00031-.001-9.31709-4.2167s-8.4288,105.45311-23.16742,121.1636c20.3878-2.3562,39.82094-99.7233,39.82094-99.7233l.00008.0001Z" fill="#fff" opacity=".05" stroke-width="0"/><path d="M654.7316,304.87631c-.73227,3.14289.43747,9.29079,2.82043,9.5686s28.05321-9.049,30.56671-12.54829-1.72821-11.36339-3.83797-10.95369-28.95714,11.3929-29.5491,13.9333l-.00008.0001Z" fill="#fff" opacity=".05" stroke-width="0"/><path d="M703.16811,297.51261c-6.00708-16.43259-8.49358-36.75631-9.42436-52.16749-.96199-15.92739-1.399-52.5378-2.95822-78.62869-8.29231,11.39-22.21291,34.22001-19.85893,56.54039,3.04131,28.8365,11.65192,67.4069,32.24152,74.25581v-.00002Z" fill="#000" opacity=".1" stroke-width="0"/></g><path d="M695.89783,165.03389c11.30058,26.18891-22.63924,102.20819-38.07648,113.41871-2.5666,1.8638-25.5415-11.5616-24.14082-12.4522,1.3599-.8647,18.23254-38.76511,27.67384-70.137,12.60933-41.8988,20.19562-64.0804,34.54353-30.82951h-.00008Z" fill="#363e58" stroke-width="0"/><g><path d="M593.6364,64.7712s-.49389,11.2918,1.79691,13.7715l5.33249-18.8089-7.1294,5.0375v-.0001Z" fill="#434856" stroke-width="0"/><path d="M597.5922,60.6157c-6.6721,9.4072.536,31.4131.536,31.4131,0,0-1.38939,26.6298,22.8952,33.7893,19.30557,5.6916,34.86061-15.1334,34.86061-15.1334,0,0,26.25252-51.3089-9.65714-63.3655-33.09601-11.112-41.96259,3.8893-48.63472,13.2965h.00004Z" fill="#ffd3d4" stroke-width="0"/><path d="M670.62309,67.3483c3.13248,18.65541-14.73877,43.3364-14.73877,43.3364,0,0-4.34647-6.2218-.88348-5.7934,4.3808.5418,9.79187-13.8493,4.94431-19.0389-4.84642-5.1897-8.7252,6.5108-8.7252,6.5108l-3.26729,5.1777-3.76694-18.0409s24.20853-25.4244,26.43723-12.1516l.00015-.0001Z" fill="#434856" stroke-width="0"/><path d="M611.91231,67.9404c2.1677-2.433,15.23869-6.8489,27.72419,12.0123,8.242,12.4508,18.93177,2.8907,18.13328,2.674-4.338-1.177-5.29068-6.4032-5.29068-6.4032,0,0,16.57822,3.6865,14.38309,1.6673-3.93372-3.6184-2.55013-5.5739-2.55013-5.5739,0,0,11.08566,1.7348,10.4512.23-3.33229-7.9029-8.36533-17.5768-10.19432-23.3199-1.79077-5.6232-21.89468-16.5686-30.20931-11.4558,0,0-12.3941-6.334-22.6255-2.8816-7.1154,2.401-17.08778,5.7239-18.71429,19.221-1.57688,13.0858-7.1611,22.1274-3.84949,21.6571s8.9072-10.8238,14.1478-11.2783,8.59409,3.4509,8.59409,3.4509l.00008.0001Z" fill="#3d4356" stroke-width="0"/></g><g><polygon points="614.5866 129.6185 615.33161 124.2986 622.54181 132.589 614.61769 140.3339 614.5866 129.6185" fill="#ecf5fa" stroke-width="0"/><polygon points="629.81892 144.8638 622.54181 132.589 643.66386 122.6594 644.70093 126.4647 644.03931 130.6129 629.81892 144.8638" fill="#ecf5fa" stroke-width="0"/><polygon points="614.5866 129.6185 615.33161 124.2986 622.54181 132.589 614.61769 140.3339 614.5866 129.6185" fill="#fff" opacity=".5" stroke-width="0"/><polygon points="629.81892 144.8638 622.54181 132.589 643.66386 122.6594 644.70093 126.4647 644.03931 130.6129 629.81892 144.8638" fill="#fff" opacity=".5" stroke-width="0"/></g></g></g><g><g><polygon points="770.75523 613.99311 251.1397 313.99309 .0008 458.98891 111.5853 523.4127 40.4842 564.46369 118.4261 609.46369 189.52709 568.4127 306.4571 635.92178 231.09209 679.43382 309.034 724.43382 384.39899 680.92178 519.61498 758.98888 770.75523 613.99311" fill="#1a1a1a" opacity=".05" stroke-width="0"/><polygon points="720.13512 490.64232 642.19322 445.64232 564.25251 490.6411 642.19559 535.6411 720.13512 490.64232" fill="#1a1a1a" opacity=".05" stroke-width="0"/></g><g><polygon points="737.4556 618.5817 744.77493 614.35589 744.77493 369.69791 737.4556 373.92368 737.4556 618.5817" fill="#b9cce3" stroke-width="0"/><polygon points="730.13634 614.35589 737.4556 618.5817 737.4556 373.92368 730.13634 369.69791 730.13634 614.35589" fill="#c4d2e3" stroke-width="0"/></g><g><polygon points="519.61521 744.38759 526.93451 740.16182 526.93451 495.50381 519.61521 499.72961 519.61521 744.38759" fill="#b9cce3" stroke-width="0"/><polygon points="512.29599 740.16182 519.61521 744.38759 519.61521 499.72961 512.29599 495.50381 512.29599 740.16182" fill="#c4d2e3" stroke-width="0"/></g><g><polygon points="251.0614 337.82951 258.3807 333.60371 258.3807 88.9456 251.0614 93.1714 251.0614 337.82951" fill="#b9cce3" stroke-width="0"/><polygon points="243.7421 333.60371 251.0614 337.82951 251.0614 93.1714 243.7421 88.9456 243.7421 333.60371" fill="#c4d2e3" stroke-width="0"/></g><g><polygon points="33.4855 463.5775 40.8048 459.35169 40.8048 214.6936 33.4855 218.91939 33.4855 463.5775" fill="#b9cce3" stroke-width="0"/><polygon points="26.1662 459.35169 33.4855 463.5775 33.4855 218.91939 26.1662 214.6936 26.1662 459.35169" fill="#c4d2e3" stroke-width="0"/></g></g><g><g><g><path d="M389.4875,580.52761c-.0135.01251-.01781.03109-.02659.0473l-10.80502.9375,7.533,2.77229c-13.6655,22.59129-25.87822,4.54788-27.4995,5.0666-1.66821.53379-6.30249,12.82372-2.52102,22.90791.82008,2.18681.72159,2.45991,2.1059,3.80711.0713.78171.2227,1.61598.5249,2.34219.87231,2.0948,7.0713,5.4221,13.03539,5.4221s17.18948-9.8576,17.18948-9.8576v-2.23251c5.2874-3.46699,10.56572-6.6581,12.9253-6.78829,4.64008-.256,27.32979-15.60081,27.32979-24.42451s-29.8027-9.2588-39.79172,0l.00008-.00008Z" fill="#4a4c56" stroke-width="0"/><path d="M387.1994,584.16061l-8.06549-2.62661c.0293-1.07391.05299-2.14748.09499-3.20011.30182-7.54082,3.50712-19.5306-3.45291-19.69429s-16.16989-4.37199-16.68598,17.13821c0,0-.31349,13.41751,0,15.3611s3.44181,5.87811,14.85298,5.87811c2.72678,0,6.2471-1.55918,6.2471-1.55918,0,0,7.77691-2.89131,10.55721-8.05458l-3.5479-3.24268v.00004Z" fill="#ffd6d6" stroke-width="0"/></g><path d="M390.42171,425.8997c3.27511,11.85261,1.69579,66.78791,2.33528,142.95681.03632,4.3187-16.4555,18.31718-21.10931,18.52718-5.69069.25681-20.73299-4.89559-20.28961-12.91401,2.54341-45.9956-17.51389-90.04051-18.68649-129.8978-2.0163-68.53691,54.47502-30.52479,57.75009-18.67222l.00004.00004Z" fill="#3c4358" stroke-width="0"/><path d="M362.99648,427.81029c-9.34109-2.1632-.98331-20.1572,9.63612-20.05878s11.996-1.2785,14.6508,3.1464-8.35781,19.46899-15.0441,20.64888-9.24278-3.7365-9.24278-3.7365h-.00004Z" fill="#ffd3d4" stroke-width="0"/></g><g><g><path d="M441.90609,611.67709c-.0135.01251-.01781.03109-.02659.0473l-10.80502.9375,7.533,2.77229c-13.6655,22.59129-25.87822,4.54788-27.4995,5.0666-1.66821.53379-6.30249,12.82372-2.52102,22.90787.82008,2.18681.72159,2.45987,2.1059,3.80707.0713.78171.2227,1.61598.5249,2.34222.87231,2.0948,7.0713,5.42213,13.03539,5.42213s17.18948-9.85764,17.18948-9.85764v-2.23251c5.2874-3.46699,10.56572-6.6581,12.9253-6.78829,4.64008-.256,27.32979-15.60081,27.32979-24.42451s-29.8027-9.2588-39.79172,0l.00008-.00004Z" fill="#4a4c56" stroke-width="0"/><path d="M439.618,615.31021l-8.06549-2.62661c.0293-1.07391.05299-2.14748.09499-3.20011.30182-7.54082,3.50712-19.5306-3.45291-19.69429s-16.16989-4.37199-16.68598,17.13821c0,0-.31349,13.41751,0,15.3611s3.44181,5.87811,14.85298,5.87811c2.72678,0,6.2471-1.55918,6.2471-1.55918,0,0,7.77691-2.89131,10.55721-8.05458l-3.5479-3.24268v.00004Z" fill="#ffd6d6" stroke-width="0"/></g><path d="M442.08351,454.87671c4.69299,11.49651,1.69579,70.3471,2.33528,146.51611.03632,4.3187-16.4555,14.18152-21.10931,14.39152-5.69069.25681-20.73299-4.89559-20.28961-12.91401,2.54341-45.9956-16.89831-98.25752-16.01669-138.12229.68619-31.02619,50.38731-21.3678,55.0803-9.87129l.00004-.00004Z" fill="#3c4358" stroke-width="0"/></g><g><path d="M307.00859,713.39256c-1.3809,0-2.5-1.11908-2.5-2.5v-131.99409c0-1.38088,1.1191-2.5,2.5-2.5s2.5,1.11912,2.5,2.5v131.99409c0,1.38092-1.1191,2.5-2.5,2.5Z" fill="#bbb4b4" stroke-width="0"/><path d="M240.57011,679.30183c-.04101,0-.082-.00099-.123-.0029-1.37991-.06737-2.44341-1.23932-2.376-2.61818l5.44041-131.84082c.06741-1.3789,1.2656-2.44629,2.6182-2.37598,1.37991.06741,2.44341,1.23932,2.376,2.61822l-5.44041,131.84082c-.0654,1.33789-1.16989,2.37892-2.4951,2.37892l-.0001-.00008Z" fill="#bbb4b4" stroke-width="0"/><path d="M378.447,679.30183c-1.32519,0-2.4297-1.04103-2.49512-2.37892l-5.44041-131.84082c-.06741-1.3789.99609-2.55081,2.37598-2.61822,1.35059-.0742,2.55081.99609,2.61822,2.37598l5.44041,131.84082c.06741,1.37894-.99609,2.55081-2.37598,2.61818-.04101.00198-.08202.0029-.12299.0029l-.00011.00008Z" fill="#bbb4b4" stroke-width="0"/><path d="M301.00861,644.38667c-1.3809,0-2.5-1.11908-2.5-2.5v-131.99409c0-1.38088,1.1191-2.5,2.5-2.5s2.5,1.11912,2.5,2.5v131.99409c0,1.38092-1.1191,2.5-2.5,2.5Z" fill="#bbb4b4" stroke-width="0"/><path d="M296.0977,578.43719l-52.11821-30.09048c-7.1311-4.1172-6.2368-11.30871,1.99751-16.06281l48.1209-27.78259c8.23429-4.7541,20.6904-5.27039,27.82162-1.1533l52.11819,30.09048c7.13112,4.1172,6.2368,11.30871-1.99749,16.06281l-48.12092,27.78259c-8.23429,4.7541-20.6904,5.27039-27.8216,1.1533Z" fill="#bbb4b4" stroke-width="0"/></g><path d="M253.6017,509.55391s-20.9816,19.9844,37.3531,42.81101c69,27.00001,153.05742-85.08442,153.05742-85.08442,0,0,2.48669-40.51102-41.6116-25.7037-36.1948,12.15351-148.7989,67.9771-148.7989,67.9771h-.00002Z" fill="#3c4358" stroke-width="0"/></g><path d="M408.80798,452.69878c-9.34109-2.1632-.98331-20.1572,9.63612-20.05878s11.28231-.7626,14.6508,3.1464c6.96281,8.07991-8.35781,19.46899-15.0441,20.64892s-9.24278-3.7365-9.24278-3.7365l-.00004-.00004Z" fill="#ffd3d4" stroke-width="0"/><g><path d="M163.42529,487.60632c.31719,2.49481,3.62789,6.59821,3.62789,9.8299s-1.0018,8.13351.1433,8.60352c.64819.266,2.421-.07778,3.0942-1.02039s-1.7638-10.1302,2.2085-13.42918-9.074-3.98369-9.074-3.98369l.00011-.00015Z" fill="#3b435a" stroke-width="0"/><path d="M165.387,468.00419s-6.7573,10.34969-3.72789,18.42812,10.3109,9.14459,14.3844,6.93989,14.7823,4.15031,26.8635.50411c6.68221-2.01672,20.44291-12.0734,15.26649-16.8869-1.94269-1.80649-15.2224-.6007-24.408,3.58711-4.95029,2.25689-11.72541-3.55461-17.5824-7.26189s-10.79599-5.3104-10.79599-5.3104l-.00011-.00004Z" fill="#3b435a" stroke-width="0"/><path d="M151.2367,373.08041c-3.1231,18.106,18.6217,82.8281,12.40901,98.11802-.8939,2.20001,4.71439.16571,12.4971,5.042,2.2632,1.418,4.3552,7.06749,11.1875,7.34241,10.3562.4166,18.689.83721,12.87569-2.2942-1.60801-.8662-17.59871-5.369-19.58481-10.40852-4.12069-10.45609,2.80729-121.15471,2.80729-121.15471,0,0-29.0687,5.24899-32.1919,23.35499h.00011Z" fill="#ffd6d6" stroke-width="0"/></g><g><path d="M200.74089,512.69199c.31719,2.49481,3.62789,6.59821,3.62789,9.8299s-1.0018,8.13351.1433,8.60352c.64819.266,2.421-.07778,3.0942-1.02039s-1.7638-10.1302,2.2085-13.42918-9.074-3.98369-9.074-3.98369l.00011-.00015Z" fill="#3b435a" stroke-width="0"/><path d="M202.7025,493.0899s-6.7573,10.34969-3.72789,18.42812,10.3109,9.14459,14.3844,6.93989,14.7823,4.15031,26.8635.50411c6.68221-2.01672,20.44291-12.0734,15.26649-16.8869-1.94269-1.80649-15.2224-.6007-24.408,3.58711-4.95029,2.25689-11.72541-3.55461-17.5824-7.26189s-10.79599-5.3104-10.79599-5.3104l-.00011-.00004Z" fill="#3b435a" stroke-width="0"/><path d="M188.55221,398.16608c-3.12309,18.106,18.62169,82.8281,12.409,98.11802-.8939,2.20001,4.71439.16571,12.4971,5.042,2.2632,1.418,4.3552,7.06749,11.1875,7.34241,10.3562.4166,18.689.83721,12.87571-2.2942-1.60801-.8662-17.59871-5.369-19.58481-10.40852-4.12069-10.45609,2.80729-121.15471,2.80729-121.15471,0,0-29.0687,5.24899-32.19191,23.35499h.00011Z" fill="#ffd6d6" stroke-width="0"/></g><path d="M158.9883,421.50299c24.4264,11.72798,37.6148,13.92189,41.81221,5.98728s18.9286,1.75159,19.6348-16.65218,2.9454-38.60321.8572-45.05081-.8572,1.30138-.8572,1.30138l-28.4898,16.0783-32.9571,38.33591-.00011.00011Z" fill="#3c4358" stroke-width="0"/><g><path d="M116.4001,598.4227c-1.3809,0-2.5-1.11912-2.5-2.5v-131.99409c0-1.38088,1.1191-2.5,2.5-2.5s2.5,1.11912,2.5,2.5v131.99409c0,1.38088-1.1191,2.5-2.5,2.5Z" fill="#bbb4b4" stroke-width="0"/><path d="M49.9616,564.33189c-.041,0-.082-.00099-.123-.0029-1.3799-.06741-2.4434-1.23932-2.376-2.61822l5.4404-131.84078c.0674-1.3789,1.2656-2.44629,2.6182-2.37598,1.3799.06741,2.4434,1.23932,2.376,2.61822l-5.4404,131.84082c-.0654,1.33789-1.1699,2.37888-2.4951,2.37888l-.0001-.00004Z" fill="#bbb4b4" stroke-width="0"/><path d="M187.83859,564.33189c-1.32521,0-2.4297-1.04099-2.4951-2.37888l-5.44041-131.84078c-.06741-1.3789.99609-2.55081,2.376-2.61822,1.35059-.0742,2.55079.99609,2.6182,2.37598l5.44041,131.84082c.06741,1.3789-.99609,2.55081-2.376,2.61822-.04101.00198-.082.0029-.123.0029l-.0001-.00004Z" fill="#bbb4b4" stroke-width="0"/><path d="M110.4001,529.41689c-1.3809,0-2.5-1.11912-2.5-2.5v-131.99409c0-1.38088,1.1191-2.5,2.5-2.5s2.5,1.11912,2.5,2.5v131.99409c0,1.38088-1.1191,2.5-2.5,2.5Z" fill="#bbb4b4" stroke-width="0"/><path d="M105.4892,463.46729l-52.1182-30.09048c-7.1311-4.1172-6.2368-11.30871,1.9975-16.06281l48.1209-27.78259c8.2343-4.7541,20.6904-5.27039,27.8216-1.1533l52.11821,30.09048c7.1311,4.1172,6.2368,11.30871-1.99751,16.06281l-48.1209,27.78259c-8.2343,4.7541-20.6904,5.27039-27.8216,1.1533Z" fill="#bbb4b4" stroke-width="0"/></g><path d="M162.01691,426.29398c35.7942-16.5435,63.44509-34.83349,59.27559-60.50659-4.1695-25.67322-70.1665-29.93931-82.785-25.2383s-56.9908,25.3091-58.001,38.40012c-1.0101,13.09101,58.35011,58.04909,81.51041,47.34482v-.00004Z" fill="#3c4358" stroke-width="0"/><path d="M221.8268,342.97058c-1.6284,2.46929-2.5296,8.42709,1.3723,14.80171,4.0517,6.6193,10.72229,3.6446,11.8149,2.48482,7.4296-7.88719,4.4569-13.90652,1.4337-19.49162s-11.23171-2.93419-14.6209,2.20509Z" fill="#ffd3d4" stroke-width="0"/><path d="M155.8369,373.6998c7.4573,12.1167,76.67251-11.53389,75.37381-19.26239-1.2055-7.1735-48.6986-4.01852-66.2196,4.0741s-9.1542,15.18829-9.1542,15.18829h-.00002Z" fill="#ffd3d4" stroke-width="0"/><path d="M342.41779,480.06561c7.37171,12.169,77.05269-20.56339,74.77959-31.58371-1.41788-6.87469-47.94102,8.4914-65.51861,16.4603s-9.26109,15.12341-9.26109,15.12341h.00011Z" fill="#ffd3d4" stroke-width="0"/><g><g><polygon points="519.61521 514.6936 519.61521 521.58718 770.75523 376.59149 770.75523 369.69791 519.61521 514.6936" fill="#b9cce3" stroke-width="0"/><polygon points="0 214.6936 0 221.5872 519.61521 521.58718 519.61521 514.6936 0 214.6936" fill="#c4d2e3" stroke-width="0"/><polygon points="519.61521 514.6936 0 214.6936 251.14 69.6979 770.75523 369.69791 519.61521 514.6936" fill="#ced7e3" stroke-width="0"/></g><g><polygon points="530.369 356.23959 482.73899 328.74039 409.99279 370.74039 457.6228 398.23959 530.369 356.23959" fill="#efefef" stroke-width="0"/><g><path d="M505.47829,360.07198l-31.34659-18.09799c-.39291-.22678-.3933-.59448,0-.8215s1.03001-.22678,1.42288,0l31.34659,18.09799c.39291.22678.3933.59448,0,.8215s-1.03001.22678-1.42288,0Z" fill="#c6c6c6" stroke-width="0"/><path d="M498.6327,364.0242l-31.34659-18.09799c-.39291-.22678-.3933-.59448,0-.8215s1.03001-.22678,1.42288,0l31.34659,18.09799c.39291.22678.3933.59448,0,.8215s-1.03001.22678-1.42288,0Z" fill="#c6c6c6" stroke-width="0"/><path d="M491.78719,367.97649l-31.34659-18.09799c-.39291-.22678-.3933-.59448,0-.8215s1.03001-.22678,1.42288,0l31.34659,18.09799c.39291.22678.3933.59448,0,.8215s-1.03001.22678-1.42288,0Z" fill="#c6c6c6" stroke-width="0"/><path d="M484.9424,371.92829l-31.34659-18.09799c-.39291-.22678-.3933-.59448,0-.8215s1.03001-.22678,1.42288,0l31.34659,18.09799c.39291.22678.3933.59448,0,.8215s-1.03001.22678-1.42288,0Z" fill="#c6c6c6" stroke-width="0"/><path d="M478.09689,375.88058l-31.34659-18.09799c-.39291-.22678-.3933-.59448,0-.8215s1.03001-.22678,1.42288,0l31.34659,18.09799c.39291.22678.3933.59448,0,.8215s-1.03001.22678-1.42288,0Z" fill="#c6c6c6" stroke-width="0"/><path d="M467.22801,382.1558l-15.67329-9.049c-.39291-.22678-.3933-.59448,0-.8215s1.03001-.22678,1.42288,0l15.67329,9.049c.39291.22678.3933.59448,0,.8215s-1.03001.22678-1.42288,0Z" fill="#c6c6c6" stroke-width="0"/></g></g><g><path d="M444.14829,359.68029c-.57339-1.73069-2.51148-3.01731-4.32899-2.87392-.83969.0663-1.49521.43468-1.9133.97328l-.0082-.0061-11.53561,13.67699.00702.00462c-.47249.6255-.62462,1.47781-.3199,2.39719.57339,1.73069,2.51148,3.01731,4.32899,2.87392.93781-.07401,1.6539-.51819,2.05471-1.16489l.00359.0024,11.32172-13.37891-.0132-.00999c.53589-.6321.7246-1.52512.4034-2.49458h-.00023Z" fill="#000" opacity=".1" stroke-width="0"/><g><path d="M444.14829,358.7022c.57339,1.73061-.43522,3.2497-2.25262,3.3931s-3.75561-1.1433-4.32899-2.8738.43522-3.2497,2.25262-3.3931,3.75561,1.1433,4.32899,2.8738Z" fill="#545456" stroke-width="0"/><polygon points="437.8978 356.7955 426.36219 370.47249 432.43649 374.58591 443.7582 361.20689 437.8978 356.7955" fill="#545456" stroke-width="0"/><path d="M432.63081,372.35519c.57339,1.73061-.43522,3.2497-2.25262,3.3931s-3.75561-1.1433-4.32899-2.8738.43522-3.2497,2.25262-3.3931,3.75561,1.1433,4.32899,2.8738Z" fill="#bf272d" stroke-width="0"/></g></g><g><polygon points="142.5963 182.0735 142.5367 178.9679 196.0784 157.2562 196.0784 159.8282 142.5963 182.0735" fill="#bdbdbd" stroke-width="0"/><path d="M158.9196,164.4838c-13.6313,7.8701-20.0291,16.93621-14.2897,20.24981s21.44239-.3801,35.0737-8.2502,20.02911-16.9362,14.2897-20.24981-21.44239.3801-35.0737,8.2502Z" fill="#3d4356" stroke-width="0"/><path d="M158.9196,162.48381c-13.6313,7.8701-20.0291,16.93621-14.2897,20.24981s21.44239-.3801,35.0737-8.2502,20.02911-16.9362,14.2897-20.24981-21.44239.3801-35.0737,8.2502Z" fill="#434856" stroke-width="0"/><polygon points="105.1781 211.24519 243.7421 131.2452 234.2161 125.7454 95.6521 205.74539 105.1781 211.24519" fill="#000" opacity=".05" stroke-width="0"/><polygon points="163.2494 173.48301 175.3738 166.483 175.3738 123.4843 163.2494 130.4843 163.2494 173.48301" fill="#434856" stroke-width="0"/><polygon points="160.6513 171.98299 163.2494 173.48301 163.2494 130.4843 160.6513 128.9843 160.6513 171.98299" fill="#3d4356" stroke-width="0"/><path d="M103.3116,181.9836l126.9519-77.50151c2.39149-1.3807,4.3301-5.0849,4.3301-8.2735l3.71799-92.225c0-3.1886-5.6566-4.8792-8.0481-3.4985L100.3597,75.4851c-2.3915,1.3807-4.3301,5.0849-4.3301,8.2735v92.44989c0,3.18859,4.8906,7.1557,7.282,5.77499v.00011Z" fill="#3d4356" stroke-width="0"/><path d="M238.5936,92.7331v5.9998c0,2.7613-1.93871,6.1191-4.3301,7.4999l-129.9038,75c-2.3915,1.38069-4.3301.2615-4.3301-2.4999v-5.99979l138.5641-80h-.0001Z" fill="#434856" stroke-width="0"/><g><path d="M104.3597,77.4851l41.1362-23.75L234.2635,2.4851c2.39149-1.3807,4.3301-.2615,4.3301,2.4999v87.9974l-93.0977,53.75-45.4663,26.25001v-87.9974c0-2.7613,1.9386-6.1191,4.3301-7.49991Z" fill="#4d4d4d" stroke-width="0"/><path d="M104.3597,80.4851l37.6721-21.75L234.2635,5.4851c.9552-.5515,1.7321-.1031,1.7321.9999v84.99751l-93.9638,54.25-39.4042,22.75001v-84.9974c0-1.103.7772-2.4487,1.7321-2.9999v-.00012Z" fill="#fff" stroke-width="0"/><g><polygon points="195.9351 76.8768 203.58931 72.4576 203.58931 93.5922 195.9351 98.0114 195.9351 76.8768" fill="#4282B8" stroke-width="0"/><polygon points="180.9594 78.9905 188.61361 74.5713 188.61361 102.2384 180.9594 106.6576 180.9594 78.9905" fill="#4282B8" stroke-width="0"/><polygon points="165.9837 90.7108 173.63791 86.2916 173.63791 110.8846 165.9837 115.3038 165.9837 90.7108" fill="#4282B8" stroke-width="0"/><polygon points="151.008 87.8577 158.6622 83.4385 158.6622 119.5309 151.008 123.95 151.008 87.8577" fill="#4282B8" stroke-width="0"/><polygon points="136.0322 90.7113 143.6865 86.2921 143.6865 128.1771 136.0322 132.5963 136.0322 90.7113" fill="#4282B8" stroke-width="0"/><path d="M126.0485,139.3605c-.1729,0-.3452-.0444-.5-.1338-.3096-.1787-.5-.5088-.5-.8662v-57.5103c0-.5522.4478-1,1-1s1,.4478,1,1v55.77829l85.02639-49.0903c.4771-.2773,1.0894-.1118,1.3662.3662.2759.4785.1123,1.0898-.36619,1.3662l-86.5264,49.9561c-.1548.0894-.3271.1338-.49999.13381Z" fill="#cfcfcf" stroke-width="0"/></g></g></g><g><polygon points="621.05701 417.15679 573.42701 389.65771 500.68081 431.65771 548.31081 459.1568 621.05701 417.15679" fill="#4282B8" stroke-width="0"/><polygon points="621.05701 417.15679 573.42701 389.65771 500.68081 431.65771 548.31081 459.1568 621.05701 417.15679" fill="#fff" opacity=".3" stroke-width="0"/><polygon points="628.85109 418.65681 581.22108 391.15761 508.47488 433.15762 556.10489 460.65681 628.85109 418.65681" fill="#4282B8" stroke-width="0"/><polygon points="628.85109 418.65681 581.22108 391.15761 508.47488 433.15762 556.10489 460.65681 628.85109 418.65681" fill="#fff" opacity=".4" stroke-width="0"/><polygon points="636.64509 420.15671 589.01508 392.65751 516.269 434.65752 563.899 462.15672 636.64509 420.15671" fill="#4282B8" stroke-width="0"/><polygon points="636.64509 420.15671 589.01508 392.65751 516.269 434.65752 563.899 462.15672 636.64509 420.15671" fill="#fff" opacity=".5" stroke-width="0"/><g><polygon points="586.02112 435.5595 560.38071 420.756 577.40719 410.92579 603.04749 425.72929 586.02112 435.5595" fill="#eff6fa" stroke-width="0"/><path d="M568.56758,447.25479l-28.44379-16.422c-.9618-.55531-.96199-1.45569,0-2.01111s2.52151-.55531,3.48331,0l28.44379,16.422c.9618.55531.96199,1.45569,0,2.01111s-2.52151.55531-3.48331,0Z" fill="#eff6fa" stroke-width="0"/><path d="M577.20829,443.40542l-30.4171-17.5613c-.481-.27771-.481-.72781,0-1.00552s1.26068-.27771,1.74171,0l30.4171,17.5613c.481.27771.481.72781,0,1.00552s-1.26068.27771-1.74171,0Z" fill="#eff6fa" stroke-width="0"/><polygon points="570.8548 407.14279 609.59991 429.51229 600.9272 412.15 570.8548 407.14279" fill="#eff6fa" stroke-width="0"/><polygon points="605.4052 423.50109 600.05459 420.41199 608.1612 415.73158 613.5117 418.8208 605.4052 423.50109" fill="#eff6fa" stroke-width="0"/></g></g><g><polygon points="314.61399 208.9838 341.19209 193.6389 335.34721 190.2644 308.76921 205.60921 314.61399 208.9838" fill="#000" opacity=".05" stroke-width="0"/><polygon points="340.65239 189.1119 340.65239 193.9496 340.1128 193.638 340.1128 188.8003 340.65239 189.1119" fill="#b9cce3" stroke-width="0"/><polygon points="327.63321 196.62939 327.63321 201.46709 327.09358 201.15549 327.09358 196.31781 327.63321 196.62939" fill="#b9cce3" stroke-width="0"/><polygon points="386.68991 164.715 344.1502 140.1547 257.2958 190.3001 299.83549 214.8604 386.68991 164.715" fill="#000" opacity=".05" stroke-width="0"/><polygon points="299.83561 210.76691 379.5998 164.7151 344.15009 144.2482 264.38589 190.30001 299.83561 210.76691" fill="#efefef" stroke-width="0"/><polygon points="299.83561 210.76691 379.5998 164.7151 379.5998 123.7812 299.83561 169.83311 299.83561 210.76691" fill="#eff6fa" stroke-width="0"/><polygon points="362.20459 164.3985 371.06731 159.2816 371.06731 147.0016 362.20459 152.1184 362.20459 164.3985" fill="#b9cce3" stroke-width="0"/><polygon points="314.61399 203.53201 341.19209 188.1872 335.34721 184.8126 308.76921 200.15751 314.61399 203.53201" fill="#ced7e3" stroke-width="0"/><polygon points="314.6142 204.146 314.6142 203.53201 308.76921 200.15739 308.76921 200.77141 314.6142 204.146" fill="#b9cce3" stroke-width="0"/><polygon points="314.61399 204.146 341.19209 188.80119 341.19209 188.1872 314.61399 203.53201 314.61399 204.146" fill="#c4d2e3" stroke-width="0"/><polygon points="308.76921 200.15751 335.34721 184.8126 335.34721 162.56901 308.76921 177.91389 308.76921 200.15751" fill="#b9cce3" stroke-width="0"/><polygon points="264.38589 190.2994 299.8366 210.76691 299.8366 170.95739 282.1113 138.7691 266.41701 149.1468 264.38589 150.4899 264.38589 190.2994" fill="#dbebf4" stroke-width="0"/><polygon points="279.5303 141.3501 259.77341 154.4142 258.25991 153.5403 279.5303 139.4755 300.8008 178.10141 299.2873 177.2275 279.5303 141.3501" fill="#c4d2e3" stroke-width="0"/><polygon points="279.5303 141.3501 259.77341 154.4142 258.25991 153.5403 279.5303 139.4755 300.8008 178.10141 299.2873 177.2275 279.5303 141.3501" fill="#000" opacity=".1" stroke-width="0"/><polygon points="366.3834 89.3301 387.65388 127.956 345.11299 103.395 366.3834 89.3301" fill="#4282B8" stroke-width="0"/><g><polygon points="283.1076 190.7937 291.97029 195.91061 291.97029 183.6306 283.1076 178.5137 283.1076 190.7937" fill="#b9cce3" stroke-width="0"/><polygon points="272.25229 184.52641 281.115 189.64331 281.115 177.3632 272.25229 172.2464 272.25229 184.52641" fill="#b9cce3" stroke-width="0"/></g><g><polygon points="342.3893 186.16949 356.35319 178.1074 356.35319 151.3615 342.3893 159.4236 342.3893 186.16949" fill="#c4d2e3" stroke-width="0"/><polygon points="347.9491 180.3978 350.79342 178.75561 350.79342 157.1732 347.9491 158.8153 347.9491 180.3978" fill="#b9cce3" stroke-width="0"/><path d="M353.93181,172.815v-1.2269c0-.14629.07801-.28139.2047-.3546.05939-.0342.12508-.05239.1915-.05461.4805-.9498.34519-6.1075-.1915-6.61921-.12669-.0732-.2047-.2083-.2047-.3546v-1.2269c0-.2261.1833-.40939.40939-.40939s.40939.1833.40939.40939v1.05419c.3936.48809.6218,1.6832.67959,3.563.04459,1.4477-.0428,3.3795-.4353,4.0593-.07141.12369-.15511.21271-.24429.2722v.88791c0,.2261-.1833.40939-.40939.40939s-.40939-.1833-.40939-.40939v.00021ZM354.27021,171.2665h.00198-.00198Z" fill="#b9cce3" stroke-width="0"/></g><polygon points="314.61399 204.146 314.61399 208.9838 315.15369 208.6722 315.15369 203.8345 314.61399 204.146" fill="#c4d2e3" stroke-width="0"/><polygon points="327.63321 196.62939 327.63321 201.46709 328.17291 201.15549 328.17291 196.31781 327.63321 196.62939" fill="#c4d2e3" stroke-width="0"/><polygon points="314.61399 204.146 314.61399 208.9838 314.0744 208.6722 314.0744 203.8345 314.61399 204.146" fill="#b9cce3" stroke-width="0"/><polygon points="340.65239 189.1119 340.65239 193.9496 341.19209 193.638 341.19209 188.8003 340.65239 189.1119" fill="#c4d2e3" stroke-width="0"/><polygon points="366.3834 89.3301 381.2048 116.2447 387.65388 127.9559 300.8008 178.10129 294.35129 166.38941 279.5303 139.4755 366.3834 89.3301" fill="#c4d2e3" stroke-width="0"/></g><g><g><path d="M469.69349,390.96352l-2.5412,2.5412,3.15842-.73879c.1012-1.19122.72269-2.6593,1.43009-4.1729-1.4283.70751-2.83581,1.28658-4.1729,1.43009l-.73879,3.15842,2.5412-2.5412.3233.3233-.00011-.00011Z" fill="#d3c2a8" stroke-width="0"/><polygon points="467.15229 393.50471 469.69349 390.96352 469.37019 390.64018 466.82899 393.18138 466.73031 393.6034 467.15229 393.50471" fill="#4a4c56" stroke-width="0"/><circle cx="469.58569" cy="390.74799" r=".53329" fill="#4a4c56" stroke-width="0"/></g><g><path d="M504.5639,358.2238c.9161-.9161-1.53801-3.37021-2.45411-2.45411,0,0-.50739.47409-1.37379,1.28479l2.54311,2.54311c.8107-.86639,1.28479-1.37379,1.28479-1.37379Z" fill="#545456" stroke-width="0"/><path d="M479.16969,377.48291c-.28889.28889-.58182.58762-.87662.89291l3.66482,3.66482c.30529-.2948.60398-.58769.89291-.87662,3.42812-3.42812,15.3817-16.175,19.93401-21.03821l-2.5769-2.5769c-4.8632,4.55231-17.61009,16.50589-21.03821,19.93401Z" fill="#545456" stroke-width="0"/><path d="M470.12749,387.67658c-.18799.22999-.17052.56419.03948.77419l.85789.85789.85789.85789c.21.21.54428.22751.77419.03948,1.24088-1.01421,5.10872-4.21131,8.46298-7.36729l-3.6253-3.6253c-3.15609,3.35419-6.35319,7.2221-7.36729,8.46298l.00015.00015Z" fill="#545456" stroke-width="0"/><path d="M477.49481,379.2136l3.6253,3.6253c.28358-.26691.56339-.53341.83778-.7983l-3.66482-3.66482c-.26489.27439-.53139.5542-.7983.83778l.00004.00004Z" fill="#c6ad91" stroke-width="0"/><path d="M500.73608,357.05448c-.16361.15308-.34.31811-.52818.49438l2.5769,2.5769c.1762-.18822.3413-.36461.49438-.52818l-2.54311-2.54311Z" fill="#c6ad91" stroke-width="0"/></g><path d="M500.7806,357.30358s-.28549-.6945-.90961-.09159-7.06612,6.22681-7.16839,6.53351.10231.71579.71579.9203c.6237.2079,7.36221-7.36221,7.36221-7.36221Z" fill="#c6ad91" stroke-width="0"/></g><g><polygon points="474.0839 321.48998 426.4539 293.9908 353.70781 335.99079 401.33781 363.48999 474.0839 321.48998" fill="#efefef" stroke-width="0"/><g><path d="M449.19319,325.32242l-31.34659-18.09799c-.39291-.2268-.3933-.5945,0-.8215s1.03001-.2268,1.42288,0l31.34659,18.09799c.39291.22678.3933.59448,0,.8215s-1.03001.22678-1.42288,0Z" fill="#c6c6c6" stroke-width="0"/><path d="M442.34772,329.2746l-31.34659-18.09799c-.39291-.2268-.3933-.5945,0-.8215s1.03001-.2268,1.42288,0l31.34659,18.09799c.39291.22678.3933.59448,0,.8215s-1.03001.22678-1.42288,0Z" fill="#c6c6c6" stroke-width="0"/></g><g><path d="M408.29189,353.12729l-35.22541-20.33741c-.47829-.27611-.47871-.72361,0-.99998l26.7065-15.41901c.47871-.27639,1.25381-.27611,1.73199,0s.47871.72359,0,1l-25.84049,14.91899,34.3594,19.83742c.47829.27611.47871.72361,0,.99998s-1.25381.27611-1.73199,0Z" fill="#c6c6c6" stroke-width="0"/><polygon points="382.60159 337.29511 379.1375 335.2951 394.32209 326.52821 397.78622 328.52821 382.60159 337.29511" fill="#c6c6c6" stroke-width="0"/><polygon points="389.92519 341.52328 386.46111 339.52332 405.06828 328.78052 408.53241 330.78049 389.92519 341.52328" fill="#c6c6c6" stroke-width="0"/><polygon points="397.2488 345.75161 393.78471 343.7516 417.86018 329.85161 421.32431 331.85162 397.2488 345.75161" fill="#c6c6c6" stroke-width="0"/><polygon points="404.57279 349.98009 401.1087 347.98012 416.2933 339.21329 419.75739 341.2133 404.57279 349.98009" fill="#c6c6c6" stroke-width="0"/></g></g><g><polygon points="529.473 241.9026 481.84299 214.4034 409.09679 256.40341 456.7268 283.90261 529.473 241.9026" fill="#efefef" stroke-width="0"/><g><path d="M506.63601,243.6813l-31.34659-18.09799c-.39291-.2268-.3933-.5945,0-.8215s1.03001-.2268,1.42288,0l31.34659,18.09799c.39291.2268.3933.5945,0,.8215s-1.03001.2268-1.42288,0Z" fill="#c6c6c6" stroke-width="0"/><path d="M499.79038,247.6335l-31.34659-18.09799c-.39291-.2268-.3933-.5945,0-.8215s1.03001-.2268,1.42288,0l31.34659,18.09799c.39291.2268.3933.5945,0,.8215s-1.03001.2268-1.42288,0Z" fill="#c6c6c6" stroke-width="0"/></g><g><path d="M459.45419,274.87579l-36.30749-20.9622c-.47829-.27611-.47871-.72359,0-1l35.4417-20.4623c.47871-.27639,1.25381-.27611,1.73199,0l36.30749,20.9622c.47829.27611.47871.72359,0,1l-35.4417,20.4623c-.47871.27639-1.25381.27611-1.73199,0ZM425.74471,253.4137l34.5755,19.9622,33.70972-19.4623-34.5755-19.9622-33.70972,19.4623Z" fill="#c6c6c6" stroke-width="0"/><path d="M433.48701,259.88359c-.47829-.27611-.47871-.72359,0-1l35.4417-20.4623c.47871-.27639,1.25381-.27611,1.73199,0s.47871.72359,0,1l-35.4417,20.4623c-.47871.27639-1.25381.27611-1.73199,0Z" fill="#c6c6c6" stroke-width="0"/><path d="M446.19911,267.223c-.47829-.27611-.47871-.72359,0-1l35.4417-20.4623c.47871-.27639,1.25381-.27611,1.73199,0s.47871.72359,0,1l-35.4417,20.4623c-.47871.27639-1.25381.27611-1.73199,0Z" fill="#c6c6c6" stroke-width="0"/><path d="M488.03051,258.37721l-36.30749-20.9622c-.47829-.27611-.47871-.72359,0-1s1.25381-.27611,1.73199,0l36.30749,20.9622c.47829.27611.47871.72359,0,1s-1.25381.27611-1.73199,0Z" fill="#c6c6c6" stroke-width="0"/><path d="M480.21881,262.8874l-36.30749-20.9622c-.47829-.27611-.47871-.72359,0-1s1.25381-.27611,1.73199,0l36.30749,20.9622c.47829.27611.47871.72359,0,1s-1.25381.27611-1.73199,0Z" fill="#c6c6c6" stroke-width="0"/><path d="M472.4062,267.39799l-36.30749-20.9622c-.47829-.27611-.47871-.72359,0-1s1.25381-.27611,1.73199,0l36.30749,20.9622c.47829.27611.47871.72359,0,1s-1.25381.27611-1.73199,0Z" fill="#c6c6c6" stroke-width="0"/></g></g></g><g><path d="M61.71,258.86971c-4.1607,12.20329,17.2309,92.86659,28.4891,90.9985,11.25819-1.8681,2.7953-42.3756.3881-77.3312-2.4687-35.8497-24.7166-25.8707-28.8773-13.6673h.0001Z" fill="#ffd3d4" stroke-width="0"/><path d="M88.0266,235.80549c-7.2179,1.37609-18.3176,4.863-24.7832,12.79421-10.514,12.89721,1.1659,57.35771,1.9601,58.3334.7019.86241,10.6152,8.9662,18.1452,8.9669,30.4418.00259,4.678-80.09449,4.678-80.09449l-.0001-.00002Z" fill="#4282B8" stroke-width="0"/><path d="M98.6057,262.3802s-5.5068,5.9058-8.0596,10.9483c-6.7295,13.293-11.9252,32.8046,1.6587,38.69101s6.4009-49.6393,6.4009-49.6393Z" fill="#000" opacity=".1" stroke-width="0"/><g><path d="M162.70981,273.37351c-1.485-5.47119-4.0979-11.22561-8.6359-16.5555-9.9194-11.65131-26.1434-18.73329-50.1692-22.08059-4.0714-.5673-17.9359-2.2007-26.3322,5.6587-11.3193,10.5957-5.6955,32.8459-4.418,53.99891,1.3333,22.0805,10.7739,25.7988,4.9664,75.14469-4.1199,35.0058,37.2223,46.55209,55.2319,47.0937,18.0096.54199,11.1969-11.31069,20.7526-11.1063,9.55509.2037,10.6201-19.15741,8.68351-28.29319-.3546-1.6724-.6451-3.57861-.83799-5.7777-.1392-1.58649.00059-3.34549.1453-5.2692.2002-2.65671.41019-5.6374-.0922-8.99899-4.057-27.16801-5.2103-31.02982,4.92371-57.789.31521-.8321.60301-1.6876.8856-2.5452,2.52661-7.6646-3.42381-17.28991-5.10349-23.48021l-.00004-.00011Z" fill="#4282B8" stroke-width="0"/><path d="M134.4455,313.6768c1.3958,15.8009,18.5684,43.43521,27.6506,52.51011.2002-2.65671.41019-5.6374-.0922-8.99899-4.057-27.16801-5.2103-31.02982,4.92371-57.789.31521-.8321.60301-1.6876.8856-2.5452-12.9914-3.41949-35.5023-7.34119-33.3677,16.8231v-.00002Z" fill="#000" opacity=".1" stroke-width="0"/></g><path d="M99.241,437.98599c-25.7996-9.4783-36.8628-27.50179-23.785-67.35821,1.3241-4.0353.4362-16.27842,2.8453-16.2738,1.2683.0024,23.14929,21.82888,53.0129,21.1908,17.0178-.36362,30.1306-8.74149,30.7785-8.09361s1.5822,15.18372,1.5822,15.18372c5.6292,1.50108,25.79861,17.61318,12.7632,34.01642-9.88871,12.4435-47.634,32.1957-77.197,21.3348l-.0001-.00011Z" fill="#3c4358" stroke-width="0"/><path d="M80.255,338.89381c.0437,1.54362-2.5512,7.70649-2.5899,9.56001s-.5035,6.35208,1.1031,8.18291c.3407.38818,13.8528,12.1344,18.0197,12.05101,1.9112-.03819,40.246,13.51158,42.4374,5.2467,1.0163-3.83301-57.7957-32.8532-57.9944-33.82179-.2989-1.45721-.9759-1.2188-.9759-1.2188v-.00004Z" fill="#4282B8" stroke-width="0"/><path d="M169.3927,277.00781c6.50551,11.6855,4.8027,99.8601-6.60391,100.226s-14.389-43.95668-18.9824-80.33501c-4.7109-37.30881,19.0808-31.5764,25.58619-19.891h.00011Z" fill="#ffd3d4" stroke-width="0"/><path d="M135.06,298.3687c2.3049,4.6876.4372,32.50898,9.837,36.29229,12.2203,4.91859,31.26691-8.25901,31.26691-8.25901,0,0-2.79631-42.2695-6.0099-50.36119-2.9117-7.33141-20.4222-24.814-24.3338-26.8346s-17.7904,34.86509-10.7602,49.1625v.00002Z" fill="#4282B8" stroke-width="0"/><path d="M98.5412,234.36741c-.7007.1704-1.8967.82781-1.6052,1.84931s5.6637,6.1314,12.6386,6.6787c4.8964.38429,19.5688,3.14739,20.5927-1.2653.6708-2.8907-27.1237-8.35751-31.6261-7.2628v.0001Z" fill="#fcc" stroke-width="0"/><path d="M103.1387,222.72409c-1.4199,6.4646-5.079,13.4082-.1185,15.66299s19.9652,3.70239,20.303-.5747c.2651-3.3564,1.4684-17.1176-.0007-18.4705s-20.1837,3.38221-20.1837,3.38221h-.0001Z" fill="#ffc9ca" stroke-width="0"/><path d="M122.4001,465.9227l-63.5-34.8344c-3.7032-2.1381-10.5-4.22791-10.5-9.1655-5.6471-31.96091-6.5-150.10429,5.5-156.1043s70.7659,40.4649,70.7659,40.4649c3.7032,2.1381,6.7053,7.87411,6.7053,12.8117-1.7107,34.01098-2.8534,100.9342,0,134.38551,0,4.93759-5.268,14.58012-8.9712,12.44209Z" fill="#bbb4b4" stroke-width="0"/><g><path d="M78.7506,192.8323s-8.9139,13.7833-9.0836,19.2149,1.8601,11.1578,6.5278,14.04329c0,0-3.8897-9.92599-3.8049-14.08171.0506-2.47709,3.307-6.6806,5.213-11.84799,1.2916-3.5017,1.1476-7.3284,1.1476-7.3284l.0001-.0001Z" fill="#434856" stroke-width="0"/><path d="M111.0184,148.8993c12.642-1.7707,41.1026,8.4641,40.71959,44.6964,0,0,13.5453,27.5639-1.217,34.7982,0,0-9.5351,10.0876-19.2905,9.5089,0,0-8.9287,3.9683-15.8732.66139,0,0,4.547.4134,4.547-1.1574,0,0-8.6806.49601-11.7395-1.40539,0,0,3.2242,4.71239,6.1178,4.795,0,0-13.393-1.6535-14.7984-3.14159,0,0-12.4009-3.05889-13.0623-4.9604,0,0-12.6571-6.28719-13.4872-12.8241s2.2827-13.4889,2.8015-20.23331-2.4903-45.4472,35.2822-50.7376v-.0001Z" fill="#3b435a" stroke-width="0"/><path d="M116.3824,158.204s10.8358,3.39439,13.7449,17.77849c3.5931,17.76609,6.2528,32.35229,8.8433,37.74889,3.0162,6.28321,4.6604,11.7651,4.192,17.1492s-9.5384,8.99851-9.5384,8.99851c0,0,6.3889-5.849,6.2989-11.1581s-6.147-9.53621-7.9696-24.2849c-5.111-41.35889-15.5712-46.23199-15.5712-46.23199l.0001-.0001Z" fill="#434856" stroke-width="0"/><path d="M111.7741,158.204c-.0798,2.39811-2.4232,42.95-3.4378,48.6684s-6.1293,11.101-3.3914,22.966c.9782,4.2392,6.2718,5.534,6.2718,5.534,0,0-8.6181,2.67481-8.987-10.51451-.3689-13.1893,2.7497-12.36059,3.4168-18.94329.6417-6.3316.8954-23.11489,2.5669-32.1537s3.5606-15.5568,3.5606-15.5568l.0001-.0001Z" fill="#434856" stroke-width="0"/><path d="M108.2356,155.0757s-13.1855.8939-18.4002,10.2058c-5.2146,9.31181-5.6274,29.8893-8.794,35.9586-3.2915,6.30871-4.317,26.91481-.4433,30.9375s6.928,5.5871,11.0997,5.5871c0,0-10.3241-5.1626-10.3241-14.6979s-1.137-13.21421,3.6919-24.7295c1.7152-4.09019,4.4346-29.0625,8.1365-33.4527,4.9853-5.9122,15.0334-9.8089,15.0334-9.8089h.0001Z" fill="#434856" stroke-width="0"/><path d="M122.1259,156.1103s11.8932-.0239,17.1582,8.00879c5.26501,8.0327,6.9254,26.48001,10.1486,31.73019,3.3503,5.45719,7.6158,25.1362,4.9638,29.40531-2.5829,4.15779-7.0824,5.9688-10.8275,6.2303,0,0,9.9508-3.44931,9.3532-12.00951s-2.2273-15.94469-7.2842-25.97971c-1.7962-3.5644-5.8027-25.81261-9.4012-29.52179-4.8461-4.9952-14.1109-7.8636-14.1109-7.86359Z" fill="#434856" stroke-width="0"/></g></g><g><g><path d="M250.5184,317.6041c-9.0645,9.83391-23.1765,96.79001-7.23,101.89079,10.8699,3.47691,13.61441-43.70201,26.6111-77.98851,13.32911-35.1635-10.3166-33.73619-19.3811-23.9023v.00002Z" fill="#ffd3d4" stroke-width="0"/><path d="M255.912,421.30569s-42.85851-27.4398-26.68039-46.10672c13.8706-16.00449,1.18-72.9697,42.8828-76.0173,4.76761-.3484-2.21359,112.16179-16.2023,122.12402h-.00011Z" fill="#4282B8" stroke-width="0"/><path d="M246.9195,414.85909c-7.76791,1.11439-7.3255-72.3288,1.1455-70.17521s1.7387,69.76139-1.1455,70.17521Z" fill="#000" opacity=".1" stroke-width="0"/></g><path d="M354.08958,470.8815c-1.41762-14.96281-5.24971-35.24479-10.56351-53.93551-6.65791-23.41911,5.79079-49.06189,3.46432-74.43321-.03799-.415-.06889-.83031-.11501-1.24561-2.86591-25.7766-32.93489-31.84589-32.93489-31.84589l-38.98781-9.82269s-22.80821.07351-26.72079,14.3268c-3.91291,14.25329-3.9818,57.35041-2.26601,75.1832,1.7157,17.83279,1.67561,99.5277-2.50799,128.52089-1.47011,10.18822,59.81901,28.83812,75.69269,27.58942,15.87379-1.2484,37.27329-13.01338,41.57799-19.58359,1.79192-2.73521-5.62801-44.08218-6.6391-54.75391l.00011.00011Z" fill="#4282B8" stroke-width="0"/><path d="M345.70419,348.76621c-14.36249,6.75541-29.92531,19.18308-29.0386,41.20071,1.15721,28.7355,18.69699,67.81769,36.93701,87.63119-1.41762-14.96281-3.6874-39.88441-8.8047-53.95691-7.8783-21.66531,1.45851-49.2178.9063-74.87499Z" fill="#000" opacity=".1" stroke-width="0"/><path d="M328.56289,372.7742c-4.24191,12.68372,8.79742,111.83979,25.43419,109.9622,11.34041-1.27991,8.47481-60.75512,6.28941-97.3571-2.24129-37.53819-27.48169-25.28889-31.72371-12.60509h.00011Z" fill="#ffd3d4" stroke-width="0"/><path d="M326.98689,314.3276c-.48931-1.3423,29.20349,15.54758,35.05718,26.10159,5.06378,9.12991,16.38191,40.54329,18.02872,67.89112.77431,12.85839,6.18469,17.89459,5.5019,25.49561,0,0-30.81211,27.21989-59.7718,15.20351,0,0-2.40181-78.38581-3.44261-87.65141,0,0,5.43011-44.83631,4.62669-47.04029l-.00008-.00013Z" fill="#4282B8" stroke-width="0"/><g><path d="M296.3813,313.18411c6.84919.0098,16.5929-1.53959,20.6786-2.56319-.06439-.4035-.1103-.84629-.1305-1.34689-.2817-6.9943,9.02618-28.1871-1.24741-34.779s-28.2992-6.8668-29.8147,5.2039c-1.339,10.66481-6.29499,22.171-6.99591,23.4351,2.8133,3.53081,9.04831,10.0379,17.50999,10.0502l-.00008-.00011Z" fill="#fcc" stroke-width="0"/><path d="M335.74188,235.6506c1.92848,2.78851-.89352,14.54161.57449,20.54501,4.63791,18.9669,3.72631,44.5649-28.302,45.5723-31.29459.98431-32.70649-14.6316-33.69761-34.60609s-9.1724-29.14881,11.69001-40.6946,41.68079-2.4626,49.73511,9.1835v-.00011Z" fill="#ffd2d2" stroke-width="0"/><path d="M340.89161,237.98031c1.19339-21.8671-31.76081-30.54371-47.75-28.74599-6.42851.72281-21.97201,5.28151-24.2407,14.35619-26.47831,24.0234,3.6199,70.39509,22.3245,72.89791,8.0896,1.0824,17.0837-.42521,21.6046-5.2961.6391-.68871,3.4433-4.48481,2.51221-4.359-3.08741.417-8.25609-2.7701-7.70321-13.6492.8848-17.40789,7.95771-8.91121,9.6336-5.8486s2.409,9.16189,2.409,9.16189l2.12629,3.4568,2.65301-9.9724c5.29388-6.4974,7.99278-11.26169,9.67541-17.7066,2.1814-6.4539,5.68901-8.3729,6.75529-14.2948v-.00011Z" fill="#3d4356" stroke-width="0"/></g><path d="M313.00859,580.8926l-63.5-34.8344c-3.70319-2.1381-10.49999-4.22791-10.49999-9.1655-5.64711-31.96091-6.5-150.10429,5.49999-156.10428s70.7659,40.4649,70.7659,40.4649c3.70319,2.1381,6.7053,7.87411,6.7053,12.8117-1.7107,34.011-2.85339,100.93422,0,134.38549,0,4.93759-5.268,14.58012-8.9712,12.44209Z" fill="#bbb4b4" stroke-width="0"/></g><path d="M542.47391,157.3761s1.52618,10.6988-11.5123,11.98509-18.48801-3.75601-16.59191-7.91889,24.55059-11.1025,28.10421-4.0662Z" fill="#dbebf4" stroke-width="0"/><path d="M504.7171,132.5412c-.83858-7.9818-6.2183-28.8846,4.38-28.8602s25.26749,16.7626,25.26749,24.1951-3.43472,20.1859-9.9696,21.287-18.56789-6.0578-19.67789-16.622v.0001Z" fill="#ffd4d4" stroke-width="0"/><path d="M560.8736,251.7997c17.18521-3.7435-11.07979-112.3387-29.12121-108.4327-18.04138,3.9059-19.99432,4.5569-19.99432,13.3453s32.48112,98.71091,49.11549,95.0874h.00004Z" fill="#363e58" stroke-width="0"/><g><path d="M491.76262,123.7541l-3.34438-45.4916c0-.4179,2.90951-2.2693,3.99979-2.2543l31.58981,18.2384c.36201.209.6554.7172.6554,1.1351v47.3675c0,.4179-3.4824,2.8079-3.84441,2.5989l-28.4008-20.459c-.36201-.209-.6554-.7172-.6554-1.1351v.00011Z" fill="#4a4c56" stroke-width="0"/><path d="M488.3667,125.8949v-47.3675c0-.4179.29339-.5873.6554-.3784l31.58981,18.2384c.36201.209.6554.7172.6554,1.1351v47.36751c0,.4179-.29339.5873-.6554.3784l-31.58981-18.2384c-.36201-.209-.6554-.7172-.6554-1.1351Z" fill="#545456" stroke-width="0"/><path d="M495.54321,98.5572l-4.58771-2.6487c-.36201-.209-.6554-.7172-.6554-1.1351v-3.7838c0-.4179.29339-.5873.6554-.3784l4.58771,2.6487c.36201.209.6554.7172.6554,1.1351v3.7838c0,.4179-.29339.5873-.6554.3784Z" fill="#b9cce3" stroke-width="0"/><path d="M518.64571,104.4035l-27.69032-15.987c-.36201-.209-.6554-.7172-.6554-1.1351v-5.5869c0-.4179.29339-.5873.6554-.3784l27.69032,15.98701c.36201.209.6554.7172.6554,1.1351v5.5869c0,.4179-.29339.5873-.6554.37839Z" fill="#e6e6e6" stroke-width="0"/><path d="M503.24409,103.0032l-4.58771-2.6487c-.36201-.209-.6554-.7172-.6554-1.1351v-3.7838c0-.4179.29339-.5873.6554-.3784l4.58771,2.6487c.36201.209.6554.7172.6554,1.1351v3.7838c0,.4179-.29339.5873-.6554.3784Z" fill="#b9cce3" stroke-width="0"/><path d="M510.9449,107.4493l-4.58771-2.6487c-.36201-.209-.6554-.7172-.6554-1.1351v-3.7838c0-.4179.29339-.5873.6554-.3784l4.58771,2.6487c.36201.209.6554.7172.6554,1.1351v3.7838c0,.4179-.29339.5873-.6554.3784Z" fill="#b9cce3" stroke-width="0"/><path d="M518.64578,111.8954l-4.58771-2.6487c-.36201-.209-.6554-.7172-.6554-1.1351v-3.7838c0-.4179.29339-.5873.6554-.3784l4.58771,2.6487c.36201.209.6554.7172.6554,1.1351v3.7838c0,.4179-.29339.5873-.6554.3784Z" fill="#b9cce3" stroke-width="0"/><path d="M495.54321,106.0491l-4.58771-2.6487c-.36201-.209-.6554-.7172-.6554-1.1351v-3.7838c0-.4179.29339-.5873.6554-.3784l4.58771,2.6487c.36201.209.6554.7172.6554,1.1351v3.7838c0,.4179-.29339.5873-.6554.3784Z" fill="#b9cce3" stroke-width="0"/><path d="M503.24409,110.4951l-4.58771-2.6487c-.36201-.209-.6554-.7172-.6554-1.1351v-3.7838c0-.4179.29339-.5873.6554-.3784l4.58771,2.6487c.36201.209.6554.7172.6554,1.1351v3.7838c0,.4179-.29339.5873-.6554.3784Z" fill="#b9cce3" stroke-width="0"/><path d="M510.9449,114.9412l-4.58771-2.6487c-.36201-.209-.6554-.7172-.6554-1.1351v-3.7838c0-.4179.29339-.5873.6554-.3784l4.58771,2.6487c.36201.209.6554.7172.6554,1.1351v3.7838c0,.4179-.29339.5873-.6554.3784Z" fill="#b9cce3" stroke-width="0"/><path d="M518.64578,119.3873l-4.58771-2.6487c-.36201-.209-.6554-.7172-.6554-1.1351v-3.7838c0-.4179.29339-.5873.6554-.3784l4.58771,2.6487c.36201.209.6554.7172.6554,1.1351v3.7838c0,.4179-.29339.5873-.6554.3784Z" fill="#b9cce3" stroke-width="0"/><path d="M495.54321,113.541l-4.58771-2.6487c-.36201-.209-.6554-.7172-.6554-1.1351v-3.7838c0-.4179.29339-.5873.6554-.3784l4.58771,2.6487c.36201.209.6554.7172.6554,1.1351v3.7838c0,.4179-.29339.5873-.6554.3784Z" fill="#b9cce3" stroke-width="0"/><path d="M503.24409,117.9871l-4.58771-2.6487c-.36201-.209-.6554-.7172-.6554-1.1351v-3.7838c0-.4179.29339-.5873.6554-.3784l4.58771,2.6487c.36201.209.6554.7172.6554,1.1351v3.7838c0,.4179-.29339.5873-.6554.3784Z" fill="#b9cce3" stroke-width="0"/><path d="M510.9449,122.4331l-4.58771-2.6487c-.36201-.209-.6554-.7172-.6554-1.1351v-3.7838c0-.4179.29339-.5873.6554-.3784l4.58771,2.6487c.36201.209.6554.7172.6554,1.1351v3.7838c0,.4179-.29339.5873-.6554.3784Z" fill="#b9cce3" stroke-width="0"/><path d="M518.64578,126.8792l-4.58771-2.6487c-.36201-.209-.6554-.7172-.6554-1.1351v-3.7838c0-.4179.29339-.5873.6554-.3784l4.58771,2.6487c.36201.209.6554.7172.6554,1.1351v3.7838c0,.4179-.29339.5873-.6554.3784Z" fill="#b9cce3" stroke-width="0"/><path d="M495.54321,121.0329l-4.58771-2.6487c-.36201-.209-.6554-.7172-.6554-1.1351v-3.7838c0-.4179.29339-.5873.6554-.3784l4.58771,2.6487c.36201.209.6554.7172.6554,1.1351v3.7838c0,.4179-.29339.5873-.6554.3784Z" fill="#b9cce3" stroke-width="0"/><path d="M503.24409,125.479l-4.58771-2.6487c-.36201-.209-.6554-.7172-.6554-1.1351v-3.7838c0-.4179.29339-.5873.6554-.3784l4.58771,2.6487c.36201.209.6554.7172.6554,1.1351v3.7838c0,.4179-.29339.5873-.6554.3784Z" fill="#b9cce3" stroke-width="0"/><path d="M510.9449,129.925l-4.58771-2.6487c-.36201-.209-.6554-.7172-.6554-1.1351v-3.7838c0-.4179.29339-.5873.6554-.3784l4.58771,2.6487c.36201.209.6554.7172.6554,1.1351v3.7838c0,.4179-.29339.5873-.6554.3784Z" fill="#b9cce3" stroke-width="0"/><path d="M495.54321,128.5248l-4.58771-2.6487c-.36201-.209-.6554-.7172-.6554-1.1351v-3.7838c0-.4179.29339-.5873.6554-.3784l4.58771,2.6487c.36201.209.6554.7172.6554,1.1351v3.7838c0,.4179-.29339.5873-.6554.3784Z" fill="#b9cce3" stroke-width="0"/><path d="M503.24409,132.9709l-4.58771-2.6487c-.36201-.209-.6554-.7172-.6554-1.1351v-3.7838c0-.4179.29339-.5873.6554-.3784l4.58771,2.6487c.36201.209.6554.7172.6554,1.1351v3.7838c0,.4179-.29339.5873-.6554.3784Z" fill="#b9cce3" stroke-width="0"/><path d="M510.9449,137.4169l-4.58771-2.6487c-.36201-.209-.6554-.7172-.6554-1.1351v-3.7838c0-.4179.29339-.5873.6554-.3784l4.58771,2.6487c.36201.209.6554.7172.6554,1.1351v3.7838c0,.4179-.29339.5873-.6554.3784Z" fill="#b9cce3" stroke-width="0"/><path d="M518.64578,141.863l-4.58771-2.6487c-.36201-.209-.6554-.7172-.6554-1.1351v-11.2757c0-.4179.29339-.5873.6554-.3784l4.58771,2.6487c.36201.209.6554.7172.6554,1.1351v11.2757c0,.4179-.29339.5873-.6554.3784Z" fill="#b9cce3" stroke-width="0"/></g><path d="M564.75529,194.49209c4.1423,3.522,8.60409,11.49469,4.48559,19.1807-4.27658,7.98111-17.8717,2.92101-20.41611,1.20991-17.30309-11.63651-14.71481-19.0177-11.82911-25.82041s19.13811-1.90069,27.75959,5.4298h.00004Z" fill="#ffd3d4" stroke-width="0"/><path d="M661.7186,265.01431s-.35919,16.8178-10.45441,17.01229-94.97902-53.45459-92.39349-59.01609,9.88152-20.95409,15.20229-19.00379,85.59292,47.1357,87.64568,61.0076h-.00008Z" fill="#363e58" stroke-width="0"/><path d="M562.4612,198.69989c-.83328-11.7268-.35301-15.532,4.76551-13.9435s1.6473,19.4739,1.6473,19.4739l-6.41281-5.5303v-.0001Z" fill="#ffd3d4" stroke-width="0"/><path d="M528.26599,131.9407c-11.86199-8.9224-15.47939-12.8221-16.66569-7.95979-1.3522,5.5419,11.09928,18.7136,14.1761,17.4808,7.09549-2.843,2.48959-9.521,2.48959-9.52101Z" fill="#ffd4d4" stroke-width="0"/></g></g></svg>