<svg width="551" height="87" viewBox="0 0 551 87" fill="none" xmlns="http://www.w3.org/2000/svg">
<mask id="path-1-outside-1_59_423" maskUnits="userSpaceOnUse" x="-0.199997" y="-0.288086" width="551" height="88" fill="black">
<rect fill="white" x="-0.199997" y="-0.288086" width="551" height="88"/>
<path d="M46.952 85.9919C32.0187 85.9919 20.6267 82.3226 12.776 74.9839C4.92534 67.6452 1 57.2772 1 43.8799C1 30.0559 4.84 19.4746 12.52 12.1359C20.2 4.71191 31.6347 0.999908 46.824 0.999908C51.944 0.999908 56.5093 1.38391 60.52 2.15191C64.5307 2.91991 68.3707 3.98658 72.04 5.35191V26.3439C64.7013 23.1012 56.8507 21.4799 48.488 21.4799C40.7227 21.4799 34.9627 23.2719 31.208 26.8559C27.4533 30.3546 25.576 36.0292 25.576 43.8799C25.576 51.5599 27.5387 57.1066 31.464 60.5199C35.4747 63.8479 41.2347 65.5119 48.744 65.5119C52.84 65.5119 56.808 65.1279 60.648 64.3599C64.5733 63.5919 68.456 62.3972 72.296 60.7759V81.8959C68.6267 83.1759 64.744 84.1572 60.648 84.8399C56.6373 85.6079 52.072 85.9919 46.952 85.9919ZM119.612 85.9919C105.959 85.9919 95.5053 82.6639 88.252 76.0079C81.084 69.3519 77.5 58.5999 77.5 43.7519C77.5 33.5119 79.1213 25.2772 82.364 19.0479C85.6067 12.7332 90.3427 8.16791 96.572 5.35191C102.887 2.45058 110.567 0.999908 119.612 0.999908C128.657 0.999908 136.295 2.45058 142.524 5.35191C148.839 8.16791 153.617 12.7332 156.86 19.0479C160.103 25.2772 161.724 33.5119 161.724 43.7519C161.724 58.5999 158.097 69.3519 150.844 76.0079C143.591 82.6639 133.18 85.9919 119.612 85.9919ZM119.612 65.5119C125.756 65.5119 130.193 63.8052 132.924 60.3919C135.74 56.8932 137.148 51.3466 137.148 43.7519C137.148 35.6452 135.74 29.9279 132.924 26.5999C130.193 23.1866 125.756 21.4799 119.612 21.4799C113.468 21.4799 108.988 23.1866 106.172 26.5999C103.441 29.9279 102.076 35.6452 102.076 43.7519C102.076 51.3466 103.441 56.8932 106.172 60.3919C108.988 63.8052 113.468 65.5119 119.612 65.5119ZM170.685 84.7119V2.27991H191.165L222.269 45.9279V2.27991H246.333V84.7119H225.725L194.749 41.1919V84.7119H170.685ZM275.858 84.7119V20.1999H252.69V2.27991H323.09V20.1999H299.922V84.7119H275.858ZM316 84.7119L347.616 2.27991H373.088L404.704 84.7119H379.616L372.704 67.1759H347.872L341.088 84.7119H316ZM351.072 49.8959H369.504L360.288 25.7039L351.072 49.8959ZM450.077 85.9919C435.144 85.9919 423.752 82.3226 415.901 74.9839C408.05 67.6452 404.125 57.2772 404.125 43.8799C404.125 30.0559 407.965 19.4746 415.645 12.1359C423.325 4.71191 434.76 0.999908 449.949 0.999908C455.069 0.999908 459.634 1.38391 463.645 2.15191C467.656 2.91991 471.496 3.98658 475.165 5.35191V26.3439C467.826 23.1012 459.976 21.4799 451.613 21.4799C443.848 21.4799 438.088 23.2719 434.333 26.8559C430.578 30.3546 428.701 36.0292 428.701 43.8799C428.701 51.5599 430.664 57.1066 434.589 60.5199C438.6 63.8479 444.36 65.5119 451.869 65.5119C455.965 65.5119 459.933 65.1279 463.773 64.3599C467.698 63.5919 471.581 62.3972 475.421 60.7759V81.8959C471.752 83.1759 467.869 84.1572 463.773 84.8399C459.762 85.6079 455.197 85.9919 450.077 85.9919ZM502.483 84.7119V20.1999H479.315V2.27991H549.715V20.1999H526.547V84.7119H502.483Z"/>
</mask>
<path d="M12.776 74.9839L13.4589 74.2534L12.776 74.9839ZM12.52 12.1359L13.2109 12.8589L13.215 12.8549L12.52 12.1359ZM72.04 5.35191H73.04V4.65702L72.3887 4.41469L72.04 5.35191ZM72.04 26.3439L71.6358 27.2586L73.04 27.879V26.3439H72.04ZM31.208 26.8559L31.8898 27.5876L31.8985 27.5793L31.208 26.8559ZM31.464 60.5199L30.8078 61.2745L30.8165 61.2821L30.8254 61.2895L31.464 60.5199ZM60.648 64.3599L60.456 63.3785L60.4519 63.3793L60.648 64.3599ZM72.296 60.7759H73.296V59.2682L71.907 59.8547L72.296 60.7759ZM72.296 81.8959L72.6254 82.8401L73.296 82.6062V81.8959H72.296ZM60.648 84.8399L60.4836 83.8535L60.4717 83.8555L60.4599 83.8578L60.648 84.8399ZM46.952 84.9919C32.1727 84.9919 21.0626 81.3612 13.4589 74.2534L12.0931 75.7144C20.1908 83.284 31.8646 86.9919 46.952 86.9919V84.9919ZM13.4589 74.2534C5.85829 67.1485 2 57.0733 2 43.8799H3.09944e-06C3.09944e-06 57.4812 3.99238 68.142 12.0931 75.7144L13.4589 74.2534ZM2 43.8799C2 30.2426 5.78309 19.9565 13.2109 12.8589L11.8291 11.4129C3.89692 18.9926 3.09944e-06 29.8692 3.09944e-06 43.8799H2ZM13.215 12.8549C20.6422 5.67528 31.7842 1.99991 46.824 1.99991V-9.15527e-05C31.4852 -9.15527e-05 19.7578 3.74854 11.825 11.4169L13.215 12.8549ZM46.824 1.99991C51.896 1.99991 56.3965 2.38047 60.3319 3.13406L60.7081 1.16975C56.6222 0.387344 51.992 -9.15527e-05 46.824 -9.15527e-05V1.99991ZM60.3319 3.13406C64.2902 3.89204 68.0763 4.94404 71.6913 6.28913L72.3887 4.41469C68.665 3.02912 64.7711 1.94778 60.7081 1.16975L60.3319 3.13406ZM71.04 5.35191V26.3439H73.04V5.35191H71.04ZM72.4442 25.4292C64.9728 22.1279 56.9838 20.4799 48.488 20.4799V22.4799C56.7175 22.4799 64.4299 24.0746 71.6358 27.2586L72.4442 25.4292ZM48.488 20.4799C40.5908 20.4799 34.5325 22.3001 30.5175 26.1326L31.8985 27.5793C35.3928 24.2437 40.8545 22.4799 48.488 22.4799V20.4799ZM30.5263 26.1243C26.4822 29.8927 24.576 35.8975 24.576 43.8799H26.576C26.576 36.161 28.4245 30.8165 31.8897 27.5875L30.5263 26.1243ZM24.576 43.8799C24.576 51.7091 26.5768 57.5954 30.8078 61.2745L32.1202 59.7653C28.5005 56.6178 26.576 51.4107 26.576 43.8799H24.576ZM30.8254 61.2895C35.0801 64.82 41.102 66.5119 48.744 66.5119V64.5119C41.3674 64.5119 35.8692 62.8759 32.1026 59.7504L30.8254 61.2895ZM48.744 66.5119C52.9028 66.5119 56.9367 66.122 60.8441 65.3405L60.4519 63.3793C56.6794 64.1338 52.7772 64.5119 48.744 64.5119V66.5119ZM60.84 65.3413C64.8357 64.5595 68.7842 63.3441 72.685 61.6972L71.907 59.8547C68.1278 61.4503 64.311 62.6243 60.456 63.3785L60.84 65.3413ZM71.296 60.7759V81.8959H73.296V60.7759H71.296ZM71.9666 80.9517C68.3545 82.2118 64.5273 83.1796 60.4836 83.8535L60.8124 85.8263C64.9607 85.1349 68.8988 84.1401 72.6254 82.8401L71.9666 80.9517ZM60.4599 83.8578C56.5245 84.6114 52.024 84.9919 46.952 84.9919V86.9919C52.12 86.9919 56.7502 86.6045 60.8361 85.8221L60.4599 83.8578ZM88.252 76.0079L87.5715 76.7407L87.5759 76.7447L88.252 76.0079ZM82.364 19.0479L83.251 19.5097L83.2536 19.5047L82.364 19.0479ZM96.572 5.35191L96.9839 6.26315L96.9895 6.26059L96.572 5.35191ZM142.524 5.35191L142.102 6.25841L142.109 6.26188L142.117 6.26521L142.524 5.35191ZM156.86 19.0479L155.97 19.5047L155.973 19.5096L156.86 19.0479ZM150.844 76.0079L151.52 76.7447L150.844 76.0079ZM132.924 60.3919L132.145 59.7649L132.143 59.7672L132.924 60.3919ZM132.924 26.5999L132.143 27.2246L132.152 27.2353L132.161 27.2459L132.924 26.5999ZM106.172 26.5999L105.401 25.9635L105.399 25.9656L106.172 26.5999ZM106.172 60.3919L105.384 61.0072L105.392 61.0179L105.401 61.0283L106.172 60.3919ZM119.612 84.9919C106.112 84.9919 95.936 81.7018 88.9281 75.2711L87.5759 76.7447C95.0747 83.626 105.806 86.9919 119.612 86.9919V84.9919ZM88.9325 75.2751C82.0537 68.8877 78.5 58.4651 78.5 43.7519H76.5C76.5 58.7347 80.1143 69.8161 87.5716 76.7407L88.9325 75.2751ZM78.5 43.7519C78.5 33.6043 80.1088 25.5461 83.251 19.5096L81.477 18.5862C78.1339 25.0084 76.5 33.4195 76.5 43.7519H78.5ZM83.2536 19.5047C86.3972 13.3828 90.969 8.98222 96.9839 6.26313L96.1601 4.44069C89.7164 7.35361 84.8161 12.0837 81.4744 18.5911L83.2536 19.5047ZM96.9895 6.26059C103.14 3.43468 110.669 1.99991 119.612 1.99991V-9.15527e-05C110.464 -9.15527e-05 102.633 1.46647 96.1545 4.44324L96.9895 6.26059ZM119.612 1.99991C128.556 1.99991 136.04 3.4349 142.102 6.25841L142.946 4.44541C136.55 1.46625 128.759 -9.15527e-05 119.612 -9.15527e-05V1.99991ZM142.117 6.26521C148.217 8.98578 152.829 13.3868 155.97 19.5047L157.75 18.5911C154.406 12.0796 149.46 7.35005 142.931 4.43861L142.117 6.26521ZM155.973 19.5096C159.115 25.5461 160.724 33.6043 160.724 43.7519H162.724C162.724 33.4195 161.09 25.0084 157.747 18.5862L155.973 19.5096ZM160.724 43.7519C160.724 58.4621 157.129 68.883 150.168 75.2711L151.52 76.7447C159.065 69.8208 162.724 58.7377 162.724 43.7519H160.724ZM150.168 75.2711C143.159 81.7028 133.025 84.9919 119.612 84.9919V86.9919C133.335 86.9919 144.022 83.625 151.52 76.7447L150.168 75.2711ZM119.612 66.5119C125.93 66.5119 130.716 64.7526 133.705 61.0166L132.143 59.7672C129.671 62.8579 125.582 64.5119 119.612 64.5119V66.5119ZM133.703 61.0189C136.732 57.256 138.148 51.4309 138.148 43.7519H136.148C136.148 51.2622 134.748 56.5305 132.145 59.7649L133.703 61.0189ZM138.148 43.7519C138.148 35.5874 136.742 29.5634 133.687 25.954L132.161 27.2459C134.738 30.2924 136.148 35.7031 136.148 43.7519H138.148ZM133.705 25.9752C130.716 22.2392 125.93 20.4799 119.612 20.4799V22.4799C125.582 22.4799 129.671 24.1339 132.143 27.2246L133.705 25.9752ZM119.612 20.4799C113.291 20.4799 108.472 22.2401 105.401 25.9635L106.943 27.2363C109.504 24.1331 113.645 22.4799 119.612 22.4799V20.4799ZM105.399 25.9656C102.439 29.5735 101.076 35.5917 101.076 43.7519H103.076C103.076 35.6988 104.444 30.2824 106.945 27.2342L105.399 25.9656ZM101.076 43.7519C101.076 51.4262 102.448 57.2459 105.384 61.0072L106.96 59.7766C104.435 56.5406 103.076 51.267 103.076 43.7519H101.076ZM105.401 61.0283C108.472 64.7518 113.291 66.5119 119.612 66.5119V64.5119C113.645 64.5119 109.504 62.8587 106.943 59.7555L105.401 61.0283ZM170.685 84.7119H169.685V85.7119H170.685V84.7119ZM170.685 2.27991V1.27991H169.685V2.27991H170.685ZM191.165 2.27991L191.979 1.69957L191.68 1.27991H191.165V2.27991ZM222.269 45.9279L221.455 46.5082L223.269 49.0544V45.9279H222.269ZM222.269 2.27991V1.27991H221.269V2.27991H222.269ZM246.333 2.27991H247.333V1.27991H246.333V2.27991ZM246.333 84.7119V85.7119H247.333V84.7119H246.333ZM225.725 84.7119L224.91 85.2918L225.209 85.7119H225.725V84.7119ZM194.749 41.1919L195.564 40.612L193.749 38.0625V41.1919H194.749ZM194.749 84.7119V85.7119H195.749V84.7119H194.749ZM171.685 84.7119V2.27991H169.685V84.7119H171.685ZM170.685 3.27991H191.165V1.27991H170.685V3.27991ZM190.351 2.86024L221.455 46.5082L223.083 45.3476L191.979 1.69957L190.351 2.86024ZM223.269 45.9279V2.27991H221.269V45.9279H223.269ZM222.269 3.27991H246.333V1.27991H222.269V3.27991ZM245.333 2.27991V84.7119H247.333V2.27991H245.333ZM246.333 83.7119H225.725V85.7119H246.333V83.7119ZM226.54 84.132L195.564 40.612L193.934 41.7718L224.91 85.2918L226.54 84.132ZM193.749 41.1919V84.7119H195.749V41.1919H193.749ZM194.749 83.7119H170.685V85.7119H194.749V83.7119ZM275.858 84.7119H274.858V85.7119H275.858V84.7119ZM275.858 20.1999H276.858V19.1999H275.858V20.1999ZM252.69 20.1999H251.69V21.1999H252.69V20.1999ZM252.69 2.27991V1.27991H251.69V2.27991H252.69ZM323.09 2.27991H324.09V1.27991H323.09V2.27991ZM323.09 20.1999V21.1999H324.09V20.1999H323.09ZM299.922 20.1999V19.1999H298.922V20.1999H299.922ZM299.922 84.7119V85.7119H300.922V84.7119H299.922ZM276.858 84.7119V20.1999H274.858V84.7119H276.858ZM275.858 19.1999H252.69V21.1999H275.858V19.1999ZM253.69 20.1999V2.27991H251.69V20.1999H253.69ZM252.69 3.27991H323.09V1.27991H252.69V3.27991ZM322.09 2.27991V20.1999H324.09V2.27991H322.09ZM323.09 19.1999H299.922V21.1999H323.09V19.1999ZM298.922 20.1999V84.7119H300.922V20.1999H298.922ZM299.922 83.7119H275.858V85.7119H299.922V83.7119ZM316 84.7119L315.066 84.3538L314.545 85.7119H316V84.7119ZM347.616 2.27991V1.27991H346.929L346.682 1.9218L347.616 2.27991ZM373.088 2.27991L374.022 1.9218L373.775 1.27991H373.088V2.27991ZM404.704 84.7119V85.7119H406.159L405.638 84.3538L404.704 84.7119ZM379.616 84.7119L378.686 85.0786L378.935 85.7119H379.616V84.7119ZM372.704 67.1759L373.634 66.8092L373.385 66.1759H372.704V67.1759ZM347.872 67.1759V66.1759H347.187L346.939 66.8151L347.872 67.1759ZM341.088 84.7119V85.7119H341.773L342.021 85.0727L341.088 84.7119ZM351.072 49.8959L350.138 49.5399L349.621 50.8959H351.072V49.8959ZM369.504 49.8959V50.8959H370.955L370.438 49.5399L369.504 49.8959ZM360.288 25.7039L361.222 25.3479L360.288 22.8949L359.354 25.3479L360.288 25.7039ZM316.934 85.07L348.55 2.63801L346.682 1.9218L315.066 84.3538L316.934 85.07ZM347.616 3.27991H373.088V1.27991H347.616V3.27991ZM372.154 2.63801L403.77 85.07L405.638 84.3538L374.022 1.9218L372.154 2.63801ZM404.704 83.7119H379.616V85.7119H404.704V83.7119ZM380.546 84.3452L373.634 66.8092L371.774 67.5426L378.686 85.0786L380.546 84.3452ZM372.704 66.1759H347.872V68.1759H372.704V66.1759ZM346.939 66.8151L340.155 84.3511L342.021 85.0727L348.805 67.5367L346.939 66.8151ZM341.088 83.7119H316V85.7119H341.088V83.7119ZM351.072 50.8959H369.504V48.8959H351.072V50.8959ZM370.438 49.5399L361.222 25.3479L359.354 26.0599L368.57 50.2519L370.438 49.5399ZM359.354 25.3479L350.138 49.5399L352.006 50.2519L361.222 26.0599L359.354 25.3479ZM415.901 74.9839L416.584 74.2534L415.901 74.9839ZM415.645 12.1359L416.336 12.8589L416.34 12.8549L415.645 12.1359ZM475.165 5.35191H476.165V4.65702L475.514 4.41469L475.165 5.35191ZM475.165 26.3439L474.761 27.2586L476.165 27.879V26.3439H475.165ZM434.333 26.8559L435.015 27.5876L435.023 27.5793L434.333 26.8559ZM434.589 60.5199L433.933 61.2745L433.942 61.2821L433.95 61.2895L434.589 60.5199ZM463.773 64.3599L463.581 63.3785L463.577 63.3793L463.773 64.3599ZM475.421 60.7759H476.421V59.2682L475.032 59.8547L475.421 60.7759ZM475.421 81.8959L475.75 82.8401L476.421 82.6062V81.8959H475.421ZM463.773 84.8399L463.609 83.8535L463.597 83.8555L463.585 83.8578L463.773 84.8399ZM450.077 84.9919C435.298 84.9919 424.188 81.3612 416.584 74.2534L415.218 75.7144C423.316 83.284 434.99 86.9919 450.077 86.9919V84.9919ZM416.584 74.2534C408.983 67.1485 405.125 57.0733 405.125 43.8799H403.125C403.125 57.4812 407.117 68.142 415.218 75.7144L416.584 74.2534ZM405.125 43.8799C405.125 30.2426 408.908 19.9565 416.336 12.8589L414.954 11.4129C407.022 18.9926 403.125 29.8692 403.125 43.8799H405.125ZM416.34 12.8549C423.767 5.67528 434.909 1.99991 449.949 1.99991V-9.15527e-05C434.61 -9.15527e-05 422.883 3.74854 414.95 11.4169L416.34 12.8549ZM449.949 1.99991C455.021 1.99991 459.522 2.38047 463.457 3.13406L463.833 1.16975C459.747 0.387344 455.117 -9.15527e-05 449.949 -9.15527e-05V1.99991ZM463.457 3.13406C467.415 3.89204 471.201 4.94404 474.816 6.28913L475.514 4.41469C471.79 3.02912 467.896 1.94778 463.833 1.16975L463.457 3.13406ZM474.165 5.35191V26.3439H476.165V5.35191H474.165ZM475.569 25.4292C468.098 22.1279 460.109 20.4799 451.613 20.4799V22.4799C459.843 22.4799 467.555 24.0746 474.761 27.2586L475.569 25.4292ZM451.613 20.4799C443.716 20.4799 437.658 22.3001 433.643 26.1326L435.023 27.5793C438.518 24.2437 443.98 22.4799 451.613 22.4799V20.4799ZM433.651 26.1243C429.607 29.8927 427.701 35.8975 427.701 43.8799H429.701C429.701 36.161 431.549 30.8165 435.015 27.5875L433.651 26.1243ZM427.701 43.8799C427.701 51.7091 429.702 57.5954 433.933 61.2745L435.245 59.7653C431.626 56.6178 429.701 51.4107 429.701 43.8799H427.701ZM433.95 61.2895C438.205 64.82 444.227 66.5119 451.869 66.5119V64.5119C444.492 64.5119 438.994 62.8759 435.228 59.7504L433.95 61.2895ZM451.869 66.5119C456.028 66.5119 460.062 66.122 463.969 65.3405L463.577 63.3793C459.804 64.1338 455.902 64.5119 451.869 64.5119V66.5119ZM463.965 65.3413C467.961 64.5595 471.909 63.3441 475.81 61.6972L475.032 59.8547C471.253 61.4503 467.436 62.6243 463.581 63.3785L463.965 65.3413ZM474.421 60.7759V81.8959H476.421V60.7759H474.421ZM475.092 80.9517C471.48 82.2118 467.652 83.1796 463.609 83.8535L463.937 85.8263C468.086 85.1349 472.024 84.1401 475.75 82.8401L475.092 80.9517ZM463.585 83.8578C459.65 84.6114 455.149 84.9919 450.077 84.9919V86.9919C455.245 86.9919 459.875 86.6045 463.961 85.8221L463.585 83.8578ZM502.483 84.7119H501.483V85.7119H502.483V84.7119ZM502.483 20.1999H503.483V19.1999H502.483V20.1999ZM479.315 20.1999H478.315V21.1999H479.315V20.1999ZM479.315 2.27991V1.27991H478.315V2.27991H479.315ZM549.715 2.27991H550.715V1.27991H549.715V2.27991ZM549.715 20.1999V21.1999H550.715V20.1999H549.715ZM526.547 20.1999V19.1999H525.547V20.1999H526.547ZM526.547 84.7119V85.7119H527.547V84.7119H526.547ZM503.483 84.7119V20.1999H501.483V84.7119H503.483ZM502.483 19.1999H479.315V21.1999H502.483V19.1999ZM480.315 20.1999V2.27991H478.315V20.1999H480.315ZM479.315 3.27991H549.715V1.27991H479.315V3.27991ZM548.715 2.27991V20.1999H550.715V2.27991H548.715ZM549.715 19.1999H526.547V21.1999H549.715V19.1999ZM525.547 20.1999V84.7119H527.547V20.1999H525.547ZM526.547 83.7119H502.483V85.7119H526.547V83.7119Z" fill="#4282B8" mask="url(#path-1-outside-1_59_423)"/>
</svg>
