<svg width="194" height="112" viewBox="0 0 194 112" fill="none" xmlns="http://www.w3.org/2000/svg">
<path d="M51.744 111.552C39.312 111.552 29.288 109.424 21.672 105.168C14.168 100.8 8.67999 94.4721 5.20799 86.1841C1.73599 77.8961 -1.21444e-05 67.7601 -1.21444e-05 55.7761C-1.21444e-05 43.7921 1.73599 33.6561 5.20799 25.3681C8.67999 17.0801 14.168 10.8081 21.672 6.55207C29.288 2.18406 39.312 6.29425e-05 51.744 6.29425e-05C70.336 6.29425e-05 83.608 4.81606 91.56 14.4481C99.512 23.9681 103.488 37.7441 103.488 55.7761C103.488 73.6961 99.512 87.4721 91.56 97.1041C83.608 106.736 70.336 111.552 51.744 111.552ZM51.744 84.6721C59.024 84.6721 64.064 82.2641 66.864 77.4481C69.776 72.5201 71.232 65.2961 71.232 55.7761C71.232 46.1441 69.776 38.9201 66.864 34.1041C64.064 29.2881 59.024 26.8801 51.744 26.8801C44.464 26.8801 39.368 29.2881 36.456 34.1041C33.656 38.9201 32.256 46.1441 32.256 55.7761C32.256 65.2961 33.656 72.5201 36.456 77.4481C39.368 82.2641 44.464 84.6721 51.744 84.6721ZM147.339 111.552C144.203 111.552 140.395 111.272 135.915 110.712C131.435 110.264 127.011 109.592 122.643 108.696C118.387 107.8 114.803 106.792 111.891 105.672V80.4721C116.707 82.6001 121.859 84.1681 127.347 85.1761C132.835 86.0721 137.819 86.5201 142.299 86.5201C148.571 86.5201 153.219 85.7361 156.243 84.1681C159.379 82.6001 160.947 79.6881 160.947 75.4321C160.947 69.1601 156.019 66.0241 146.163 66.0241H127.851L129.867 44.8561H145.155C150.083 44.8561 153.611 44.0721 155.739 42.5041C157.867 40.9361 158.931 38.4161 158.931 34.9441C158.931 31.6961 157.531 29.2321 154.731 27.5521C152.043 25.8721 147.619 25.0321 141.459 25.0321C136.531 25.0321 131.547 25.5921 126.507 26.7121C121.467 27.8321 117.155 29.2881 113.571 31.0801V6.04807C117.715 4.36807 122.867 2.96807 129.027 1.84807C135.187 0.616065 141.347 6.29425e-05 147.507 6.29425e-05C156.915 6.29425e-05 164.867 1.34406 171.363 4.03206C177.859 6.72007 182.787 10.4161 186.147 15.1201C189.507 19.8241 191.187 25.2001 191.187 31.2481C191.187 36.4001 190.179 41.1041 188.163 45.3601C186.259 49.6161 183.403 52.9761 179.595 55.4401C188.667 59.2481 193.203 66.8081 193.203 78.1201C193.203 85.8481 191.187 92.1761 187.155 97.1041C183.235 102.032 177.803 105.672 170.859 108.024C164.027 110.376 156.187 111.552 147.339 111.552Z" fill="#B1C6DC"/>
</svg>
