<svg width="192" height="112" viewBox="0 0 192 112" fill="none" xmlns="http://www.w3.org/2000/svg">
<path d="M51.744 111.552C39.312 111.552 29.288 109.424 21.672 105.168C14.168 100.8 8.68 94.4721 5.208 86.1841C1.736 77.8961 3.11434e-06 67.7601 3.11434e-06 55.7761C3.11434e-06 43.7921 1.736 33.6561 5.208 25.3681C8.68 17.0801 14.168 10.8081 21.672 6.55207C29.288 2.18406 39.312 6.29425e-05 51.744 6.29425e-05C70.336 6.29425e-05 83.608 4.81606 91.56 14.4481C99.512 23.9681 103.488 37.7441 103.488 55.7761C103.488 73.6961 99.512 87.4721 91.56 97.1041C83.608 106.736 70.336 111.552 51.744 111.552ZM51.744 84.6721C59.024 84.6721 64.064 82.2641 66.864 77.4481C69.776 72.5201 71.232 65.2961 71.232 55.7761C71.232 46.1441 69.776 38.9201 66.864 34.1041C64.064 29.2881 59.024 26.8801 51.744 26.8801C44.464 26.8801 39.368 29.2881 36.456 34.1041C33.656 38.9201 32.256 46.1441 32.256 55.7761C32.256 65.2961 33.656 72.5201 36.456 77.4481C39.368 82.2641 44.464 84.6721 51.744 84.6721ZM111.891 109.872V95.4241C115.027 89.4881 118.835 84.1681 123.315 79.4641C127.795 74.7601 132.779 69.9441 138.267 65.0161C142.859 60.8721 146.555 57.4561 149.355 54.7681C152.267 52.0801 154.395 49.5601 155.739 47.2081C157.195 44.7441 157.923 41.9441 157.923 38.8081C157.923 30.8561 152.715 26.8801 142.299 26.8801C137.483 26.8801 132.779 27.4401 128.187 28.5601C123.707 29.6801 119.451 31.0801 115.419 32.7601V5.88007C120.011 4.08806 125.387 2.68806 131.547 1.68006C137.707 0.560062 143.923 6.29425e-05 150.195 6.29425e-05C163.635 6.29425e-05 173.659 3.19207 180.267 9.57607C186.875 15.8481 190.179 24.3041 190.179 34.9441C190.179 39.9841 189.563 44.3521 188.331 48.0481C187.211 51.6321 185.419 54.9361 182.955 57.9601C180.491 60.9841 177.299 64.2321 173.379 67.7041C169.907 70.7281 166.491 73.7521 163.131 76.7761C159.771 79.8001 157.083 82.7681 155.067 85.6801H191.187V109.872H111.891Z" fill="#B1C6DC"/>
</svg>
