<svg width="162" height="112" viewBox="0 0 162 112" fill="none" xmlns="http://www.w3.org/2000/svg">
<path d="M51.744 111.552C39.312 111.552 29.288 109.424 21.672 105.168C14.168 100.8 8.67999 94.4721 5.20799 86.1841C1.73599 77.8961 -1.21444e-05 67.7601 -1.21444e-05 55.7761C-1.21444e-05 43.7921 1.73599 33.6561 5.20799 25.3681C8.67999 17.0801 14.168 10.8081 21.672 6.55207C29.288 2.18406 39.312 6.29425e-05 51.744 6.29425e-05C70.336 6.29425e-05 83.608 4.81606 91.56 14.4481C99.512 23.9681 103.488 37.7441 103.488 55.7761C103.488 73.6961 99.512 87.4721 91.56 97.1041C83.608 106.736 70.336 111.552 51.744 111.552ZM51.744 84.6721C59.024 84.6721 64.064 82.2641 66.864 77.4481C69.776 72.5201 71.232 65.2961 71.232 55.7761C71.232 46.1441 69.776 38.9201 66.864 34.1041C64.064 29.2881 59.024 26.8801 51.744 26.8801C44.464 26.8801 39.368 29.2881 36.456 34.1041C33.656 38.9201 32.256 46.1441 32.256 55.7761C32.256 65.2961 33.656 72.5201 36.456 77.4481C39.368 82.2641 44.464 84.6721 51.744 84.6721ZM129.867 109.872V30.9121L111.891 33.6001V7.22407L161.451 6.29425e-05V109.872H129.867Z" fill="#B1C6DC"/>
</svg>
